<?xml version="1.0" encoding="UTF-8" standalone="no"?>
<svg
   viewBox="0 0 8549 2327"
   width="100%"
   height="100%"
   version="1.0"
   id="svg2"
   sodipodi:docname="sproutmettextklein.svg"
   inkscape:version="1.4.2 (ebf0e940, 2025-05-08)"
   xmlns:inkscape="http://www.inkscape.org/namespaces/inkscape"
   xmlns:sodipodi="http://sodipodi.sourceforge.net/DTD/sodipodi-0.dtd"
   xmlns="http://www.w3.org/2000/svg"
   xmlns:svg="http://www.w3.org/2000/svg">
  <sodipodi:namedview
     id="namedview2"
     pagecolor="#ffffff"
     bordercolor="#000000"
     borderopacity="0.25"
     inkscape:showpageshadow="2"
     inkscape:pageopacity="0.0"
     inkscape:pagecheckerboard="0"
     inkscape:deskcolor="#d1d1d1"
     inkscape:zoom="0.023301505"
     inkscape:cx="107.28921"
     inkscape:cy="-1094.3499"
     inkscape:window-width="1200"
     inkscape:window-height="772"
     inkscape:window-x="217"
     inkscape:window-y="25"
     inkscape:window-maximized="0"
     inkscape:current-layer="svg2" />
  <defs
     id="defs16">
    <rect
       x="6473.2007"
       y="1587.7662"
       width="1765.4183"
       height="921.57056"
       id="rect21" />
    <rect
       x="2953.467"
       y="1077.0162"
       width="5151.9126"
       height="1532.2499"
       id="rect20" />
    <rect
       x="4477.0474"
       y="2117.158"
       width="53.940331"
       height="1051.8365"
       id="rect19" />
    <rect
       x="2934.3706"
       y="1572.8228"
       width="4941.48"
       height="1232.4357"
       id="rect18" />
    <rect
       x="3227.8076"
       y="1690.1975"
       width="4354.606"
       height="786.41132"
       id="rect17" />
    <rect
       x="2664.4084"
       y="1690.1975"
       width="5616.5498"
       height="1769.8562"
       id="rect16" />
  </defs>
  <path
     fill="#0040bf"
     d="m 56.786438,72.582298 c -0.4,3.8 -1,117.900002 -1.3,253.800002 l -0.6,247 3.6,31.5 c 7.2,61.3 10.3,78.8 23.1,129.3 7.2001,28.6 9.5001,36 16.5003,53.5001 4.400002,11.1999 8.300002,21.5998 8.700002,23.1999 0.3001,1.7 1,3 1.4,3 1.2,0 1.5,0.7 9.5002,23 3.6999,10.2 8.4,22 10.5,26.2 2.2002,4.3 3.9001,8.3999 3.9001,9.3 0,0.8001 0.4,1.5 0.9,1.5 0.4999,0 1.1999,1.3001 1.5999,2.8999 0.3,1.6001 1.3,3.5 2.1,4.2 0.8,0.6001 1.4,2.2002 1.4,3.4001 0,1.2 0.7001,2.8001 1.5,3.5 0.8,0.7 1.4999,2 1.4999,2.8999 0,1 1.1001,3.3001 2.5,5.1001 1.4,1.8999 3.1001,5.3001 3.7,7.5 0.6,2.2 1.8999,4.8999 2.8999,6 0.9001,1.0999 3.1,4.8999 4.9001,8.5 1.7999,3.5999 3.8999,7.2 4.5998,8.0999 0.8001,0.9001 2.9,4.5 4.7,8 5.3999,10.5 12.8999,23.2002 15.8999,26.7002 1.5,1.7998 2.7999,3.7998 2.7999,4.5 0,0.6999 1.8,3.3999 4,6.1999 2.2001,2.7 4,5.5 4,6.0999 0,0.5 2,3.4001 4.4999,6.3 2.5,2.9002 4.5,5.8001 4.5,6.5 0,0.7 2.6001,4.2 5.8,7.7 3.3001,3.5 6.5,7.6001 7.3001,9 0.7999,1.5 3.7999,5.4001 6.6999,8.7002 2.9,3.2998 6.5,7.7998 8,10 1.5,2.1999 9.1,10.8999 17,19.1999 7.9,8.3999 15.4,16.8999 16.7,19 3.5,5.5999 14.1001,16.5999 18.3,19.0999 2.1,1.3 8.3001,6.7002 13.9,12.1001 5.6,5.3999 10.7,9.8 11.3,9.8 0.6001,0 5.4,4 10.6001,9 5.2999,4.8999 10,9 10.5,9 0.5,0 4.2999,3.0999 8.5,7 4.0999,3.8001 7.8999,7 8.3999,7 0.5,0 4.4,3.2 8.6001,7 4.2999,3.8001 8.2999,7 9.0999,7 0.7,0 2.9001,1.5999 4.9001,3.5 1.8999,1.8999 4.0999,3.5 4.8999,3.5 0.8,0 3.2,1.5 5.2,3.3999 2.1,1.8001 5,3.6001 6.6,4 1.5,0.3001 2.7,1.1001 2.7,1.6001 0,0.5999 0.7,1 1.5,1 0.8,0 3.2,1.5999 5.4,3.5 2.1,1.8999 4.6,3.5 5.5,3.5 0.9,0 2.5,0.8999 3.6,2 1.1001,1.0999 2.6001,2 3.4,2 0.8,0 3.9,2.2 6.9,5 3,2.7 6,5 6.6,5 0.6,0 2.8,1.5 4.9,3.3999 2.1,1.9002 5,3.8001 6.6,4.2 1.5,0.3 3,1.3 3.3,2 0.3,0.8 1.4001,1.4001 2.5,1.4001 1.1,0 3.1,0.8999 4.5,2 1.4001,1.0999 3.1,2 3.8,2 0.7,0 1.8,0.7 2.5,1.5 0.7,0.8001 2.3,1.5 3.7,1.5 1.3,0 2.6,0.5999 2.9001,1.3999 0.2999,0.8001 1.7999,1.8001 3.3999,2.1001 1.6001,0.3001 3.4,1.3001 4.1001,2.0999 0.5999,0.8 1.8999,1.4001 2.8999,1.4001 0.9,0 2.7,0.8999 4,2 1.3,1.0999 3.2,2 4.2,2 1,0 2.1,0.7 2.4,1.5 0.3999,0.8001 1.5,1.5 2.6,1.5 1.1,0 3.1,0.8999 4.5,2 1.4,1.0999 3.4,2 4.5,2 1,0 2.1,0.7 2.4,1.5 0.3999,0.8001 1.3999,1.5 2.3999,1.5 0.9001,0 2.9001,0.8999 4.3001,2 1.4,1.0999 3.1999,2 4,2 0.8,0 2,0.7 2.6999,1.5 0.7001,0.8001 2.1001,1.5 3.1001,1.5 0.8999,0 2.5,0.7 3.3999,1.5999 0.8001,0.9001 3.3001,1.8 5.5,2.1001 2.2001,0.3 4.5,1.1999 5.1001,1.8999 0.6,0.8 2,1.4001 3,1.4001 0.8999,0 2.5,0.7 3.3999,1.5999 0.8001,0.9001 3.3001,1.8 5.5,2.1001 2.2001,0.3 4.5,1.1999 5.1001,1.8999 0.6,0.8 1.8999,1.4001 2.8,1.4001 0.9,0 3,0.8999 4.6,2 1.7,1.0999 4.2,2 5.7,2 1.5,0 3.3,0.7 4.2,1.5 0.8,0.8001 2.1,1.5 2.8,1.5 0.7,0 2.7,0.8999 4.3,2 1.7,1.0999 4.2,2 5.7,2 1.5,0 3.3,0.7 4.2,1.5 0.8,0.8001 2.6,1.5 4,1.5 1.4,0 4.3,0.8999 6.3,2 2.1,1.0999 5.7,2 8,2 2.4,0 4.8,0.5999 5.7,1.5 0.8,0.8999 3.3,1.5 5.8,1.5 2.4,0 6,0.8999 8.1,2 2,1.0999 5.3001,2 7.3001,2 2,0 4.7999,0.5999 6.1999,1.3999 1.5,0.8001 4.3001,1.7 6.3001,2.1001 2.0999,0.3001 4.1999,1.2 4.8999,2 0.7,0.8001 2.7,1.5 4.4,1.5 1.8,0 4.1,0.7 5.2,1.5 1.2,0.8999 4.3,1.3999 8.8,1.5 h 6.9 l -0.7,-19.6999 c -0.4,-12.3001 -1.1001,-20.2002 -1.8,-21 -0.7,-0.8001 -1.4,-7.3001 -1.8001,-15.6001 -0.2999,-7.8001 -1.0999,-15.1001 -1.6999,-16.2 -0.5,-1.1001 -1.3001,-7.5 -1.6,-14.3 -0.3,-7.3001 -1,-12.8999 -1.7001,-13.7 -0.6999,-0.8 -1.5,-5.4001 -1.6999,-10.1999 -0.3001,-4.9002 -1.2,-10 -1.9,-11.5 -0.8,-1.5 -1.4,-5.7002 -1.4,-9.5 0,-4.1001 -0.6,-7.9002 -1.5,-9.7002 -1,-1.7998 -1.7,-7.0999 -2.1,-14.5 -0.3,-6.3999 -1.2,-13.2998 -2,-15.3999 -0.8,-2.1001 -1.4,-7.3001 -1.4,-12 0,-4.8999 -0.6,-9.2 -1.3,-10.7 -0.8,-1.4001 -1.7,-7.3 -2,-13.1001 -0.4,-6.3 -1.3,-11.8 -2.2,-13.5 -0.8,-1.5998 -1.5,-5 -1.5,-7.5 0,-2.8999 -0.6,-5.0998 -1.5,-5.8999 -0.8999,-0.6999 -1.5,-2.9001 -1.5,-5.4001 0,-2.2 -0.7,-5.5 -1.6,-7.0999 -0.9,-1.6999 -1.8,-5.5 -2.1,-8.5 -0.3001,-3 -1.2,-6.4001 -1.9,-7.5 -0.8,-1.1001 -1.4,-4.4001 -1.4,-7.5 0,-3 -0.7,-6.8 -1.5,-8.4001 -0.8999,-1.5999 -1.8,-7 -2.2,-12 -0.3,-4.8999 -1.1999,-10.2 -2,-11.5999 -0.6999,-1.4001 -1.3,-5.6001 -1.3,-9.3 0,-3.7 -0.6,-8 -1.3999,-9.5 -0.7001,-1.5 -1.6001,-5 -1.9001,-7.7 -0.3,-2.8 -1.3,-6.4001 -2.0999,-8 -0.9001,-1.6999 -1.6001,-4.8 -1.6001,-7.1001 0,-2.1999 -0.7,-4.8999 -1.5,-6 -0.8,-1 -1.5,-3.0998 -1.5,-4.6999 0,-1.5 -0.8999,-4.3999 -2,-6.3999 -1.1,-2.1001 -2,-5.6001 -2,-7.8001 0,-2.1999 -0.7,-4.9001 -1.5,-5.9001 -0.8,-1.0999 -1.5,-4 -1.5,-6.5999 0,-2.5 -0.7,-5.5 -1.5,-6.6999 -0.8,-1.2002 -1.8,-4.9002 -2.2,-8.2002 -0.3,-3.3999 -1.1999,-6.5999 -1.9,-7.2 -0.7999,-0.5998 -1.4,-2.8999 -1.4,-5.0998 0,-2.5 -0.5,-4.1001 -1.5,-4.4002 -0.8,-0.3999 -1.5,-1.3999 -1.5,-2.3 0,-0.8999 -0.8999,-3 -2,-4.5999 -1.1,-1.6999 -2,-4.4001 -2,-6.1001 0,-1.6999 -0.7,-3.6999 -1.5,-4.3999 -0.8999,-0.6999 -1.5,-2.9001 -1.5,-5.1001 0,-2.0998 -0.7,-4.5 -1.6,-5.3999 -0.9,-0.9001 -1.9,-3.6001 -2.2,-6 -0.2,-2.5 -1.0999,-5 -1.8,-5.6001 -0.7999,-0.6999 -1.4,-3.0998 -1.4,-5.8 0,-2.5999 -0.7,-5.5999 -1.5,-6.7998 -0.8,-1.2002 -1.8,-4.9002 -2.2,-8.2002 -0.3,-3.3999 -1.1999,-6.5999 -1.9,-7.2 -0.7999,-0.5998 -1.4,-2.8 -1.4,-4.8999 0,-2.1001 -0.6,-4.3 -1.3999,-4.9001 -0.7001,-0.5999 -1.6001,-3.8999 -2,-7.2998 -0.3001,-3.4002 -1.1001,-6.5 -1.7001,-6.9002 -0.6,-0.3 -1.4,-2.8 -1.6,-5.3999 -0.3,-2.6001 -1.1999,-4.9 -1.9,-5.2 -0.7999,-0.3 -1.4,-1.4 -1.4,-2.6 0,-1.1 -0.7,-2.8001 -1.6,-3.8001 -0.9,-1 -1.7999,-3.6999 -2.1,-6.0999 -0.3,-2.4001 -1.1999,-4.7 -1.9,-5.1 -0.7999,-0.4 -1.4,-1.8001 -1.4,-3.1 0,-1.3 -0.6,-2.9 -1.3999,-3.5 -0.8001,-0.7001 -1.8001,-3.1 -2.1001,-5.4 -0.3999,-2.3001 -1.3999,-5.1 -2.1,-6.2 -0.7999,-1.1001 -1.4,-3.4 -1.4,-5.1001 0,-1.6999 -0.7,-3.6999 -1.5,-4.3999 -0.7999,-0.7 -1.5,-2 -1.5,-3 0,-0.9 -0.8999,-2.9 -2,-4.3 -1.1,-1.4 -2,-3.6 -2,-5 0,-1.3001 -0.7,-3 -1.5,-3.7 -0.7999,-0.7 -1.5,-2.5 -1.5,-4.1001 0,-1.5 -0.7,-3.5 -1.6,-4.3999 -0.9,-0.8 -1.7999,-3.5 -2.1,-5.8 -0.3,-2.3001 -1.1999,-4.6 -1.9,-5 -0.7999,-0.4 -1.4,-1.8001 -1.4,-3.1 0,-1.3 -0.7,-2.9 -1.5,-3.6 -0.7,-0.6001 -1.7,-3.1001 -2.1,-5.5 -0.2999,-2.5 -1.1999,-5 -2,-5.6001 -0.7999,-0.6 -1.4,-2.1999 -1.4,-3.3999 0,-1.2 -0.6,-2.8 -1.3999,-3.4 -0.7001,-0.6 -1.6001,-3 -1.9,-5.2001 -0.3001,-2.1999 -1.2001,-4.7999 -2.1,-5.7999 -0.9,-1 -1.6001,-2.7001 -1.6001,-3.8 0,-1.2 -0.7,-2.3 -1.5,-2.7 -0.7999,-0.3 -1.5,-1.5 -1.5,-2.7001 0,-1.0999 -0.8999,-3.1999 -2,-4.5999 -1.1,-1.4001 -2,-3.4001 -2,-4.3 0,-1 -0.7,-2.3 -1.5,-3 -0.7999,-0.7 -1.5,-2 -1.5,-3 0,-1 -0.6,-2.3 -1.3999,-2.9 -0.8001,-0.7001 -1.8001,-2.5 -2.1001,-4.1 -0.2999,-1.6001 -1.2999,-3.4 -2.1,-4.1001 -0.7999,-0.6 -1.4,-2.1999 -1.4,-3.3999 0,-1.3 -0.7,-2.5 -1.5,-2.9 -0.7999,-0.3 -1.5,-1.4 -1.5,-2.4 0,-1.1 -0.8999,-3.1 -2,-4.5 -1.1,-1.4 -2,-3.5 -2,-4.6 0,-1.2001 -0.7,-2.4 -1.5,-2.7001 -0.7999,-0.3999 -1.5,-1.5 -1.5,-2.5999 0,-1.1 -0.8999,-3.1 -2,-4.5 -1.1,-1.4001 -2,-3.4001 -2,-4.3 0,-1 -0.7,-2.3 -1.5,-3 -0.7999,-0.7 -1.5,-2.3 -1.5,-3.5 0,-1.3 -0.6,-2.5 -1.3999,-2.8 -0.8001,-0.3001 -1.7001,-1.9 -2.1001,-3.6 -0.2999,-1.6 -1.2999,-3.5 -2.1,-4.2001 -0.7999,-0.6 -1.4,-2.1999 -1.4,-3.6 0,-1.2999 -0.7,-2.5999 -1.5,-2.9 -0.7999,-0.3999 -1.5,-1.3999 -1.5,-2.3999 0,-0.9 -0.8999,-2.9 -2,-4.3 -1.1,-1.4 -2,-3.2 -2,-4 0,-0.8001 -0.7,-1.7 -1.5,-2.1 -0.7999,-0.3001 -1.5,-1 -1.5,-1.7001 0,-0.6 -0.8999,-2.1999 -2,-3.6 -1.1,-1.4 -2,-3.4 -2,-4.2999 0,-1 -0.7,-2 -1.5,-2.4 -0.7999,-0.3001 -1.5,-1.4 -1.5,-2.5 0,-1 -0.6,-2.1 -1.3999,-2.4 -0.8001,-0.3001 -1.7001,-1.9 -2.1001,-3.6 -0.2999,-1.6 -1.2999,-3.5 -2.1,-4.2001 -0.7999,-0.6 -1.4,-1.6999 -1.4,-2.3999 0,-0.7 -0.6,-1.8 -1.3999,-2.4 -0.8001,-0.7001 -1.7001,-2.3 -2.1001,-3.8 -0.2999,-1.4001 -1.2999,-3.2 -2,-4 -0.7999,-0.8 -1.5,-2.3 -1.5,-3.2 0,-1 -0.7,-2.4 -1.5,-3.1 -0.7999,-0.7 -1.5,-2 -1.5,-3 0,-0.9 -0.8999,-2.7 -2,-4 -1.1,-1.3 -2,-2.9 -2,-3.6001 0,-0.6999 -2.2,-3.8999 -5,-7.1 -2.7,-3.1999 -5,-6.4 -5,-7.0999 0,-0.6 -0.5,-1.2 -1,-1.2 -0.6,0 -1.2999,-0.8 -1.7,-1.8 -0.3,-0.9001 -1.3,-2.5 -2.0999,-3.5 -1.7001,-1.9001 -3.6,-5.1 -5.1,-8.5 -0.6001,-1.2 -1.5,-2.2 -2,-2.2 -0.5,0 -1.3001,-1 -1.7001,-2.3 -0.6,-1.9001 -4,-6.4001 -8.9,-11.8001 -0.7999,-0.8999 -1.5,-1.8999 -1.5,-2.3999 0,-0.4 -1.6,-2.5 -3.5,-4.6001 -1.8999,-2.1999 -3.5,-4.5 -3.5,-5.2999 0,-0.8001 -0.7,-1.6 -1.5,-2 -0.7999,-0.3001 -1.5,-1.1 -1.5,-1.9 0,-0.7 -1.6,-2.8001 -3.5,-4.7 -1.8999,-1.9 -3.5,-3.9 -3.5,-4.5 0,-0.7001 -0.8999,-2 -2,-3 -1.1,-1 -2,-2.3 -2,-3 0,-0.6001 -1.2999,-2.4 -3,-4 -1.6,-1.6001 -3,-3.4 -3,-4.2001 0,-0.6999 -0.8999,-1.6999 -2,-2.2999 -1.1,-0.6001 -2,-1.7001 -2,-2.4 0,-0.7001 -5.1,-6.8001 -11.2,-13.4 -6.1999,-6.7 -14.9,-16.2 -19.3,-21.2 -4.3999,-5 -13.3999,-14.8 -19.8999,-21.8 -16,-17.1 -17.6001,-19.3001 -17.6001,-25.4 0,-3.3 0.4,-4.8 1.3,-4.8 0.8001,0 6.5,4.8 12.8001,10.8 6.2999,5.9 12.7999,11.5999 14.3999,12.7 1.7001,1 5.3,4 8,6.5 2.8,2.6 5.9,5.2 7,5.8 9.5,5.0999 104.3,99.5999 113.2001,112.8 1.5,2.1 5.0999,6.6 8,9.7999 2.9,3.3001 5.2999,6.4001 5.2999,7.1001 0,0.6 2.9,4.2 6.3,8 3.5,3.8999 7.1,8.3999 8,10.2 0.9001,1.6999 3.5,5.1999 5.7,7.8 2.2001,2.5 4,5 4,5.3999 0,0.5 2.3,3.7001 5,7.1001 2.8,3.3999 5,6.7 5,7.2 0,0.6 1.2001,2.4 2.6001,4.1999 3.6999,4.6001 11.6,15.4001 13.8999,19.1001 1.1001,1.7 3.2001,4.6 4.8,6.3999 1.5,1.8001 2.7,4 2.7,5 0,1 0.9,2.6001 2,3.6001 1.1001,1 2,2.6 2,3.6 0,0.9 1.6001,3.6 3.5,5.9 1.9,2.3 3.5,4.8 3.5,5.5 0,0.7 0.7001,1.8 1.5,2.5 0.8,0.7 1.5,2 1.5,3 0,1 1.6001,3.7 3.5,6 1.9,2.3 3.5,5 3.5,6 0,1 0.7001,2 1.5,2.3999 0.8,0.3001 1.5,1.6001 1.5,2.9001 0,1.3 0.9,3.2 2,4.2 1.1001,1 2,2.6 2,3.6 0,0.9 1.6001,3.6 3.5,5.9 1.9,2.3 3.5,5 3.5,6 0,1 0.7001,2 1.5,2.3999 0.8,0.3001 1.5,1.6001 1.5,2.9 0,1.4001 0.6001,3 1.4,3.6 0.8001,0.7001 1.8001,2.5 2.1,4.1001 0.3,1.6 1.3,3.1 2.1001,3.3999 0.7999,0.3001 1.3999,1.6001 1.3999,2.9 0,1.4001 0.7001,3 1.5,3.7001 0.8,0.7 1.5,2 1.5,3 0,0.8999 0.9,2.7 2,4 1.1001,1.2999 2,3.2999 2,4.5 0,1.2999 0.7001,2.5 1.5,2.8999 0.8,0.3001 1.5,1.5 1.5,2.7001 0,1.1 0.9,3.1999 2,4.6 1.1001,1.4 2,3.4 2,4.3 0,1 0.7001,2 1.5,2.3999 0.8,0.3001 1.5,1.6001 1.5,2.9 0,1.4001 0.6001,3 1.4,3.6 0.8001,0.7001 1.7001,2.3001 2.1,3.8001 0.3,1.4 1.3,3.1999 2,4 0.8,0.8 1.5,2.5 1.5,3.8 0,1.2 0.7001,2.5 1.5,2.8999 0.8,0.3001 1.5,1.8001 1.5,3.3001 0,1.5999 0.9,4.5 2,6.5999 1.1001,2 2,4.3001 2,5.1 0,0.7001 0.7001,1.9 1.5,2.6001 0.8,0.7 1.5,2 1.5,3 0,0.8999 0.9,2.7 2,4 1.1001,1.3 2,3.1 2,4 0,1 0.7001,2.3 1.5,3 0.8,0.7 1.5,2.8999 1.5,5 0,2.1 0.6001,4.3 1.4,4.8999 0.8001,0.7001 1.8001,3.1001 2.1,5.4 0.4,2.3001 1.4,5.1 2.1001,6.2001 0.7999,1.1 1.3999,3.3999 1.3999,5.1 0,1.6999 0.7001,3.6999 1.5,4.4 0.8,0.7 1.5,2.2 1.5,3.5 0,1.2 0.9,3 2,4 1.1001,1 2,2.7999 2,4 0,1.2999 0.7001,2.5 1.5,2.8999 0.8,0.3001 1.5,1.6001 1.5,2.9002 0,1.3999 0.7001,3 1.5,3.6999 0.8,0.7 1.7001,2.8001 2,4.8999 0.4,2 1.3,4.8001 2.1001,6.3001 0.7999,1.3999 1.3999,3.8999 1.3999,5.6001 0,1.5998 0.7001,3.5 1.5,4.1999 0.7001,0.5999 1.7001,3.2 2.1001,5.8001 0.3999,2.5 1.2999,5.1999 2,6 0.7999,0.6999 1.3999,3.0998 1.3999,5.0998 0,2.2 0.6001,4.4002 1.5,5.1001 0.8,0.7 1.5,2.3999 1.5,3.8999 0,1.4002 0.9,4.3001 2,6.4002 1.1001,2 2,5 2,6.5998 0,1.6001 0.7001,3.4002 1.5,4.1001 0.8,0.7 1.5,2.7 1.5,4.3999 0,1.7 0.7001,4.2 1.6001,5.4002 0.8999,1.2998 1.7999,5 2.1,8.2998 0.2999,3.2002 1.1999,6.4001 1.9,7 0.7999,0.7002 1.3999,3.1001 1.3999,5.8 0,2.6001 0.6001,5.6001 1.4,6.7 0.8001,1.1001 1.7001,4.6001 2.1,7.9001 0.4,3.3001 1.4,6.8999 2.1,8 0.8,1.0999 1.4,4.5 1.4,8 0,3.5 0.6,6.8999 1.4,8 0.7,1.0999 1.6,4.7 1.9,7.8999 0.3001,3.3001 1.1,6.2 1.8,6.6001 0.6001,0.3999 1.4,2.8001 1.6001,5.3999 0.2999,2.5 1.1999,5.1001 1.9,5.7 0.7999,0.6001 1.3999,2.6001 1.3999,4.3 0,1.7 0.7,4.2 1.6001,5.5 1,1.4002 1.8999,5.2 2.1999,9.5 0.2,3.9002 1,7.7 1.6,8.5 0.6,0.8001 1.4,5.6001 1.7001,10.7 0.2999,5.1001 1.1,10 1.6999,10.7002 0.6,0.6999 1.5,4.6999 1.8001,8.7998 0.3999,4.1001 1.2999,8.3 2,9.4001 0.7999,1.0999 1.3999,4.5 1.3999,8 0,3.5 0.6001,6.8999 1.4,8 0.7001,1.0999 1.6,5.3001 1.9,9.3001 0.3001,4.0998 1.1,8 1.8001,8.7998 0.6999,0.8 1.3999,5.2002 1.5999,9.7002 0.2,4.5 1,9.7998 1.8,11.6999 0.8,1.8999 1.6001,7 1.8,11.2 0.2,4.3 1,8.3999 1.6,9.1999 0.8001,1 1.5,6.6001 1.8001,15.8001 0.2999,7.8999 1,14.8999 1.5999,15.6001 0.6,0.6999 1.3001,7 1.7,14 0.4,7 1.2001,13.6999 1.8,14.7998 0.6,1.2002 1.4001,7.7002 1.8001,14.5 0.3999,6.8 1.1999,13 1.6999,13.8 0.7,0.7 1.4001,8.8001 1.7,19 0.3,9.7 1.1001,18.5 1.7001,19.6001 0.5,1.0999 1.2999,8.2 1.5999,15.8001 0.4001,8.3999 1.1,14.5 1.8001,15.2998 0.7999,0.9001 1.3999,7.9001 1.7999,19.2002 0.3001,9.6999 1.4004,18.2778 1.6,19.1999 1.432,6.616 9.9988,6.2849 13.2001,-28.3 1.1999,0.3 1.1999,-1.3999 0,-3.5 -0.6001,-0.8001 -0.1001,-1.5 1.3999,-2 1.4,-0.6001 1.8,-1.1001 1.1001,-1.6001 -1.5,-0.8999 -0.4001,-3.5999 1.2999,-3 1.4,0.6001 1.5,-1.2 0.2001,-3.2 -1.1001,-1.8 0.2999,-7.3 1.7999,-6.8 1.3,0.5 1.5,-3.2 0.2001,-5.2 -1.1001,-1.8 0.2999,-7.3 1.6999,-6.8 1.4,0.5 1.6,-5.2 0.3001,-7.2998 -1.1001,-1.7002 0.2999,-6.3001 1.9,-6.3001 1,0 1.1,-0.6001 0.1999,-3 -1.4,-4.1999 -0.3,-10.1001 1.9001,-9.3 1.2999,0.5 1.2999,0.3 0.5,-1.3999 -1.5,-2.7002 -0.4001,-9.3001 1.4,-8.6001 1,0.3 1.1999,-0.3001 0.6999,-2.3999 -1.1,-5.7002 -0.6999,-9.3001 1.1,-9.3001 1.4,0 1.6,-2.3 0.3001,-3.6001 -0.4001,-0.3999 -0.7001,-3.5998 -0.7001,-7.0998 0,-6.4002 1.3,-10.8001 3,-9.8001 0.9,0.5999 0.8,-1.4001 -0.2999,-3.1001 -1.1,-1.8 0.2999,-7.3 1.7999,-6.8 1.3,0.5 1.4,-2.7998 0.1001,-5.7 -0.8001,-1.8999 1,-7.1999 2.1999,-6.5 1,0.6001 0.9001,-2.8999 -0.1999,-6.0998 -0.8001,-2.4002 0.8999,-6.7002 2.3999,-5.8001 1,0.5999 0.8,-1.4001 -0.2999,-3.1999 -1.1,-1.7002 0.2999,-6.3001 1.9,-6.3001 1,0 1.1,-0.6001 0.5,-2.3 -1.2001,-3.2 -0.2001,-8.7 1.3999,-8.1001 1.4,0.6001 1.4,-0.7 0,-3.8999 -0.8999,-2.1001 1,-7.1001 2.4,-6.3001 1,0.7 0.9,-1.3 -0.2,-3 -1.0999,-1.8999 0.3,-7.3 1.8,-6.6999 1.4,0.5 1.5,-1.3001 0.2,-3.3999 -1,-1.5 1,-5.6001 2.3,-4.8001 0.6001,0.3999 0.6001,-0.3 0.1001,-1.9001 -1,-2.5999 0.6999,-5.2998 2.5,-3.7998 0.3999,0.3999 0.1999,-0.1001 -0.5,-1 -1.7001,-2.2002 -0.6001,-5.9002 1.6,-5.1001 1.1999,0.5 1.2999,0.3 0.2999,-1.3001 -1.2999,-2.1999 0.3,-8 1.9,-6.8999 0.9,0.5 0.5,-4 -0.5,-5.6001 -0.6999,-1.1999 0.7001,-3.8999 2.2001,-3.8999 1.1,0 1.1999,-0.4001 0.1999,-1.9001 -0.9,-1.5 -0.9,-2.2998 0.1,-3.5 0.7001,-0.8999 1.7001,-1.3999 2.1,-1.0999 1,0.5999 0.8,-1.5 -0.2999,-3.1999 -1.1,-1.7002 0.2999,-6.3001 1.7999,-6.3001 1.3,0 1.5,-2.3 0.3,-3.5 -1.0999,-1.1001 0.4001,-5.4001 1.7,-4.9001 1.4,0.6001 1.4,-0.7 0,-3.8999 -0.8999,-2.1001 1.1001,-7.1001 2.4,-6.2 0.9,0.5 0.5,-4 -0.5,-5.6999 -0.6999,-1.1001 1.5,-5 2.6,-4.3001 0.9,0.5999 0.8,-1.4001 -0.2,-3.1001 -1.1999,-1.8 0.2,-5.3 1.9001,-4.6999 1.2999,0.5 1.2999,0.3 0.2999,-1.6001 -0.8999,-1.7 0.4765,-1.0984 1.1262,-3.0743 1.9514,-3.0776 0.4739,-1.7255 0.9739,-1.4257 0.5,0.3 -0.6262,3.5044 1.2513,-0.5486 1.1524,-3.4754 -0.2749,-2.5476 1.7,-4.0999 0.2486,-2.6535 0.2486,-0.7514 -0.9513,-2.3515 -1.3001,-1.5 -0.5181,-0.032 -0.1001,-2.5999 0.8,-0.5 -0.131,-0.144 0.269,0.1558 0.9,0.5 0.9539,-1.2131 1.3007,-3.7385 0.8772,-1.2781 0.03,-1.7173 1.5304,-2.2173 1.2262,-1.6861 1.7999,-1.1001 1.1,-1.6001 1.4281,-2.3467 -0.2566,-0.3848 1.5999,-2.7998 -2.4969,2.0205 -1.8453,2.4419 0.3001,-1.2002 1.0026,-2.1516 -1.0829,0.7937 -0.1001,-2.5999 0.6698,-1.1516 1.7001,-0.6999 2.1001,-0.4001 0.8999,0.5 0.6,-1.7 -0.5,-3.3999 -0.5,-0.8999 -0.1001,-1.5 1.2999,-1.8999 1.7001,-0.4002 1.9,-0.8001 0.9,-2 -0.9,-1.1001 -0.9,-1.6001 0.2,-2.3001 0.8,-0.5 1.9,-0.6001 2.5,-0.1999 0.5,0.2998 0.4,-0.2002 -0.3999,-1.2002 -1.3001,-1.5 -1.3001,-1.8999 -0.1001,-2.5999 0.8,-0.5 1.9,-0.6001 2.5,-0.1999 0.5,0.2998 0.4,-0.2002 -0.3999,-1.2002 -1.3001,-1.5 -1.3001,-1.8999 -0.1001,-2.5999 0.8,-0.5 1.9,-0.6001 2.5,-0.1999 0.5,0.2998 0.4,-0.1001 -0.2999,-1 -1.5,-1.9002 -0.6,-4.8001 1.5,-4.8001 1.1999,0 1.2999,-0.3 0.4,-1.4001 -0.8001,-1 -0.8001,-1.5999 0.1999,-2.5 0.8001,-0.5999 1.8001,-0.7 2.3001,-0.2998 0.3999,0.3999 0.2999,0 -0.4,-0.9002 -1.3001,-1.6999 -0.7001,-4.8999 1,-4.8999 0.5,0 0.7999,-0.6001 0.6999,-1.3 -0.2999,-2.8001 0.2001,-3.6001 1.9,-3 1.5,0.6001 1.5,0.5 0.4001,-1 -1.6,-1.8001 -0.7001,-4.1001 1.2999,-3.3001 1.4,0.5 1.5,-1.0998 0.2001,-3 -0.8001,-1.3999 1.5999,-3.6999 2.7999,-2.5998 0.4,0.3999 0.3,-0.3001 -0.3999,-1.5 -1.4,-2.8001 -0.5,-5.4002 1.6999,-4.5 1.4001,0.5 1.5,0.2998 0.5,-0.9002 -1.5999,-2 -0.5999,-5.8999 1.4001,-5.1999 1.2999,0.5 1.2999,0.3 0.1999,-1.5 -1,-1.7 -1,-2.3001 0,-3.6001 0.7001,-0.8999 1.7001,-1.3999 2.1,-1.0999 1,0.5999 0.8,-1.5 -0.2999,-3.1999 -1,-1.6001 0.1999,-4.3001 2,-4.3001 1.1999,0 1.2999,-0.3 0.4,-1.4001 -1.4,-1.5999 0.2999,-6.0999 1.8999,-5.0999 -6.2454,17.1033 0.8,-1.4001 -0.3,-3.1999 -1,-1.6001 0.2,-4.3001 2.1,-4.3001 1.2,0 1.3001,-0.3 0.5,-1.1001 -1.6,-1.5998 -0.5,-3.8999 1.5,-3.0998 1.4,0.5 1.5,0.2998 0.4,-1 -1,-1.2002 -1,-1.7002 0.1,-2.7002 0.8001,-0.5999 1.8001,-0.7 2.3001,-0.2998 0.3999,0.3999 0.2999,0 -0.4,-0.9002 -1.5,-2 -0.6,-4.8999 1.5,-4.8999 1.1999,0 1.2999,-0.3 0.2999,-1.5 -1.3999,-1.6999 -0.3999,-3.9001 1.5,-3.1001 1.4,0.5 1.5,-1.0998 0.2001,-3 -0.7001,-1.3 1.5999,-3.8 2.5999,-2.8 0.8001,0.8 0.3001,-1.7998 -0.5999,-3.3999 -0.6,-0.8001 -0.1,-1.5 1.4,-2 1.3999,-0.6001 1.7999,-1.1001 1.1,-1.6001 -1.7001,-1 -0.3001,-3.5999 1.5999,-2.8999 1.3001,0.5 1.4001,0.3 0.5,-0.7 -1.5999,-1.6999 -0.5,-4 1.5,-3.1999 1.5,0.5 1.5,0.3999 0.3001,-1.2002 -1.3001,-1.5 -1.3001,-1.8999 -0.1001,-2.5999 0.8,-0.5 1.9,-0.6001 2.5,-0.1999 0.5,0.2998 0.4,-0.2002 -0.3999,-1.2002 -1.3001,-1.5 -1.3001,-1.8999 -0.1001,-2.5999 0.8,-0.5 1.9,-0.6001 2.5,-0.1999 0.5,0.2998 0.4,-0.2002 -0.3999,-1.2002 -1.3001,-1.5 -1.3001,-1.8999 -0.1001,-2.5999 0.8,-0.5 1.9,-0.6001 2.5,-0.3 0.5,0.3 0.5,0 -0.2,-0.7 -1.5999,-1.6999 -0.5,-4 1.5,-3.1999 1.5,0.5 1.5,0.3999 0.3001,-1.2002 -1.3001,-1.5 -1.2001,-1.7998 0.7999,-2.2998 2.5585,-0.6021 10.3794,-32.1683 10.7908,-48.4727 -0.2999,-4.7001 0.6455,-13.2728 0.045,-13.9728 -0.6,-0.8 -0.1363,-8.5547 -0.4363,-15.5547 -0.3,-7.1 -1.0999,-14.7999 -1.8,-17.2999 -0.7,-2.5 -1.6,-8.6001 -1.7999,-13.5 -0.3001,-5 -1.3001,-10.7001 -2.1001,-12.7001 -0.8999,-2.1 -1.6,-5.3999 -1.6,-7.5 0,-2.1 -0.7,-4.6999 -1.5,-5.6999 -0.7999,-1.1 -1.5,-3.8001 -1.5,-6 0,-2.3001 -0.7,-5.4 -1.5,-6.9 -0.7999,-1.6 -1.7,-5.2 -2.1,-8 -0.4,-2.9001 -1.3,-6.4001 -2,-7.9001 -0.8,-1.5 -1.4,-4.3999 -1.4,-6.5 0,-2.0999 -0.6,-4.6999 -1.4,-5.7999 -0.7,-1.1 -1.6,-3.7001 -2,-5.7001 -0.3999,-2 -1.3,-5 -2.1,-6.5 -0.7999,-1.5 -1.5,-3.8999 -1.5,-5.2999 0,-1.4 -0.7,-3.4 -1.5,-4.4 -0.7999,-1.1 -1.5,-3 -1.5,-4.2 0,-1.2 -0.9,-4.1001 -2,-6.5 -1.1,-2.4 -2,-6.2 -2,-8.4 0,-2.2001 -0.7,-4.9 -1.5,-5.9 -0.7999,-1.1 -1.5,-2.9 -1.5,-4 0,-1.2 -1.2,-4.6 -2.6,-7.6 -1.4,-3 -3.6,-8.4 -4.9,-12 -1.2,-3.6 -3.2,-9 -4.5,-12 -1.2,-3 -3.7999,-9.2001 -5.6,-13.7001 -1.9,-4.5 -3.4,-9.0999 -3.4,-10.0999 0,-1.1 -0.6,-2.2 -1.4,-2.5 -0.7,-0.3 -1.6,-1.7 -2,-3.2 -0.3999,-1.4 -3.3999,-8.4 -6.7,-15.5 -3.1999,-7.2001 -6.1999,-14.3 -6.5,-16 -0.4,-1.6 -1.3,-3.5 -2,-4.1 -0.8,-0.6001 -1.4,-1.8 -1.4,-2.6001 0,-0.7999 -0.9,-2.5999 -2,-4 -1.1,-1.3999 -2,-3.3999 -2,-4.2999 0,-1 -0.7,-2.3 -1.5,-3 -0.7999,-0.7001 -1.5,-2.1 -1.5,-3.2001 0,-1.0999 -1.1,-3.2999 -2.2999,-4.7999 -1.3001,-1.5 -4.5,-7 -7.2001,-12.1 -2.6,-5.2 -5.7999,-10.8 -7,-12.4 -1.2,-1.7001 -3.5,-5.4 -5,-8.4 -1.5,-3 -4.2,-7.7 -6.1,-10.4 -1.9,-2.7 -3.4,-5.5 -3.4,-6.3 0,-0.8 -0.4,-1.4 -0.9,-1.4 -0.8,0 -6.3999,-8.2001 -12.6,-18.4 -4.5,-7.4 -10,-15.3001 -13.6,-19.6 -2.1999,-2.6 -3.9,-5 -3.9,-5.5 0,-0.5 -1.7,-2.9 -3.7999,-5.4 -2.1001,-2.5 -4.7001,-6 -5.7001,-7.6 -1.1,-1.7001 -4.1,-5.5 -6.7999,-8.5 -2.7001,-3 -6,-7.1 -7.3001,-9.2001 -1.3,-2.0999 -5.1999,-6.7999 -8.5,-10.5 -3.4,-3.7999 -9.5,-10.8999 -13.5,-15.7999 -9.9,-12.3 -72,-72.9 -80.4,-78.5 -1.9,-1.3 -6.2999,-5 -9.7,-8.2001 -3.4,-3.1999 -6.5999,-5.7999 -7.2,-5.7999 -0.6,0 -3.8,-2.5 -7.2,-5.5 -3.4,-3 -6.6999,-5.5 -7.3,-5.5 -0.7,0 -2.8999,-1.6 -4.8999,-3.5 -2,-1.9 -4.4,-3.5 -5.2001,-3.5 -0.7999,0 -3.1999,-1.6 -5.4,-3.5 -2.1,-1.9 -4.5,-3.5 -5.2999,-3.5 -0.8001,0 -2.9001,-1.6 -4.8001,-3.5 -1.9,-1.9 -4,-3.5 -4.7999,-3.5 -0.8001,0 -3.2001,-1.6 -5.3001,-3.5 -2.1999,-1.9 -4.5,-3.5 -5.3,-3.5 -0.7,0 -3,-1.6 -5,-3.5 -2.1,-1.9 -4.6,-3.5 -5.5,-3.5 -1,0 -2.3999,-0.7001 -3.1,-1.5 -0.7,-0.8 -1.7999,-1.5 -2.5,-1.5 -0.7,0 -2.4,-0.9 -3.7999,-2 -1.4001,-1.1 -3.1001,-2 -3.7001,-2 -0.7,0 -3,-1.6 -5.1,-3.5 -2.1999,-1.9 -4.6999,-3.5 -5.8,-3.5 -1,0 -2.3999,-0.7001 -3.1,-1.5 -0.7,-0.8 -1.7999,-1.5 -2.5,-1.5 -0.7,0 -2.4,-0.9 -3.7999,-2 -1.4001,-1.1 -3.5,-2 -4.6001,-2 -1.2,0 -2.3999,-0.7001 -2.7,-1.5 -0.4,-0.8 -1.5,-1.5 -2.5,-1.5 -1,0 -2.8,-0.9 -3.9,-2 -1.1,-1.1 -2.7999,-2 -3.9,-2 -1,0 -2.3999,-0.6 -3,-1.4 -0.6,-0.8001 -3.1,-1.7 -5.6,-2 -2.4,-0.4 -4.9,-1.4 -5.5,-2.1 -0.7,-0.8 -2,-1.5 -3,-1.5 -1,0 -2.2999,-0.6 -2.9,-1.4 -0.7,-0.8001 -2.6,-1.8001 -4.2,-2.1 -1.6999,-0.4 -3.3,-1.3 -3.6,-2.1 -0.3,-0.8 -1.5,-1.4 -2.8,-1.4 -1.2,0 -2.7999,-0.7001 -3.5,-1.5 -0.7,-0.8 -1.7999,-1.5 -2.5,-1.5 -0.7,0 -2.4,-0.9 -3.7999,-2 -1.4001,-1.1 -3.3001,-2 -4.2001,-2 -0.9,0 -2.7999,-0.9 -4.2,-2 -1.4,-1.1 -3.0999,-2 -3.8,-2 -0.7,0 -1.7999,-0.7001 -2.5,-1.5 -0.7,-0.8 -2.1,-1.5 -3.1,-1.5 -0.9,0 -2.4,-0.7001 -3.1999,-1.5 -0.8001,-0.8 -3.3001,-1.7001 -5.6001,-2.1 -2.2,-0.4 -4.6,-1.3 -5.2,-2 -0.6,-0.8 -2.4,-1.4 -4,-1.4 -1.6,0 -4.6,-0.9 -6.6,-2 -2.1,-1.1 -5,-2 -6.4,-2 -1.5,0 -3.1999,-0.7001 -3.9,-1.5 -0.7,-0.8 -2.7,-1.5 -4.5,-1.5 -1.7999,0 -3.7999,-0.7001 -4.5,-1.5 -0.6,-0.7001 -3.1,-1.7001 -5.5,-2.1 -2.5,-0.3 -5,-1.2 -5.6,-2 -0.6,-0.8 -2.6,-1.4 -4.3,-1.4 -1.7,0 -4.2,-0.7001 -5.3999,-1.600002 -1.2001,-0.8 -4.7001,-1.8 -7.7001,-2.1001 -3,-0.2999 -6,-1.1999 -6.6,-1.8999 -0.6,-0.8 -2.6,-1.4 -4.3,-1.4 -1.7,0 -4.3999,-0.9 -6.1,-2 -1.6,-1.1 -4.4,-2 -6.1,-2 -1.7,0 -3.7,-0.7001 -4.4,-1.5 -0.8,-1 -3.1,-1.5 -6.9,-1.5 -3.1,0 -6.8999,-0.7001 -8.6,-1.6 -1.6,-0.8 -5.9,-1.8 -9.5,-2.1001 -3.6,-0.2999 -7.4,-1.0999 -8.5,-1.7999 -1.1,-0.6 -5.3,-1.4 -9.2,-1.7001 -4,-0.2999 -7.9,-1.0999 -8.7,-1.6999 -0.8,-0.7 -5.6,-1.5 -10.8,-1.7 -5.1,-0.3 -10.9,-1.2 -12.8,-1.9 -1.9,-0.8 -7.9,-1.6 -13.2,-1.8 -5.4,-0.2 -10.4,-0.9001 -11.2,-1.6 -0.7,-0.6 -7.6,-1.6 -15.1999,-2.1 -7.7,-0.5 -16.9999,-1.4 -20.8999,-1.9 -3.8,-0.6 -31.0996,-1 -60.5998,-1 l -53.600302,-0.1 z"
     id="path11" />
  <path
     fill="#008080"
     d="m 1405.5338,466.1341 c 0,0.6999 -1.5,1.1999 -3.6001,1.1999 -1.8999,0 -3.2998,0.4 -3,0.9 0.4001,0.5 -2.7998,0.9 -7.0999,0.9 -4.6001,0.1 -7.9001,0.5 -8.1001,1.1 -0.5,1.5 -5.5,1.4 -7,-0.1 -0.8999,-0.9 -1.1999,-0.9 -1.1999,0 0,0.8001 -1.7,1.2 -4.6001,1.2 -2.7,0 -4.2998,0.4 -3.8999,1 0.8999,1.5 -6.8001,1.2001 -8.3999,-0.2999 -1.1001,-1 -1.3001,-1 -0.7002,0 0.5,1 -0.5,1.2999 -3.7998,1.2999 -2.5,0 -4.6001,0.4 -4.6001,1 0,1.4 -5.3001,1.2001 -6.8999,-0.2999 -1.1001,-1 -1.3001,-1 -0.7002,0 0.5,1 -0.3999,1.2999 -3.3999,1.2999 -2.5,0 -3.8999,0.4 -3.5,1 0.3999,0.6001 -1.8001,1 -6,1 -4.5,0 -6.3999,0.3 -6,1.1001 0.5,0.6999 -0.3001,1 -2.1001,0.7999 -5.2,-0.4 -8.5,0.1 -7.8999,1.1 0.3999,0.6001 -1.2,1 -4,1 -2.8001,0 -4.3999,0.4 -4,1 0.3999,0.6001 -1.2,1 -4,1 -2.8001,0 -4.3999,0.4 -4,1 0.3999,0.6001 -0.8001,1 -3,1 -2.2,0 -3.3999,0.4 -3,1 0.3999,0.6001 -1,1 -3.3999,1 -2.3001,0 -4.1001,0.4 -4.1001,1 0,0.5 -1.3001,1 -3,1 -1.6001,0 -3,0.4 -3,1 0,0.5 -1.3001,1 -3,1 -1.6001,0 -3,0.4 -3,1 0,0.5 -1.3001,1 -3,1 -1.6001,0 -3,0.4 -3,1 0,0.5 -1.3001,1 -3,1 -1.6001,0 -3,0.4 -3,1 0,0.5 -1.3001,1 -3,1 -1.6001,0 -3,0.4 -3,1 0,0.5 -1.3001,1 -3,1 -1.6001,0 -3,0.4 -3,1 0,0.5 -1.2,1 -2.6001,1 -1.3999,0 -2.2998,0.4 -1.8999,1 0.3999,0.6001 -0.8001,1 -3,1 -2.2,0 -3.3999,0.4 -3,1 0.3999,0.6001 -0.8001,1 -3,1 -2.3999,0 -3.3999,0.4 -2.8999,1.1001 0.3999,0.7 0,0.8999 -1.4002,0.5 -1.1999,-0.4 -2.5998,-0.1001 -3.5,0.8999 -0.8999,0.8001 -2.6999,1.5 -4.0998,1.5 -1.4002,0 -2.6001,0.4 -2.6001,1 0,0.5 -1.2,1 -2.6001,1 -1.3999,0 -2.2998,0.4 -1.8999,1 0.3999,0.6001 -0.8001,1 -3,1 -2.2,0 -3.3999,0.4 -3,1 0.3999,0.6001 -0.7,1 -2.3999,1 -1.7002,0 -3.1001,0.4 -3.1001,1 0,0.5 -1.2,1 -2.6001,1 -1.5999,0 -2.2998,0.4 -1.7998,1.1001 0.3999,0.7 0,0.8999 -1.4002,0.5 -1.1999,-0.4 -2.5998,-0.1001 -3.5,0.8999 -0.8999,0.8001 -2.5,1.5 -3.6999,1.5 -1.2,0 -1.8001,0.4 -1.5,1 0.3999,0.6001 -0.7,1 -2.3999,1 -1.7002,0 -3.1001,0.4 -3.1001,1 0,0.5 -1.2,1 -2.6001,1 -1.5999,0 -2.2998,0.4 -1.7998,1.1001 0.3999,0.7 0,0.8999 -1.4002,0.5 -1.1999,-0.4 -2.5998,-0.1001 -3.5,0.8999 -0.8999,0.8001 -2.3,1.5 -3.0998,1.5 -0.9002,0 -1.6001,0.4 -1.6001,1 0,0.5 -0.8999,1 -2,1 -1.1001,0 -2,0.4 -2,1 0,0.5 -1.2,1 -2.6001,1 -1.3999,0 -2.2998,0.4 -1.8999,1 0.3999,0.6001 -0.5,1 -2,1 -1.5,0 -2.3999,0.4 -2,1 0.3,0.5 -0.3001,1 -1.3999,1 -1.2002,0 -2.1001,0.4 -2.1001,1 0,0.5 -0.8999,1 -2,1 -1.1001,0 -2,0.4 -2,1 0,0.5 -0.8999,1 -2,1 -1.1001,0 -2,0.4 -2,1 0,0.5 -0.8999,1 -2,1 -1.1001,0 -2,0.4 -2,1 0,0.5 -0.8999,1 -2,1 -1.1001,0 -2,0.4 -2,0.8001 0,0.4 -1.5,1.1999 -3.2,1.8 -1.8,0.5 -3.1999,1.5 -3,2.2 0.1,0.6999 -0.9001,1.1999 -2.4001,1.1999 -1.3999,0 -2.2998,0.4 -1.8999,1 0.3,0.5 -0.3001,1 -1.3999,1 -1.2002,0 -2.1001,0.4 -2.1001,1 0,0.5 -0.7,1 -1.6001,1 -0.7998,0 -1.2,0.4 -0.8999,1 0.3,0.5 -0.3001,1 -1.3999,1 -1.2002,0 -2.1001,0.4 -2.1001,1 0,0.5 -0.8999,1 -2,1 -1.1001,0 -2,0.4 -2,0.8001 0,0.4 -1.5,1.1999 -3.2,1.8 -1.8,0.5 -3.1999,1.5 -3,2.2 0.1,0.6999 -0.9001,1.1999 -2.4001,1.1999 -1.3999,0 -2.2998,0.4 -1.8999,1 0.3,0.5 -0.2,1 -1.2,1 -1,0 -2.5,0.9 -3.3,2 -0.8001,1.1001 -2.2,2 -3.2,2 -1,0 -1.8,0.4 -1.8,1 0,0.5 -0.8999,1 -2,1 -1.1001,0 -2,0.4 -2,1 0,0.5 -0.7,1 -1.6001,1 -0.8999,0 -2.8999,1.3001 -4.3999,3 -1.5,1.6001 -3.5,3 -4.4,3 -0.9,0 -1.6,0.4 -1.6,1 0,0.5 -0.7,1 -1.6,1 -0.8,0 -1.2001,0.4 -0.9,1 0.3,0.5 -0.1,1 -1,1 -0.9,0 -1.3001,0.4 -1,1 0.3,0.5 -0.3001,1 -1.4,1 -1.2,0 -2.1,0.4 -2.1,1 0,0.5 -0.7,1 -1.6,1 -0.9,0 -2.9,1.3001 -4.4,3 -1.5,1.6001 -3.5,3 -4.4,3 -0.9,0 -1.6,0.4 -1.6,1 0,0.5 -0.7,1 -1.6,1 -0.8,0 -1.2001,0.4 -0.9,1 0.3,0.5 -0.1,1 -1,1 -1,0 -3,1.3001 -4.5,3 -1.5,1.6001 -3.3001,3 -4,3 -0.6,0 -0.8001,0.4 -0.5,1 0.4,0.6001 -0.5,1 -2,1 -1.5,0 -2.4,0.4 -2,1 0.3,0.5 -0.1,1 -1,1 -0.9,0 -1.3001,0.4 -1,1 0.3,0.5 -0.1,1 -1,1 -0.9,0 -1.3001,0.4 -1,1 0.3,0.5 -0.1,1 -1,1 -0.9,0 -1.4,0.4 -1.1,0.9 0.2999,0.5 -0.7001,1.1 -2.4,1.4 -1.6,0.4001 -4.9,2.7 -7.4,5.2 -2.5,2.5 -5,4.5 -5.6,4.5 -0.6,0 -0.8001,0.4 -0.5,1 0.3,0.5 -0.3001,1 -1.4,1 -1.2,0 -2.1,0.4 -2.1,1 0,0.5 -0.7,1 -1.6,1 -0.8,0 -1.2001,0.4 -0.9,1 0.3,0.5 -0.1,1 -1,1 -0.9,0 -1.3001,0.4 -1,1 0.3,0.5 -0.1,1 -1,1 -0.9,0 -1.3001,0.4 -1,1 0.3,0.5 -0.1,1 -1,1 -0.9,0 -1.3001,0.4 -1,1 0.3,0.5 -0.1,1 -1,1 -0.9,0 -1.3001,0.4 -1,1 0.3,0.5 -0.1,1 -1,1 -0.9,0 -1.3001,0.4 -1,1 0.3,0.5 -0.1,1 -1,1 -0.9,0 -3.39996,1.8 -5.49996,4 -2.1,2.2001 -4.4,4 -5,4 -0.6,0 -0.8001,0.4 -0.5,1 0.3,0.5 -0.1,1 -1,1 -0.9,0 -1.3001,0.4 -1,1 0.3,0.5 -0.1,1 -1,1 -0.9,0 -1.3001,0.4 -1,1 0.3,0.5 -0.1,1 -1,1 -0.9,0 -1.3001,0.4 -1,1 0.3,0.5 -0.1,1 -1,1 -2,0 -63.8001,61.8 -63,63 0.4,0.6001 -0.1,1 -1,1 -0.9,0 -1.3001,0.4 -1,1 0.3,0.5 -0.1,1 -1,1 -0.9,0 -1.3001,0.4 -1,1 0.3,0.5 -0.1,1 -1,1 -0.9,0 -1.3001,0.4 -1,1 0.3,0.5 -0.1,1 -1,1 -0.9,0 -1.3001,0.4 -1,1 0.3,0.5 -0.2,1 -1.1,1 -1,0 -1.5,0.3 -1.1,0.6001 0.3,0.3999 -0.1001,1.2999 -0.9,2.1 -0.8,0.7999 -1.2001,1.9 -0.9,2.4 0.4,0.5 -0.1,0.8999 -1,0.8999 -0.9,0 -1.3001,0.4 -1,1 0.3,0.5 -0.2,1 -1.1,1 -1,0 -1.5,0.3 -1.1,0.6001 0.3,0.2999 -1,2.1999 -2.9,4.1 -1.9,1.9 -3.2001,3.7999 -2.9,4.4 0.4,0.5 -0.1,0.8999 -1,0.8999 -0.9,0 -1.4,0.4 -1.1,0.9 0.2999,0.5 -0.1,1.1 -0.9,1.5 -0.8001,0.3001 -1.5,1.2001 -1.5,2.1 0,0.8 -0.5,1.5 -1.2,1.5 -0.6001,0 -0.9,0.3 -0.5,0.6001 0.3,0.2999 -0.5,1.6999 -1.9,3.1 -1.3,1.2999 -2.2,2.9 -1.9,3.4 0.4,0.5 -0.1,0.8999 -1,0.8999 -0.9,0 -1.3,0.4 -1,1 0.3001,0.5 -0.1,1 -1,1 -0.9,0 -1.3,0.4 -1,1 0.3001,0.5 -0.1999,1 -1.1,1 -1,0 -1.5,0.3 -1.1,0.6001 0.3,0.3999 -0.1001,1.2999 -0.9,2.1 -0.8,0.7999 -1.2,1.9 -0.9,2.4 0.4,0.5 -0.1,0.8999 -1,0.8999 -0.9,0 -1.3,0.4 -1,1 0.3001,0.5 0,1 -0.9,1 -0.7999,0 -1.2999,0.8 -1.2,1.7001 0.2,1 0,1.9998 -0.5,2.2999 -0.4,0.3 -0.9,1.1999 -1.0999,2 -0.2001,0.8 -0.9001,2.1001 -1.6001,2.8 -0.7,0.8001 -1,1.7 -0.7,2.2 0.3001,0.5 0.1,1 -0.4,1.1999 -0.5,0.1001 -1.1,1 -1.2999,1.8001 -0.2001,0.8 -0.9001,2.1001 -1.6001,2.8 -0.7,0.8001 -1,1.8001 -0.7,2.3001 0.4,0.5 0.1,0.8999 -0.4,0.8999 -0.6,0 -1,0.3 -1,0.6999 0.3,2.1001 -0.2999,3.3001 -1.7,3.3001 -0.8,0 -1.3,0.4001 -1,0.9001 0.4001,0.5 0.2,1.0999 -0.3,1.2998 -0.5,0.1001 -1.1,1 -1.2999,1.8001 -0.2001,0.8 -0.9001,2.1001 -1.6001,2.8 -0.7,0.8001 -1,1.7 -0.7,2.2 0.3001,0.5 0.1,1 -0.4,1.1999 -0.5,0.1001 -1.1,1 -1.2999,1.8001 -0.2001,0.8 -0.9001,2.1001 -1.6001,2.8 -0.7,0.8001 -1,1.8001 -0.7,2.3001 0.4,0.5 -0.1,0.8999 -1,0.8999 -0.9,0 -1.4,0.4001 -1.1,0.9001 0.4,0.5 0.2,1.0999 -0.3,1.2998 -0.5,0.1001 -1.1,1 -1.3,1.8001 -0.2,0.8 -0.6001,1.6999 -1,2 -0.3,0.3 -0.8,1.1999 -1,2 -0.2,0.8 -0.9,2.1001 -1.6001,2.8 -0.6999,0.8001 -1,1.7 -0.6999,2.2 0.3,0.5 0.1,1 -0.4,1.1999 -0.5,0.1001 -1.1,1 -1.3,1.8001 -0.2,0.8 -0.9,2.1001 -1.6001,2.8 -0.6999,0.8001 -1,1.7 -0.6999,2.2 0.3,0.5 0.1,1 -0.4,1.1999 -0.5,0.1001 -1.1,1 -1.3,1.8001 -0.2,0.8 -0.9,2.1001 -1.6001,2.8 -0.6999,0.8001 -1,1.7 -0.6999,2.2 0.3,0.5 0.1,1 -0.4,1.1999 -0.5,0.1001 -1.1,1 -1.3,1.8001 -0.2,0.8 -0.8,2 -1.5,2.8 -0.7,0.7 -1,1.8999 -0.7,2.7 0.3,0.8 -0.1,2.1001 -1,3 -0.8,0.9001 -1.3,2.1999 -1,3 0.3,0.8 -0.1,2.1999 -1,3.1001 -0.9,0.8 -1.4,1.8999 -1.1,2.3999 0.3,0.5 0.1,1 -0.4,1.1999 -0.5,0.1001 -1.1,1.4002 -1.3,2.8001 -0.1001,1.4001 -0.6001,2.6999 -1,3 -0.3,0.3 -0.8,1.1999 -1,2 -0.2,0.8 -0.9,2.1001 -1.6001,2.8 -0.6999,0.8001 -1,1.7 -0.6999,2.2 0.3,0.5 0,1 -0.6,1.1999 -0.5,0.2002 -1.1,1.9002 -1.1,3.8001 -0.1001,1.9001 -0.4,3.6999 -0.8,4 -0.5,0.3 -1,1.6001 -1.1,3 -0.2001,1.4001 -0.8,2.8 -1.2001,3.1001 -0.5,0.3 -0.8999,2.0998 -0.8999,4 -0.1001,1.8999 -0.4,3.5998 -0.8,3.8999 -0.5,0.3 -1,1.6001 -1.1,3 -0.2001,1.4001 -0.7001,2.6999 -1,3 -0.4,0.3 -0.9,1.6001 -1,3 -0.2001,1.4001 -1,3.1001 -1.7001,3.9001 -1,1 -3.3994,0.7002 -2.6994,1.2002 0.8,0.3999 2.8995,2.2998 1.5995,3.7998 -1.1,1.2 -3.1997,0.8003 -2.8997,1.7002 0.2999,0.8001 1.5997,3.8997 0.9996,4.2998 -0.5999,0.2998 -2.9996,0.1001 -3.1997,0.9002 -0.1999,0.8 0.8998,3.2998 0.1997,3.9997 -0.6999,0.8001 -1,1.7 -0.6999,2.2 0.3,0.5 0.1,1 -0.4,1.1999 -0.5,0.1001 -1.1,1.4002 -1.3,2.8001 -0.1001,1.4001 -0.9,3.1001 -1.6001,3.8 -0.6999,0.8001 -1,1.7 -0.6999,2.2 0.3,0.5 0.1,1 -0.4,1.1999 -0.5,0.1001 -1.1,1.4002 -1.3,2.8001 -0.1001,1.4001 -0.9,3.1001 -1.6001,3.8 -0.6999,0.8001 -1,1.7 -0.6999,2.2 0.3,0.5 0.1,1 -0.4,1.1999 -0.5,0.1001 -1.1,1 -1.3,1.8001 -0.2,0.8 -0.9,2.1001 -1.6001,2.8 -0.6999,0.8001 -1,1.8001 -0.6999,2.3001 0.4,0.5 0.1,0.8999 -0.6,0.8999 -0.6,0 -0.9,0.8 -0.6,2 0.3,1.1001 -0.3,2.9001 -1.4,4.1001 -1,1.1999 -1.6,2.5 -1.4,2.8999 0.3,0.5 0.1,1 -0.4,1.1999 -0.5,0.1001 0.9996,1.3001 0.7996,2.1001 -0.2,0.7998 -1.0999,1.7 -3.5996,2.5 -0.7,0.7 1.4995,2.2998 1.7995,3.0999 -0.9033,2.1758 -3.216,2.5107 -3.2471,2.2607 -0.6,0.3001 1.5471,0.7395 1.3471,1.5396 -0.2,0.8 -3.2995,2.3999 -3.9996,3.1999 -1,1 5.1586,0.054 3.8604,2.7701 -0.4165,2.3984 -0.6606,0.7299 -2.0606,2.3298 -1.4,1.6001 -4.6994,2.6001 -3.8994,3 0.7,0.5 2.8994,2.0998 1.7995,3.2998 -0.9,0.9001 -2.8997,3.6999 -2.8997,5.3999 -0.1,1.8 -0.8,3.3 -2.2998,2.4004 -0.5,0.3999 -0.9,2.5998 -0.9,5 0.1,2.3999 -0.4,4.5998 -0.9,5 -0.5,0.3 -1,2.6999 -1.1,5.1999 0,2.6001 -0.4,4.7 -0.8001,4.7 -1.1999,0 -1.7999,4.9001 -0.6999,5.3 0.5,0.1001 0.1999,1 -0.7,1.8999 -0.9,1 -1.7,3.5 -1.8,6 0,2.4002 -0.4,4.5 -0.9,4.8001 -0.4,0.3 -0.9,1.6001 -1,3 -0.2,1.4001 -0.8,2.8 -1.3,3.1001 -0.4,0.3999 -0.8,2.5998 -0.8,5 0.1,2.3999 -0.3001,4.5998 -0.8001,4.8999 -0.3999,0.3 -0.8999,2.1001 -1.0999,4 -0.2,1.9001 -0.7,3.6999 -1,4 -0.4001,0.3 -0.9001,1.6001 -1,3 -0.2,1.4001 -0.9001,3.1001 -1.6,3.8 -0.7,0.7 -0.9,2 -0.6,2.8001 0.2999,0.8999 0,1.8999 -0.6,2.3 -0.7,0.5 -1.3,2.2998 -1.3,4.2 -0.1,1.8999 -0.5,3.6999 -1.1,4 -0.5,0.3999 -0.9,2.5998 -1,5 0,2.3999 -0.4,4.6999 -0.9,5 -0.4,0.3 -0.9,2.5 -1,5 0,2.3999 -0.5,4.6999 -1,5 -0.4,0.3 -0.9,2.5 -1,5 0,2.3999 -0.5,4.6999 -1,5 -0.5,0.3 -0.9,2.6999 -1,5.1999 0,2.6001 -0.4,4.7 -0.8001,4.7 -0.3999,0 -1,1.1001 -1.1999,2.5 -0.3001,1.4001 -0.2,2.5 0.1999,2.5 0.9,0 -0.1,6.4001 -1.1999,7.1001 -0.5,0.3 -0.9,3 -1,6 0,3 -0.4,5.6999 -0.9,6 -0.5,0.3 -1,2.5 -1.1,5 0,2.3999 -0.6,4.6999 -1.1,5.0998 -0.6,0.4002 -1.1,4.7002 -1.1,10 0,5.1001 -0.4,9.6001 -0.9,9.9002 -0.4,0.3 -0.8001,3 -0.9,6 0,3 -0.4,5.6999 -0.9,6 -0.5,0.3 -1,2.5 -1.1,5 0,2.3999 -0.6,4.6999 -1.1,5 -0.5,0.3999 -1,3.0998 -1,6 -0.1,3 -0.5,5.6999 -1,6 -0.5,0.3 -0.8001,3.5 -0.8001,7 0,3.5 -0.5,6.5998 -1,7 -0.5999,0.3 -1,3 -1.0999,6 0,3 -0.4001,5.6999 -0.9001,6 -0.5,0.3 -1,2.5 -1.0999,5 0,2.3999 -0.5,4.5998 -0.9001,4.8999 -0.4,0.3 -0.4668,1.2395 -0.8636,2.1181 -0.3395,0.7515 -0.4006,1.4881 -0.9825,2.7608 -0.2358,1.3188 -0.5553,2.2051 -0.7969,3.1985 -0.2029,1.2094 -0.098,0.886 -0.3087,2.3344 -0.049,1.854 -1.9483,21.2881 -1.9483,78.7881 0,47.3001 -0.3999,78.8001 -1,79 -0.5,0.2002 -1,7.7002 -1.1,16.8001 -0.1,9.1001 -0.5,16.6999 -0.9,17 -1.1999,0.8 -1.6,98.1999 -0.5,100 1.3001,2 1.3001,26 0,26 -0.5,0 -0.2999,0.5 0.5,1 0.8001,0.5 1.1001,1 0.6001,1 -0.5,0 -0.2001,0.6999 0.5,1.6001 1.5,1.8999 2.1,20.3999 0.6,20.3999 -1.1,0 -0.7001,14.1999 0.5,15.6001 0.5,0.6999 0.6999,24.5 0.6,55.3 -0.2,29.7998 0.1,54.2 0.5,54.3999 0.5,0.1001 0.5132,2.3001 0.7132,4.7 0.2,2.5 0.2237,4.3906 0.286,6.268 -0.045,1.1832 -0.2751,6.1568 -0.2751,12.7569 0.1999,10.3 0.3514,10.2995 0.4904,13.8848 -0.089,2.812 -0.1413,1.2602 -0.053,2.8234 0.1327,2.3533 0.4387,22.2669 -0.8613,22.2669 -1.4001,0 -1.6,462.1001 -0.2,463.1999 1.4,0.9002 1.4,10.1001 0.2,11 -0.7,0.5 -0.6,0.8001 0.2,0.8001 0.7,0 1,0.4001 0.7,1 -0.4,0.6001 0.4,0.9001 1.6999,0.6999 1.3001,-0.1 2.2001,0.2002 2.1001,0.8001 -0.1001,0.6001 2.2,0.9001 5.8,0.6999 3.3,-0.1999 6.7,-0.1 7.7,0.3001 2.2,0.8 110.2,1.1999 110.2,0.3 0,-0.3999 2.1,-0.8 4.8,-1 4.3,-0.3 4.7,-0.5 5,-3.1001 0.2,-1.5 0.6,-2.6999 1,-2.6999 0.8999,0 0.8999,2.8 1,-210.3001 0,-105.6999 0.5,-179.6999 1,-179.6999 0.5,0 0.8,-8.2 0.8,-18.5 -0.1,-11.3999 0.3,-18.8001 0.9,-19.3001 0.6,-0.3999 1,-14.2998 1.1,-37.6999 0.1,-57.7 0.5,-78.5 1.5999,-78.5 0.6001,0 0.8001,-0.7 0.4001,-1.5 -0.3,-0.8001 -0.2,-1.5 0.2,-1.5 0.3999,0 0.5,-2.3001 0.3999,-5 -0.1999,-2.8999 0.1001,-5.7 0.8001,-6.5 0.8,-1 1,-5.3999 0.4,-16.3001 -0.5,-11 -0.4,-15.0998 0.5,-15.5998 0.6999,-0.4002 0.9,-1.6001 0.6,-2.7 -0.4,-1 -0.3001,-1.9001 0.1999,-1.9001 1.1001,0 1.1001,-1.8999 1.2001,-32.8001 0.1,-16.2998 0.5,-26.1999 1.1,-26.1999 0.6,0 0.6999,-1.8001 0.3,-4.5999 -0.4,-3 -0.2,-4.8 0.5,-5.3 1.6,-0.9002 2.7,-12.2 2.3999,-24.4002 -0.1,-6.3999 0.2001,-9.6999 0.9,-9.6999 0.6,0 0.9001,-0.7 0.5,-1.5 -0.2999,-0.8001 -0.1,-1.5 0.5,-1.5 0.6,0 0.7001,-0.5 0.4001,-1 -0.3001,-0.5999 -0.3001,-1.5 0.1,-2.0999 0.4001,-0.7002 0.8001,-5 0.9001,-9.8 0.1999,-10.5 0.8,-15.4002 2.0999,-15.8001 0.5,-0.1999 0.8001,-3.3999 0.6,-7.3 -0.2999,-4.8001 0,-7 0.8001,-7 0.8,0 0.9,-1 0.5,-3.0999 -0.4,-1.7002 -0.2,-4.2002 0.3,-5.7002 0.6,-1.5 1.3999,-3.5998 1.8,-4.6999 0.4,-1.0999 0.5999,-6.2 0.5,-11.3001 -0.2,-6 0.1,-9.1999 0.8,-9.1999 0.6,0 0.7999,-0.7 0.5,-1.5 -0.4,-0.8001 -0.1,-1.5 0.5,-1.5 0.6,0 0.7999,-0.7 0.5,-1.5 -0.4,-0.8001 -0.2001,-1.5 0.2,-1.5 0.5,0 1,-3.5 1.0999,-7.8001 0.2001,-12.7998 0.7001,-17.5 1.9001,-17.8999 0.5999,-0.1999 0.9,-1.5 0.5999,-2.8 -0.1999,-1.3999 0.1001,-3.0999 0.7001,-3.8999 0.7999,-0.9002 1,-3.9002 0.5,-9.4002 -0.5,-5.5 -0.3,-8.0998 0.5,-8.5998 0.6,-0.4002 0.9,-1.2 0.5,-1.7 -0.3,-0.5 0,-1.7002 0.7,-2.5 0.7,-0.9001 1.2,-3.6001 1,-6.4001 -0.1,-2.5999 0.2,-5.0999 0.8,-5.3999 0.6,-0.4002 0.7,-1.4002 0.4,-2.3001 -0.3,-0.8999 0,-2.1001 0.8,-2.6999 1.5,-1.2 1.9,-3.7 2.2,-13.4002 0.1,-4 0.7,-6.5998 1.5,-7.0998 0.8,-0.5 1.3,-1.1001 1.3,-1.5 -0.1,-0.3001 -0.1,-0.9002 0,-1.4002 0,-0.3999 0,-2.7998 -0.1,-5.2998 -0.1,-2.6001 0.3,-5 0.8,-5.3 0.6,-0.3001 0.8,-1.5 0.5,-2.6001 -0.3,-1.2 0,-2 0.6,-2 0.7,0 1,-0.3999 0.6,-0.8999 -0.3001,-0.5 -0.1,-1.2 0.4,-1.6001 0.6,-0.3001 0.7999,-1.2 0.5,-1.8999 -0.3,-0.8001 -0.1,-1.7 0.5,-2 0.6,-0.4002 0.7999,-1.3001 0.5,-2 -0.3,-0.8001 -0.1,-1.7 0.4,-2 0.5,-0.3001 0.7,-1.7 0.3999,-3.1001 -0.1999,-1.3999 0,-2.5 0.7001,-2.5 0.5,0 0.7999,-0.7 0.5,-1.5 -0.3001,-0.8001 -0.2001,-2 0.1999,-2.7 0.5,-0.6999 0.7001,-2.3 0.5,-3.6001 -0.1,-1.1999 0.2001,-2.1999 0.7001,-2.1999 0.6,0 0.7999,-0.8001 0.5,-1.8999 -0.3,-1 0,-2.2 0.6,-2.5 0.5,-0.4002 0.7999,-1.3001 0.4,-2.1001 -0.3,-0.8001 -0.2001,-2.3001 0.2,-3.3001 0.5,-0.8999 0.6999,-2.6999 0.5999,-4 -0.1,-1.1999 0.3001,-2.1999 0.9001,-2.1999 0.5999,0 0.9,-0.3999 0.5,-0.8999 -0.3001,-0.5 0.1999,-1.7 1.0999,-2.5 0.8001,-0.9002 1.2001,-1.6001 0.8001,-1.6001 -0.3001,0 -0.1,-0.5999 0.5,-1.3999 0.6,-0.7 0.7999,-2.6001 0.5,-4.3001 -0.3001,-1.6999 0.1,-4.5 1,-6.6999 0.9,-2.1001 1.6,-4.9002 1.6,-6.2 0,-1.3 0.4,-2.4001 0.9,-2.4001 0.4,0 0.6,-1.0999 0.2999,-2.5 -0.1999,-1.3999 0,-3.0999 0.6001,-3.8001 0.6,-0.6999 0.8999,-2.1999 0.6,-3.3999 -0.3,-1.1001 -0.1,-2.3999 0.4,-2.6999 0.6,-0.3001 0.8,-1.5 0.5,-2.6001 -0.3,-1.2 0,-2 0.6,-2 0.7,0 1,-0.3999 0.7,-0.8001 -0.5,-0.8999 3.4,-14.1999 4.4,-15.1999 0.3,-0.3001 0.6,-1.8999 0.8,-3.5 0.2,-1.7 0.7,-3.0999 1.2,-3.3001 0.5,-0.1999 0.6999,-0.8999 0.4,-1.6999 -0.3001,-0.7 -0.1,-1.5999 0.4,-1.8999 0.6,-0.3001 0.7999,-1.5 0.5,-2.6001 -0.3,-1.0999 0,-2 0.6,-2 0.5,0 0.7999,-0.7 0.5,-1.5 -0.3001,-0.8001 -0.2001,-2 0.1999,-2.7 0.4001,-0.6999 0.9001,-2.1001 0.9001,-3.1001 0.1,-1 0.5999,-2.1999 1.0999,-2.5 0.5,-0.3999 1.1,-2.5 1.3001,-4.6999 0.1999,-2.2 0.6,-4.5 0.9,-5 0.3999,-0.5999 0.5,-1.7 0.3999,-2.5 -0.1,-0.8999 0.7001,-2.5999 1.8001,-3.8001 1.4,-1.5 1.9,-2.8999 1.4,-4.5998 -0.3001,-1.3001 -0.1,-2.7 0.4,-3 0.6,-0.3001 0.7999,-1.5 0.5,-2.6001 -0.3,-1.2 0,-2 0.6,-2 0.6999,0 1,-0.3999 0.6999,-0.8999 -0.4,-0.5 -0.1,-2.2 0.6,-3.8001 0.6001,-1.5 1,-3.3999 0.9,-4.1001 -0.1,-0.5998 0.3001,-1.1999 0.9001,-1.1999 0.5999,0 0.8,-0.3999 0.5,-1 -0.6,-1 4.0999,-15.8999 5.5,-17.3999 0.5,-0.5 0.5999,-1.5 0.3,-2.2 -0.3,-0.8 0,-1.4001 0.6,-1.4001 0.6,0 0.7999,-0.7 0.5,-1.5 -0.4,-0.8001 -0.2001,-1.5 0.1999,-1.5 0.5,0 1,-1.3999 1.1,-3.2 0.1001,-1.6999 0.6001,-3.3999 1,-3.6999 0.5,-0.3001 0.9,-1.9002 1,-3.5 0.1001,-1.6001 0.7001,-3.2 1.3001,-3.6001 0.5999,-0.3999 0.8,-1.5 0.4,-2.3999 -0.4,-1 -0.2001,-2.1001 0.5,-2.5 0.6,-0.4002 1.4,-1.8001 1.6,-3.2 0.3,-1.3 0.8,-3.9001 1.0999,-5.7002 0.3001,-1.6999 1,-3.1999 1.5,-3.1999 0.5,0 0.9001,-0.8999 0.9001,-2 0,-1.0999 0.5,-2 1.0999,-2 0.7001,0 0.9001,-1 0.5,-2.7 -0.7999,-2.8 4,-18.3 5.6,-18.3 0.5,0 0.6001,-0.5 0.3001,-1 -0.3001,-0.5999 -0.2,-1 0.3,-1 0.6,0 0.8999,-0.5999 0.8999,-1.3001 -0.1,-2 2.4,-7.6999 3.5,-7.6999 0.5,0 0.6001,-0.5 0.3001,-1 -0.3001,-0.5999 -0.1,-1 0.4,-1 0.6,0 1,-0.3001 0.9,-0.8001 -0.4,-1.5 2.3999,-8.1999 3.3999,-8.1999 0.6001,0 0.9,-0.3001 0.6001,-0.5999 -0.5,-0.4001 0.2999,-3.3 3.7999,-13.4001 0.3001,-0.8001 0.6,-1.7 0.7001,-2 0,-0.3001 0.7999,-1.3001 1.7,-2.2 0.9,-1 2.4,-4.3999 3.4,-7.5 2.49996,-7.8999 5.69986,-15.3 6.59996,-15.3 0.5,0 1.0999,-1.8001 1.5,-4 0.4,-2.2 1.4,-4.8001 2.3,-5.7 1,-0.8999 1.6,-1.8999 1.5,-2.1999 -0.5,-1.3001 1,-5.1001 1.8999,-5.1001 0.5,0 0.6001,-0.5 0.3001,-1 -0.3001,-0.5999 -0.2,-1 0.3,-1 0.6,0 0.8999,-0.5999 0.8999,-1.3001 -0.1,-2 2.4,-7.6999 3.5,-7.6999 0.5,0 0.6001,-0.5 0.3001,-1 -0.3001,-0.5999 -0.1,-1 0.4,-1 0.6,0 1,-0.3001 0.9,-0.8001 -0.5,-1.2998 3.2999,-10.1999 4.2999,-10.1999 0.6,0 0.7001,-0.5 0.4001,-1 -0.3001,-0.5999 -0.2,-1 0.3,-1 0.5,0 0.8999,-0.5999 0.8999,-1.3001 0,-2.0998 4.6001,-11.6999 5.5,-11.6999 0.5,0 0.6001,-0.5 0.3001,-1 -0.3001,-0.5999 -0.1,-1 0.5,-1 0.5999,0 0.8,-0.5 0.5,-1 -0.3001,-0.5999 -0.1,-1 0.5,-1 0.5999,0 0.8,-0.5 0.5,-1 -0.3001,-0.5999 -0.1,-1 0.5999,-1 0.7001,0 1,-0.3001 0.6,-0.5999 -0.6999,-0.7002 5,-12.6001 6.5,-13.5 0.5,-0.3 0.9,-0.9001 0.9,-1.3 -0.2999,-2 0.1,-2.6001 1.6,-2.6001 0.9,0 1.3001,-0.3001 1,-0.5999 -0.6999,-0.8 4.9,-11.5 6.7001,-12.6001 0.6,-0.3999 0.6999,-0.8 0.2999,-0.8 -0.5,0 0.7001,-2.2 2.7001,-4.8999 2,-2.7 3.6,-5.3001 3.6,-5.9002 0,-0.5998 1,-1.7998 2.1999,-2.5998 1.2001,-0.9002 1.9,-1.6001 1.5,-1.6001 -1,0 3.9,-8.8001 6.3001,-11.5 1,-1.0999 3.4,-5.2 5.4,-9.2 1.9,-3.8999 4,-7.3999 4.6,-7.8 0.5,-0.3001 1.9,-2.5999 3,-5 1.0999,-2.3999 3.1001,-5.2 4.5,-6.3001 1.3,-1.0998 2.1001,-2.1999 1.8,-2.5998 -0.3,-0.3001 -0.1001,-0.6001 0.5,-0.6001 0.7,0 1.0999,-0.3001 1,-0.8001 -0.5,-1.8999 1.5,-5.2998 2.8001,-4.7998 0.7998,0.2998 1.2998,0.2 0.8999,-0.3 -0.3001,-0.5 0.1001,-1.6001 0.8999,-2.4002 0.8,-0.7998 1.2002,-1.6999 0.9001,-2.0998 -0.4001,-0.3001 -0.1001,-0.6001 0.5999,-0.6001 0.7002,0 1,-0.3999 0.7002,-0.8999 -0.3001,-0.4002 0.8999,-2.6001 2.6999,-4.7 1.8001,-2.1001 4.5,-5.9001 5.8999,-8.4001 1.5,-2.5 4.6001,-6.5999 7.1001,-9.3001 2.3999,-2.5998 4.3001,-4.6999 4,-4.6999 -0.9001,0 1.5,-3.2 7.7,-10.0999 3.6001,-4 8.1001,-9.3 10,-11.8 8.1999,-10.9002 49.1999,-52.2 59,-59.5 3.6001,-2.7 7.6001,-6.2 8.8,-7.7 1.3001,-1.6001 3.5999,-3.6001 5,-4.3 1.5,-0.8001 6.5,-5.1001 11.2,-9.5 4.6001,-4.5 9,-7.9 9.6001,-7.7001 0.6999,0.3001 1.3999,-0.4 1.6999,-1.5 0.3001,-1 1.5999,-2.2999 2.8999,-2.7999 1.2,-0.5 3.6001,-2.3001 5.2,-4 1.7002,-1.7001 3.5,-3.1001 4,-3.1001 0.6001,0 3.1001,-1.8999 5.6001,-4.1 2.5,-2.2999 6.3999,-5 8.6999,-6.1 2.4002,-1.0999 4.3001,-2.4 4.3001,-2.9 0,-0.5 0.8999,-0.9 1.8999,-0.9 1.1001,0 3.7002,-1.6 5.7002,-3.6 2.5998,-2.4 4.5,-3.4 6,-3.1 1.3999,0.2 2.0998,-0.1 2,-1.0999 -0.1001,-0.8001 1.5998,-2 3.8999,-2.8001 2.1001,-0.7999 4.1999,-1.9 4.6001,-2.6 0.3999,-0.6 1.7998,-0.9 3.1999,-0.6 1.5,0.3 2.5,0.1 2.3999,-0.5 -0.3,-1.3 9.8001,-7.3 15.9002,-9.5 2.6999,-0.9 4.8999,-2.0999 4.8999,-2.7 0,-0.5 1.6001,-1.2 3.5,-1.6 1.8999,-0.4 3.6001,-1.2 3.8,-1.7999 0.3999,-1.2001 6.3999,-0.3001 7.3001,1.1999 0.6999,1 -19.4002,21.7001 -21.1001,21.7001 -0.6001,0 -0.8001,0.3999 -0.5,1 0.3,0.5 -0.1001,1 -1,1 -0.8999,0 -1.3001,0.3999 -1,1 0.3,0.5 -0.1001,1 -1,1 -0.8999,0 -1.3001,0.3999 -1,1 0.3,0.5 -0.2,1 -1.2,1 -1,0 -2.5,0.8999 -3.3,2 -0.8001,1.1 -2.1001,2 -2.8999,2 -0.8001,0 -1.2002,0.2999 -0.8001,0.6 0.3001,0.4 -0.1001,1.2999 -0.9001,2.0999 -0.7998,0.8001 -1.2,1.9001 -0.8999,2.4001 0.3999,0.5 -0.1001,0.9 -1,0.9 -0.8999,0 -1.3001,0.3999 -1,1 0.3,0.5 -0.1001,1 -1,1 -0.8999,0 -1.3001,0.3999 -1,1 0.3,0.5 -0.1001,1 -1,1 -0.8999,0 -1.3001,0.3999 -1,1 0.3,0.5 -0.1001,1 -1,1 -0.8999,0 -1.3001,0.3999 -1,1 0.3,0.5 -0.1001,1 -1,1 -0.8999,0 -1.3001,0.3999 -1,1 0.3,0.5 -0.2,1 -1.1001,1 -1,0 -1.5,0.2999 -1.0999,0.6 0.3001,0.4 -0.1001,1.2999 -0.9001,2.0999 -0.7998,0.8001 -1.2,1.9001 -0.8999,2.4001 0.3999,0.5 -0.1001,0.9 -1,0.9 -0.8999,0 -1.3001,0.3999 -1,1 0.3,0.5 -0.1001,1 -1,1 -0.8999,0 -1.3001,0.3999 -1,1 0.3,0.5 -0.1001,1 -1,1 -0.8999,0 -1.3001,0.3999 -1,1 0.3,0.5 -0.2,1 -1.1001,1 -1,0 -1.5,0.2999 -1.0999,0.6 0.8999,0.9 -1.9001,3.4 -3.6999,3.4 -0.9002,0 -1.6001,0.7999 -1.6001,2 0,1.1 -0.7,2 -1.6001,2 -0.7998,0 -1.2,0.3999 -0.8999,1 0.3,0.5 -0.1001,1 -1,1 -0.8999,0 -1.3001,0.3999 -1,0.9999 0.3,0.5 -0.1001,1 -1,1 -0.8999,0 -1.3001,0.4001 -1,1 0.3,0.5 -0.1001,1 -1,1 -0.8999,0 -1.3001,0.4001 -1,1 0.3,0.5 -0.1001,1 -1,1 -0.8999,0 -1.3001,0.4001 -1,1 0.3,0.5 -0.1001,1 -1,1 -0.8999,0 -1.3001,0.4001 -1,1 0.3,0.5 -0.1001,1 -1,1 -1.8999,0 -4.5,2.3 -4.5,4 0,0.6001 -1.6001,2.6999 -3.5,4.6001 -2,1.8999 -3.3001,3.8999 -3,4.5 0.3999,0.5 0,0.8999 -0.8999,0.8999 -0.8001,0 -1.3001,0.8 -1.2002,1.6999 0.2002,0.9002 -2.0999,4.1001 -5.0999,7 -2.9001,3 -5.1001,5.8001 -4.8,6.3001 0.3999,0.6001 -0.3001,1 -1.5,1 -1.8001,0 -1.8999,0.3 -1,2 0.8999,1.6001 0.8,2 -0.6001,2 -1,0 -1.5,0.3 -1.0999,0.6001 0.3001,0.3 -1.4001,2.5998 -3.9001,5 -2.3999,2.5 -4.2,4.8999 -3.8999,5.5 0.3999,0.5 -0.1001,0.8999 -0.8999,0.8999 -0.9002,0 -1.3001,0.6999 -1.1001,2 0.3,1.3 -0.2,2 -1.2,2 -0.9001,0 -1.3,0.3 -1,0.6001 0.3001,0.3999 -0.6999,1.8999 -2.3,3.3999 -1.6001,1.5 -3,3.3 -3.2,4.1001 -0.1999,0.6999 -0.9001,2 -1.6001,2.6999 -0.6999,0.8001 -1,1.8001 -0.6999,2.3001 0.3999,0.5 -0.1001,0.8999 -1,0.8999 -0.8999,0 -1.3001,0.4001 -1,1 0.3,0.5 -0.1001,1 -1,1 -0.8999,0 -1.3001,0.4001 -1,1 0.3,0.5 -0.1001,1 -1,1 -0.8999,0 -1.3001,0.4001 -1,1 0.3,0.5 -0.2,1 -1.1001,1 -1,0 -1.3999,0.3 -1.0999,0.6001 0.3999,0.3999 -0.1999,1.3999 -1.3,2.3999 -1,0.9001 -2,2.3 -2.2,3 -0.1999,0.8 -0.9001,2.1001 -1.6001,2.8 -0.6999,0.8001 -1,1.8001 -0.6999,2.3001 0.3999,0.5 -0.1001,0.8999 -1,0.8999 -0.8999,0 -1.3001,0.4001 -1,1 0.3,0.5 -0.2,1 -1.1001,1 -1,0 -1.3999,0.3 -1.0999,0.6001 0.3999,0.3999 -0.1999,1.3999 -1.3,2.3999 -1,0.9001 -2,2.3 -2.2,3 -0.1999,0.8 -0.9001,2.1001 -1.6001,2.8 -0.6999,0.8001 -1,1.8001 -0.6999,2.3001 0.3999,0.5 -0.1001,0.8999 -1,0.8999 -0.8999,0 -1.3001,0.4001 -1,1 0.3,0.5 -0.1001,1 -1,1 -0.8999,0 -1.3001,0.4001 -1,1 0.3,0.5 0.1001,1 -0.3999,1 -0.6001,0 -1.1001,0.9001 -1.1001,2 0,1.1001 -0.6001,2 -1.3999,2 -0.9002,0 -1.3001,0.6999 -1.1001,2 0.3,1.4001 -0.2,2 -1.6001,2 -1.8999,0 -2.0999,0.3 -2.2,3.6999 -0.1,1 -1.3999,3 -2.8999,4.4002 -1.5,1.3999 -2.8,3.1999 -3,4 -0.1999,0.8 -0.6001,1.5998 -1,1.8999 -0.3,0.3 -0.8,1.1999 -1,2 -0.1999,0.8 -2,3.1999 -4.1999,5.1999 -3,3.1001 -3.6001,4.1001 -2.7002,5.2002 1,1.0999 0.8,1.5999 -0.7998,2.0999 -1.9002,0.6001 -2.8001,3.4001 -2.2002,6.6999 0,0.5 -0.5999,0.8001 -1.5,0.8001 -0.7998,0 -1.2,0.4001 -0.8999,1 0.3,0.5 -0.2,1 -1.1001,1 -1,0 -1.5,0.3 -1.0999,0.6001 0.3001,0.3999 0,1.3 -0.8,2 -0.8001,0.8 -1.2,2.3 -1,3.3999 0.3,1.5 -0.2,2 -1.8999,2 -1.9002,0 -2.2002,0.4001 -1.8001,2.5 0.3001,1.6001 0,2.5 -0.8,2.5 -1,0 -1,0.3 0,1.5 1.5,1.8 -0.1001,2 -1.8999,0.1999 -1.1001,-1 -1.3001,-1 -0.7002,0 0.4001,0.7002 0.3,1.3001 -0.2,1.3001 -0.5,0 -0.6999,1.1001 -0.5,2.5 0.3001,1.4001 -0.1,3.1001 -1.0998,4 -0.9002,0.9001 -1.4002,2.1001 -1.1001,2.6001 0.3999,0.5 -0.1001,0.8999 -1,0.8999 -0.8999,0 -1.3001,0.4001 -1,1 0.3,0.5 0.1001,1 -0.3999,1 -0.6001,0 -1.1001,0.8 -1.1001,1.8 0,1 -0.8999,2.3999 -2,3.2 -1.1001,0.8 -2,2.1999 -2,3.1999 0,1 -0.5,1.8001 -1.1001,1.8001 -0.5,0 -0.7,0.4001 -0.3999,1 0.3,0.5 0.1999,1 -0.3999,1 -0.5,0 -0.8001,0.8 -0.7002,1.6999 0.2002,1 -0.2998,2.4002 -1.0999,3.1001 -0.6999,0.8001 -1.1001,1.8001 -0.8,2.3001 0.3999,0.5 0,0.8999 -0.8001,0.8999 -1,0 -1.3999,0.9001 -1.1999,3 0.1999,2.4001 -0.1001,3 -1.6001,3 -1.2,0 -1.8999,0.6999 -1.8999,2 0,1.1001 -0.3999,2 -1,2 -0.5,0 -0.8999,0.3 -0.8999,0.6999 0.2998,2 -0.2002,3.3001 -1.4002,3.3001 -0.8999,0 -1.1999,1 -0.8999,3 0.3001,2.1999 0,3 -1.1001,3 -1,0 -1.3999,0.9001 -1.1999,3 0.1999,2.1001 -0.2,3 -1.2,3 -0.8,0 -1.1999,0.4001 -0.8,0.9001 0.3,0.5 -0.3999,1.2 -1.5,1.5999 -1.2,0.4001 -1.7,1.1001 -1.3001,1.8 1.5,2.3999 1.1001,3.7 -1,3.7 -1.8999,0 -2.1999,0.5 -2.0998,4 0.1999,4.1999 -0.3001,4.8 -2.5,2.6999 -1.1001,-1 -1.1001,-0.7998 -0.2002,1 1,1.9002 0.9001,2.3001 -0.2998,2.3001 -0.9002,0 -1.3001,0.6001 -1,1.5 0.2998,0.8 -0.1001,2.1001 -0.9002,3 -0.8999,0.8 -1.3999,2.4001 -1.1999,3.5 0.1999,1.1999 -0.3001,2.1001 -1.6001,2.5 -1.2,0.4001 -1.8999,1.5 -1.8999,3 0,1.3 -0.3999,2.5 -0.8999,2.6999 -0.5,0.1001 -1.1001,1 -1.3001,1.8001 -0.1999,0.8 -0.6001,1.8 -1,2.1001 -0.5,0.3 -0.9001,1.6999 -1,3.1999 -0.1001,1.5 -0.8,2.7 -1.5,2.7 -0.6001,0 -1,0.9001 -0.8,2 0.3,1.3 -0.2,2 -1.2,2 -0.9,0 -1.3,0.3 -1,0.6001 0.3999,0.3999 -0.3,1.5 -1.5,2.5 -1.6001,1.3999 -1.8,2.1999 -1,3.1999 0.8999,1 0.6,1.7 -0.8,2.7 -1.2,0.8 -2,2.6001 -2,4.1999 0,2.2002 -0.5,2.8001 -2.1,2.8001 -1.1,0 -1.7001,0.4001 -1.4,1 1.3,2.1001 1.4,5 0.1,5 -0.6999,0 -1.0999,1.1999 -1,3 0.1,1.9001 -0.2999,3 -1.0999,3 -0.8001,0 -1.2,0.8 -1,2 0.3,1.4001 -0.2,2 -1.4001,2 -1.2999,0 -1.7999,1 -2,4.1999 -0.1,2.4002 -0.5999,4.5 -1.1999,4.6001 -0.6,0.3001 -0.5,0.8999 0.1999,1.8001 0.9001,1.0998 0.8001,1.3999 -0.5,1.3999 -1,0 -1.5,0.4001 -1.1999,0.9001 0.4,0.5 0.1999,1.0999 -0.4,1.2998 -0.5,0.1001 -1.1,1.5 -1.2,3 -0.1001,1.6001 -0.7001,2.8001 -1.3,2.8001 -0.7,0 -1.1,1.6001 -1,3.6999 0.1,2.9002 -0.5,4.4002 -2.6,6.4002 -2,1.8 -2.5,2.8999 -1.8001,4.0998 0.7001,1.3001 0.4001,1.8001 -1.0999,2.3001 -1.1,0.4001 -2,1.5 -2,2.6001 0,1.0998 -0.6,2.6999 -1.4001,3.3999 -0.6999,0.8 -1.1999,2.8 -1.0999,4.5 0.1999,1.8 -0.2,3 -0.9001,3 -0.6999,0 -1.0999,1.1999 -1,3 0.1,1.9001 -0.2999,3 -1.0999,3 -0.8001,0 -1.2,0.8 -1,1.8 0.1999,1.1001 -0.5,2.5 -1.6,3.3001 -1.1,0.6999 -1.9,2.5 -1.9,4 0,1.5 -0.6,2.8999 -1.2,3.1999 -1,0.3001 -1,0.7 0.1,2 1.1999,1.5 1.1,1.7 -0.3001,1.7 -1,0 -1.4,0.4001 -1.0999,1 0.3,0.5 0,1 -0.7,1 -1,0 -1.3,1 -1,3.5 0.2999,2.1999 -0.1001,4 -1.1001,4.9001 -0.7999,0.7998 -1.2999,2.8999 -1.1999,4.5999 0.1999,2.1001 -0.2,3 -1.2,3 -0.8,0 -1.1001,0.4001 -0.8,1 0.3,0.5 -0.1,1 -0.9001,1 -1,0 -1.2999,0.6001 -0.9,1.6001 0.3001,0.8999 0,2 -0.6999,2.3999 -1.1,0.6999 -1.1,1.4001 -0.2,3.4001 1,2.2998 0.8999,2.5999 -0.9,2.5999 -1.6,0 -1.8001,0.3 -0.9,1.9001 0.6,1.2 0.6,2.0999 0,2.2998 -0.5,0.2002 -1,2.9002 -1.1,6 -0.2001,3.9002 -0.7001,5.8001 -1.5,5.8001 -0.7001,0 -1.1,0.8 -0.9,2 0.1999,1.1999 -0.2,2 -1,2 -0.9,0 -1.2,0.8 -0.9,2.5 0.2,1.5 -0.2,3.1999 -0.9001,4 -0.7999,0.8 -1.2999,3.1001 -1.1999,5.4001 0.1,2.8999 -0.2,4.0999 -1.2,4.0999 -0.8,0 -1.1001,0.4001 -0.8,1 0.3,0.5 0.1,1 -0.4,1 -0.6,0 -1.1,1.3 -1.1,3 0,1.6001 -0.5,3 -1.1,3 -0.5,0 -0.7001,0.4001 -0.4,1 0.3,0.5 -0.1,1 -1,1 -1.3001,0 -1.4,0.4001 -0.5,2 0.6999,1.4001 0.6999,2 0,2 -0.5,0 -1,1.3 -1,3 0,1.6001 -0.5,3 -1.1,3 -0.5,0 -0.7001,0.4001 -0.4,1 0.3,0.5 -0.1,1 -1,1 -0.9,0 -1.3001,0.5 -0.9,1.1001 1.3,2.1999 1.2,6.8999 -0.2,6.8999 -0.7001,0 -1.1,0.8 -0.9,1.8 0.1999,1.1001 -0.5,2.5 -1.6,3.3001 -1.9,1.3999 -2.5,4 -1.2001,5.3 1.4001,1.2998 1,5.5999 -0.3999,5.5999 -0.8,0 -1.1001,0.4001 -0.8,1 0.3,0.5 0.1,1 -0.4,1 -0.6,0 -1.1,1.5 -1.1,3.4001 0,1.8999 -0.6,3.5999 -1.3001,3.8999 -0.89986,0.3001 -1.29986,2 -1.19986,4.6001 0.1,2.5 -0.2,4.0999 -1,4.0999 -0.6,0 -1,1.5 -1,3.6999 0.1,2.1001 -0.3001,4.3001 -1,4.9002 -0.6,0.6999 -1.1,3.5 -1,6.3 0.1,4.0999 -0.2,5.2 -1.7,5.7 -1.4,0.3999 -1.8,1.5998 -1.8,4.8999 0,2.6001 -0.5,4.5 -1.2,4.8 -1,0.3001 -1,0.7 -0.1001,1.7 0.9001,1 0.8001,1.6001 -0.2999,2.6999 -0.8,0.8001 -1.2001,1.9002 -0.9,2.4002 0.4,0.5 0,0.8999 -0.7,0.8999 -0.9,0 -1.3,1.6001 -1.1001,6 0.1001,4.1001 -0.2999,6 -1.0999,6 -0.8,0 -1.2,1.6001 -1.1,4.6999 0.1,4.5 -1.2,7.3001 -3.3001,7.3001 -0.3999,0 -0.118,1.3388 -0.3999,3 -0.3208,2.094 -0.4655,1.6811 -0.8,3 -0.1967,0.7756 0.2414,0.8388 -0.6,2.1999 -0.019,2.6709 -0.4457,3.7097 -0.8147,5.6853 -0.2344,0.9717 -0.8179,1.9395 -0.9363,2.4251 -0.2835,1.1638 -0.6,2.1999 -0.5,5 -0.2818,3.4165 -0.9332,3.9992 -1.049,4.6897 -0.2017,1.2026 0.1086,0.2285 -0.1,2 -0.3638,1.7165 0.024,0.1379 -0.3001,2 -0.1886,1.0837 -0.2362,3.2397 -1.1,6 -0.5534,4.2285 -0.4819,4.4485 -0.9,6 -0.234,0.8691 -0.3852,0.8672 -0.8999,3.5 -0.3595,2.3715 -0.5044,2.0258 -0.7,3.5 -0.079,0.5949 -0.4238,1.4663 -0.6346,2.7492 -0.2326,1.4163 -0.3447,1.9793 -0.5017,3.1104 -0.2345,1.3474 -0.024,0.7834 -0.3551,1.9775 -0.4621,2.6267 0.1914,18.4629 -1.3086,19.9629 -0.7,0.8001 -1.1001,1.8001 -0.8,2.3001 0.4,0.5 0.1,0.8999 -0.4,0.8999 -0.7,0 -1.1,3.3 -1.1,9 0,6 -0.4,9 -1.1,9 -0.7001,0 -0.9,0.9001 -0.5,2.1999 1.6,5.3001 1.5,5.8001 -0.5,5.8001 -1.7001,0 -1.8,0.3 -0.9,2 0.8,1.5 0.8,2 -0.2,2 -1,0 -1.3,2.1999 -1.1001,8.6001 0.1001,5.8 -0.1999,9.0998 -1.0999,9.8999 -0.7,0.6999 -1.2,3.6999 -1.1,7.1001 -4.2365,7.726 -3.9766,18.563 -5,28.3999 -0.072,0.6963 -1.1,1.8 -1,5 0.1,3 -0.3001,5 -0.9,5 -0.8,0 -1,7.9001 -0.8,26 0.2,19.4001 0,26 -0.9,26 -0.7001,0 -0.9,0.8 -0.4,2.1999 1.3,4.6001 1.1,7.3001 -0.8001,9 -1.0999,1 -1.5999,2.2002 -1.0999,2.9002 0.4,0.6999 0.9,10.3999 1.0999,21.5998 0.2001,16.4002 0,20.3001 -1,20.3001 -1.0999,0 -1.2999,2.6999 -1,13.5 0.3001,11.3 0.2001,13.8 -1.1999,15.1001 -0.8001,0.8999 -1.3001,1.8999 -1,2.3999 0.3,0.5 -0.1,1 -0.7,1.3 -0.7,0.3001 0,1 1.7,1.6001 1.6,0.7 4.5,1.8999 6.3,2.7998 2,1 3.7,1.2002 4,0.7002 0.3999,-0.5 3.2,-1.6001 6.2,-2.3 3,-0.8001 12.5,-3.5 21,-6.2 8.5,-2.6001 20.19986,-6.2002 25.99996,-7.9001 20.4,-6.0999 32.6999,-10.3001 46,-15.7 21.1999,-8.6999 43.6999,-18.1999 51.6999,-21.8999 4,-1.9001 7.5,-3.4001 7.7,-3.4001 0.3,0 8.1001,-3.7 17.4001,-8.3001 16.3001,-7.8999 23.8001,-12.1999 37.8001,-21.5 3.5,-2.2998 6.8999,-4.1999 7.2998,-4.1999 0.5,0 2.2002,-1.0999 3.8,-2.3001 1.5,-1.2998 6,-4.2998 9.8001,-6.5998 3.8999,-2.3001 9.1001,-5.7 11.6999,-7.4002 2.6001,-1.7998 7.3001,-4.7998 10.5,-6.6999 21.2,-13 33.8001,-22.0999 47.8001,-34.8999 2.1999,-2 8.3,-7.2 13.5,-11.5 13.3,-11 26,-22.5 36,-32.6001 9.3999,-9.3999 33.6999,-35.2 39.1001,-41.5 1.8999,-2.2 4.5998,-5.3001 6.0998,-7 1.6001,-1.5999 2.8001,-3.3999 2.8001,-3.8999 0,-1 9.1999,-12.2 11.6999,-14.2 0.7,-0.6001 1,-1.3 0.8001,-1.6001 -0.3001,-0.3 1.8,-3.1001 4.6001,-6.3999 2.8999,-3.2002 6.6999,-7.6001 8.5,-9.8 1.8999,-2.1001 3.3999,-4.2 3.3999,-4.7 0,-0.4001 2.3,-3.4001 5.1001,-6.6001 2.7998,-3.1999 5.5998,-6.8999 6.1999,-8.3 0.5999,-1.3999 2.5999,-4.0999 4.3999,-6 1.8001,-1.8999 3.3001,-4.2 3.3001,-5.0999 0,-0.9001 1.6999,-3.6001 3.8999,-6 2.1001,-2.4001 4.1001,-5.3 4.5,-6.4001 0.3,-1.0999 2.4001,-4 4.6001,-6.5 2.1999,-2.5 4,-5.3001 4,-6.2 0,-0.8999 1.6999,-3.5 3.8,-5.6001 2.0999,-2.0998 3.5999,-4.3999 3.5,-4.8999 -0.4001,-1 5.2,-8.3999 6.8001,-9.1001 0.3999,-0.1999 0.5,-1.1999 0.1999,-2.2998 -0.4001,-1.4001 0,-2.2002 1.3999,-2.5 1.4002,-0.4001 1.9002,-1.2002 1.6001,-2.7002 -0.1999,-1.3999 0.7,-3.2998 2.5999,-5.2998 1.6001,-1.8 2.7002,-3.5 2.4001,-3.8 -0.4001,-0.3001 -0.1001,-0.6001 0.5,-0.6001 0.5999,0 0.8999,-0.5999 0.5999,-1.3001 -0.2,-0.6999 0.4001,-2.1999 1.6001,-3.1999 1.1001,-1 2,-2.3999 2,-3.2 0,-0.6999 0.5,-1.3 1.1001,-1.3 0.5998,0 0.7998,-0.7 0.5,-1.5 -0.3001,-0.8999 0.1,-1.8001 0.8999,-2.0999 0.8,-0.4001 1.5,-1.7002 1.5,-3 0,-1.5 0.6001,-2.4001 1.6001,-2.4001 0.7998,0 1.2998,-0.3999 1,-0.8001 -0.3001,-0.5 0.1,-2 0.8999,-3.5 0.8,-1.5 1.1001,-2.6999 0.6999,-2.6999 -0.3999,-0.1 0.3001,-0.8999 1.6001,-2 1.3999,-1.0999 2,-2.3999 1.5999,-3.0999 -0.3999,-0.7002 0.1001,-1.8 1.2002,-2.6001 1.2998,-1 1.7998,-2.3 1.5,-4.8 -0.1001,-2 0.1999,-3.5 0.7998,-3.5 0.6001,0 1.1001,-0.8001 1.1001,-1.8999 0,-1 0.6999,-2.4002 1.5,-3.1001 0.8999,-0.7 1.3999,-1.8999 1.1001,-2.7 -0.3001,-0.6999 0.1,-1.3 0.8999,-1.3 0.8,0 1.3999,-0.3001 1.3999,-0.8001 -0.5,-3.0998 0.3,-6.1999 1.7002,-6.1999 0.7998,0 1.2998,-0.3999 0.8999,-0.8999 -0.3001,-0.5 0.1001,-1.5 0.8,-2.3001 0.8001,-0.6999 1.2,-1.8999 0.8999,-2.6001 -0.1999,-0.5998 0.1001,-1.1999 0.7,-1.1999 0.6001,0 0.8,-0.5999 0.5,-1.3999 -0.2998,-0.8001 -0.1,-1.7 0.5,-2 0.6001,-0.4002 0.8,-1.3001 0.4001,-2.1001 -0.3,-0.8001 0,-1.5 0.7,-1.5 0.6001,0 0.8999,-0.3999 0.6001,-0.8999 -0.3001,-0.4002 0.1,-1.7 0.8999,-2.7 0.8,-1 1.5,-2.7002 1.5,-3.7002 0,-1 1.1001,-2.8999 2.3999,-4.1999 1.6001,-1.5999 2.2002,-3.0999 1.9001,-4.3999 -0.3,-1.4002 0.1,-2.3001 1.0999,-2.7 1,-0.4001 1.6001,-1.8 1.6001,-3.9001 0,-1.8999 0.5,-3.7 1,-4 0.6001,-0.3999 0.8,-1 0.5,-1.3999 -0.2,-0.5 0.5,-1.7 1.6001,-2.7 1.0998,-1 1.6999,-2.4001 1.5,-3.1001 -0.3001,-0.6999 0,-1.3 0.6999,-1.3 0.7,0 1.3999,-1.2 1.5,-2.7 0.1,-1.5 0.8999,-3.6999 1.7,-4.8999 0.8,-1.3 1.5,-3.5 1.5,-4.9001 0,-1.3999 0.3999,-2.5 1,-2.5 0.5,0 0.6999,-0.5999 0.3999,-1.3999 -0.2998,-0.8001 0.3,-2 1.4001,-2.7 1.2,-0.8 1.7,-2 1.3999,-3.4001 -0.3,-1.5999 0.2,-2.3999 1.6001,-2.7 1.5,-0.3999 1.8999,-1.1999 1.5,-3.1999 -0.3,-1.4002 -0.1001,-3.2 0.3999,-3.9002 0.6001,-0.5998 1.3001,-2.3999 1.7,-4 0.3,-1.5 1.1001,-2.6999 1.7002,-2.6999 0.6999,0 0.7998,-1.0999 0.3999,-2.8999 -0.5,-2.2 -0.1001,-3.5 1.1999,-4.8001 1.2,-1.1999 1.7,-2.8999 1.5,-5.1001 -0.1999,-1.8999 0,-4.0998 0.4002,-5 0.3999,-1 0.5998,-2 0.5998,-2.5 -0.1,-0.3999 0.2,-0.6999 0.6001,-0.6999 1.0999,0 3.5,-8.7 2.7,-10 -0.7,-1.2 1.3,-7 2.3999,-7 0.3,0 0.5,-2 0.3,-4.5 -0.3,-3 0,-4.5 0.8001,-4.5 0.6999,0 1,-0.7 0.6001,-1.5 -0.3001,-0.8001 -0.1001,-1.5 0.3999,-1.5 0.6001,0 1,-1.8001 1,-3.8999 0,-2.2 0.5,-4.3001 1,-4.6001 0.6001,-0.3999 0.8,-1.5 0.5,-2.5 -0.3001,-1.0999 0,-2 1,-2.3999 0.8999,-0.3001 1.3999,-1 1,-1.5 -0.3001,-0.5 -0.1001,-1.2 0.3,-1.5 0.5,-0.3001 0.7,-1.7 0.3999,-3.1001 -0.1999,-1.5 0,-2.5 0.7,-2.5 0.7002,0 0.9001,-0.8999 0.5,-2.3999 -0.2998,-1.4002 -0.2,-3.1001 0.2002,-3.8001 0.5,-0.6999 0.6999,-2.3 0.5,-3.6001 -0.1001,-1.1999 0.1999,-2.1999 0.6999,-2.1999 0.5,0 0.7,-1.0999 0.3999,-2.5 -0.1999,-1.3999 0,-2.5 0.6001,-2.5 0.7,0 0.8999,-1.3999 0.5,-3.5 -0.4001,-2.2 -0.1999,-3.5 0.5,-3.5 0.5999,0 0.8999,-0.7 0.5999,-1.5 -0.3999,-0.8001 -0.2998,-2.3001 0.1001,-3.3001 0.3999,-0.8999 0.6999,-2.8999 0.6001,-4.3999 -0.1001,-1.3999 0.2998,-2.8999 0.7998,-3.3 0.6001,-0.3001 0.8,-1.7 0.5,-3.0999 -0.2998,-1.3 -0.2998,-3.2002 0.1001,-4.1001 0.3999,-1 0.6999,-3 0.6001,-4.5 -0.1001,-1.5 0.1,-3.3 0.5,-4 0.8999,-1.3999 1.2998,-6.3 1.2998,-14.6001 0,-2.7998 0.3,-5.1999 0.8,-5.1999 0.4002,0 0.8001,-7.0999 0.9002,-15.7 0.3999,-91 0.6999,-114.3 1.2998,-114.3 0.4001,0 0.7002,-25.8001 0.7002,-57.3001 0.1,-168.6998 0.5,-252.6998 1.3999,-252.6998 1.5,0 1.1999,-7.8001 -0.2,-8.3001 -0.6999,-0.3 -0.8,-0.5999 -0.1999,-0.5999 0.6999,-0.1 0.8999,-11 0.5998,-36.9001 -0.1999,-21 0,-40.5 0.6001,-45.5 0.5,-4.9 0.8001,-9.6999 0.5,-10.8 -0.5,-1.9 -2,-1.9 -62.5,-1.9 -41,0 -61.6999,0.3 -61.3,1 0.8999,1.5 -12.8001,1.3 -14.3001,-0.2 -0.8999,-0.9 -1.1999,-0.9 -1.1999,0"
     id="path16" />
  <text
     fill="#000000"
     stroke-width="0"
     x="5321.0952"
     y="2358.6282"
     id="svg_8"
     font-size="899.482px"
     font-family="'Work Sans'"
     text-anchor="start"
     xml:space="preserve"
     stroke="#000000"
     transform="scale(1.0364151,0.96486436)"
     style="font-style:normal;font-variant:normal;font-weight:normal;font-stretch:normal;font-family:'Heiti TC';-inkscape-font-specification:'Heiti TC';fill:#1a1a1a;fill-opacity:1">MEDIC</text>
  <g
     id="g4"
     transform="translate(-94.555857,-12.805372)">
    <text
       fill="#000000"
       stroke-width="0"
       x="1968.6599"
       y="1282.8987"
       id="svg_2"
       font-size="1105.09px"
       font-family="Spartan"
       text-anchor="start"
       xml:space="preserve"
       stroke="#000000"
       transform="matrix(1.2494368,0.00823073,-0.01432624,1.3079586,-509.24167,-195.12395)"
       font-weight="bold"
       style="font-style:normal;font-variant:normal;font-weight:normal;font-stretch:normal;font-family:'Shree Devanagari 714';-inkscape-font-specification:'Shree Devanagari 714, ';white-space:pre;inline-size:9804.32;display:inline"><tspan
         x="1968.6599"
         y="1282.8987"
         id="tspan5"><tspan
           dx="0 0 0 0 0 -0.00012207031"
           style="font-weight:bold;font-family:'Heiti TC';-inkscape-font-specification:'Heiti TC Bold'"
           id="tspan3">MENTOR</tspan></tspan></text>
    <text
       fill="#000000"
       stroke-width="0"
       x="1968.6599"
       y="1282.8987"
       id="svg_2-8"
       font-size="1105.09px"
       font-family="Spartan"
       text-anchor="start"
       xml:space="preserve"
       stroke="#000000"
       transform="matrix(1.2247164,0.00799973,-0.01404279,1.2712494,5190.8709,-111.99108)"
       font-weight="bold"
       style="font-style:normal;font-variant:normal;font-weight:normal;font-stretch:normal;font-family:STIXSizeThreeSym;-inkscape-font-specification:STIXSizeThreeSym;white-space:pre;inline-size:9804.32;display:inline;fill:#1547a2;fill-opacity:1"><tspan
         x="1968.6599"
         y="1282.8987"
         id="tspan7"><tspan
           style="font-family:'Heiti TC';-inkscape-font-specification:'Heiti TC'"
           id="tspan6">A</tspan></tspan></text>
  </g>
</svg>
