<svg xmlns="http://www.w3.org/2000/svg" version="1.0" viewBox="0 0 3350 4724">
<defs>

  <!-- Soft brush filter: blurs the bottom edge of clip mask -->
  <filter id="brush-edge" x="0%" y="-5%" width="110%" height="115%" color-interpolation-filters="sRGB">
    <feGaussianBlur stdDeviation="0 80"/>
  </filter>

  <!-- Green leaf clip: rect rises from bottom of leaf (y=3542) to top (y=1737) -->
  <mask id="mask-green">
    <rect id="mg-rect" x="1500" y="3542" width="1200" height="1805"
          fill="white" filter="url(#brush-edge)">
      <!-- Move y upward (reveal from bottom) -->
      <animate attributeName="y"
        from="3542" to="1637"
        dur="2.2s" begin="0.3s"
        fill="freeze"
        calcMode="spline"
        keyTimes="0;1"
        keySplines="0.4 0 0.2 1"/>
    </rect>
  </mask>

  <!-- Blue leaf clip: rect rises from bottom of leaf (y=2696) to top (y=1346) -->
  <mask id="mask-blue">
    <rect id="mb-rect" x="900" y="2696" width="1100" height="1350"
          fill="white" filter="url(#brush-edge)">
      <animate attributeName="y"
        from="2696" to="1246"
        dur="2.0s" begin="1.0s"
        fill="freeze"
        calcMode="spline"
        keyTimes="0;1"
        keySplines="0.4 0 0.2 1"/>
    </rect>
  </mask>

</defs>

  <!-- Green leaf group (right side) — reveals bottom to top -->
  <g mask="url(#mask-green)">
    <path fill-opacity=".2" d="M1837.5 3311c0 45.9.1 64.7.2 41.8.2-23 .2-60.6 0-83.5-.1-23-.2-4.2-.2 41.7"/>
    <path fill-opacity=".9" d="M2436.8 1735.7c13.8.2 36.6.2 50.5 0 13.8-.1 2.5-.2-25.3-.2s-39.1.1-25.2.2m-744.3 1197.8c0 23.6.1 33.2.2 21.2.2-12 .2-31.4 0-43-.1-11.7-.2-1.9-.2 21.8m0 379.5c0 94.3.1 132.9.2 85.8.2-47.2.2-124.4 0-171.5-.1-47.2-.2-8.6-.2 85.7"/>
    <path fill-opacity=".7" d="M1836.5 3308c0 45.4.1 63.9.2 41.2.2-22.6.2-59.8 0-82.5-.1-22.6-.2-4.1-.2 41.3"/>
    <path fill="#004080" d="M1693.2 2604.1c-.1 39.4-.5 73.2-.8 75-.5 2.5-.4 3.1.5 2.3.8-.7 1-20.6.8-75l-.2-73.9z"/>
    <path fill="#404040" d="M2450.3 1736.7c11.5.2 29.9.2 41 0 11.1-.1 1.8-.2-20.8-.2-22.5 0-31.6.1-20.2.2"/>
    <path fill="#004040" d="M1693.5 2939c0 26.1.1 36.8.2 23.7.2-13 .2-34.4 0-47.5-.1-13-.2-2.3-.2 23.8m0 367c0 108.1.1 152.3.2 98.3.2-54.1.2-142.5 0-196.5-.1-54.1-.2-9.9-.2 98.2m61.8 236.7c8.6.2 22.8.2 31.5 0 8.6-.1 1.5-.3-15.8-.3s-24.4.2-15.7.3"/>
    <path fill="#004040" fill-opacity=".9" d="M1689.5 2767c0 20.6.1 29.1.2 18.7.2-10.3.2-27.1 0-37.5-.1-10.3-.2-1.8-.2 18.8m146 567.5c0 64.3.1 90.5.2 58.2.2-32.4.2-85 0-117-.1-32-.2-5.6-.2 58.8"/>
    <path fill="teal" d="M2372 1737.8c0 .7-1.5 1.2-3.6 1.2-1.9 0-3.3.4-3 .9.4.5-2.8.9-7.1.9-4.6.1-7.9.5-8.1 1.1-.5 1.5-5.5 1.4-7-.1-.9-.9-1.2-.9-1.2 0 0 .8-1.7 1.2-4.6 1.2-2.7 0-4.3.4-3.9 1 .9 1.5-6.8 1.2-8.4-.3-1.1-1-1.3-1-.7 0 .5 1-.5 1.3-3.8 1.3-2.5 0-4.6.4-4.6 1 0 1.4-5.3 1.2-6.9-.3-1.1-1-1.3-1-.7 0 .5 1-.4 1.3-3.4 1.3-2.5 0-3.9.4-3.5 1s-1.8 1-6 1c-4.5 0-6.4.3-6 1.1.5.7-.3 1-2.1.8-5.2-.4-8.5.1-7.9 1.1.4.6-1.2 1-4 1s-4.4.4-4 1-1.2 1-4 1-4.4.4-4 1-.8 1-3 1-3.4.4-3 1-1 1-3.4 1c-2.3 0-4.1.4-4.1 1 0 .5-1.3 1-3 1-1.6 0-3 .4-3 1 0 .5-1.3 1-3 1-1.6 0-3 .4-3 1 0 .5-1.3 1-3 1-1.6 0-3 .4-3 1 0 .5-1.3 1-3 1-1.6 0-3 .4-3 1 0 .5-1.3 1-3 1-1.6 0-3 .4-3 1 0 .5-1.3 1-3 1-1.6 0-3 .4-3 1 0 .5-1.2 1-2.6 1s-2.3.4-1.9 1-.8 1-3 1-3.4.4-3 1-.8 1-3 1c-2.4 0-3.4.4-2.9 1.1.4.7 0 .9-1.4.5-1.2-.4-2.6-.1-3.5.9-.9.8-2.7 1.5-4.1 1.5s-2.6.4-2.6 1c0 .5-1.2 1-2.6 1s-2.3.4-1.9 1-.8 1-3 1-3.4.4-3 1-.7 1-2.4 1-3.1.4-3.1 1c0 .5-1.2 1-2.6 1-1.6 0-2.3.4-1.8 1.1.4.7 0 .9-1.4.5-1.2-.4-2.6-.1-3.5.9-.9.8-2.5 1.5-3.7 1.5s-1.8.4-1.5 1c.4.6-.7 1-2.4 1s-3.1.4-3.1 1c0 .5-1.2 1-2.6 1-1.6 0-2.3.4-1.8 1.1.4.7 0 .9-1.4.5-1.2-.4-2.6-.1-3.5.9-.9.8-2.3 1.5-3.1 1.5-.9 0-1.6.4-1.6 1 0 .5-.9 1-2 1s-2 .4-2 1c0 .5-1.2 1-2.6 1s-2.3.4-1.9 1-.5 1-2 1-2.4.4-2 1c.3.5-.3 1-1.4 1-1.2 0-2.1.4-2.1 1 0 .5-.9 1-2 1s-2 .4-2 1c0 .5-.9 1-2 1s-2 .4-2 1c0 .5-.9 1-2 1s-2 .4-2 1c0 .5-.9 1-2 1s-2 .4-2 .8-1.5 1.2-3.2 1.8c-1.8.5-3.2 1.5-3 2.2.1.7-.9 1.2-2.4 1.2-1.4 0-2.3.4-1.9 1 .3.5-.3 1-1.4 1-1.2 0-2.1.4-2.1 1 0 .5-.7 1-1.6 1-.8 0-1.2.4-.9 1 .3.5-.3 1-1.4 1-1.2 0-2.1.4-2.1 1 0 .5-.9 1-2 1s-2 .4-2 .8-1.5 1.2-3.2 1.8c-1.8.5-3.2 1.5-3 2.2.1.7-.9 1.2-2.4 1.2-1.4 0-2.3.4-1.9 1 .3.5-.2 1-1.2 1s-2.5.9-3.3 2-2.2 2-3.2 2-1.8.4-1.8 1c0 .5-.9 1-2 1s-2 .4-2 1c0 .5-.7 1-1.6 1s-2.9 1.3-4.4 3c-1.5 1.6-3.5 3-4.4 3s-1.6.4-1.6 1c0 .5-.7 1-1.6 1-.8 0-1.2.4-.9 1 .3.5-.1 1-1 1s-1.3.4-1 1c.3.5-.3 1-1.4 1-1.2 0-2.1.4-2.1 1 0 .5-.7 1-1.6 1s-2.9 1.3-4.4 3c-1.5 1.6-3.5 3-4.4 3s-1.6.4-1.6 1c0 .5-.7 1-1.6 1-.8 0-1.2.4-.9 1 .3.5-.1 1-1 1-1 0-3 1.3-4.5 3-1.5 1.6-3.3 3-4 3-.6 0-.8.4-.5 1 .4.6-.5 1-2 1s-2.4.4-2 1c.3.5-.1 1-1 1s-1.3.4-1 1c.3.5-.1 1-1 1s-1.3.4-1 1c.3.5-.1 1-1 1s-1.4.4-1.1.9-.7 1.1-2.4 1.4c-1.6.4-4.9 2.7-7.4 5.2s-5 4.5-5.6 4.5-.8.4-.5 1c.3.5-.3 1-1.4 1-1.2 0-2.1.4-2.1 1 0 .5-.7 1-1.6 1-.8 0-1.2.4-.9 1 .3.5-.1 1-1 1s-1.3.4-1 1c.3.5-.1 1-1 1s-1.3.4-1 1c.3.5-.1 1-1 1s-1.3.4-1 1c.3.5-.1 1-1 1s-1.3.4-1 1c.3.5-.1 1-1 1s-1.3.4-1 1c.3.5-.1 1-1 1s-3.4 1.8-5.5 4-4.4 4-5 4-.8.4-.5 1c.3.5-.1 1-1 1s-1.3.4-1 1c.3.5-.1 1-1 1s-1.3.4-1 1c.3.5-.1 1-1 1s-1.3.4-1 1c.3.5-.1 1-1 1-2 0-63.8 61.8-63 63 .4.6-.1 1-1 1s-1.3.4-1 1c.3.5-.1 1-1 1s-1.3.4-1 1c.3.5-.1 1-1 1s-1.3.4-1 1c.3.5-.1 1-1 1s-1.3.4-1 1c.3.5-.2 1-1.1 1-1 0-1.5.3-1.1.6.3.4-.1 1.3-.9 2.1s-1.2 1.9-.9 2.4c.4.5-.1.9-1 .9s-1.3.4-1 1c.3.5-.2 1-1.1 1-1 0-1.5.3-1.1.6.3.3-1 2.2-2.9 4.1s-3.2 3.8-2.9 4.4c.4.5-.1.9-1 .9s-1.4.4-1.1.9-.1 1.1-.9 1.5c-.8.3-1.5 1.2-1.5 2.1 0 .8-.5 1.5-1.2 1.5-.6 0-.9.3-.5.6.3.3-.5 1.7-1.9 3.1-1.3 1.3-2.2 2.9-1.9 3.4.4.5-.1.9-1 .9s-1.3.4-1 1c.3.5-.1 1-1 1s-1.3.4-1 1c.3.5-.2 1-1.1 1-1 0-1.5.3-1.1.6.3.4-.1 1.3-.9 2.1s-1.2 1.9-.9 2.4c.4.5-.1.9-1 .9s-1.3.4-1 1c.3.5 0 1-.9 1-.8 0-1.3.8-1.2 1.7.2 1 0 2-.5 2.3-.4.3-.9 1.2-1.1 2s-.9 2.1-1.6 2.8c-.7.8-1 1.7-.7 2.2s.1 1-.4 1.2c-.5.1-1.1 1-1.3 1.8s-.9 2.1-1.6 2.8c-.7.8-1 1.8-.7 2.3.4.5.1.9-.4.9-.6 0-1 .3-1 .7.3 2.1-.3 3.3-1.7 3.3-.8 0-1.3.4-1 .9.4.5.2 1.1-.3 1.3-.5.1-1.1 1-1.3 1.8s-.9 2.1-1.6 2.8c-.7.8-1 1.7-.7 2.2s.1 1-.4 1.2c-.5.1-1.1 1-1.3 1.8s-.9 2.1-1.6 2.8c-.7.8-1 1.8-.7 2.3.4.5-.1.9-1 .9s-1.4.4-1.1.9c.4.5.2 1.1-.3 1.3-.5.1-1.1 1-1.3 1.8s-.6 1.7-1 2c-.3.3-.8 1.2-1 2s-.9 2.1-1.6 2.8c-.7.8-1 1.7-.7 2.2s.1 1-.4 1.2c-.5.1-1.1 1-1.3 1.8s-.9 2.1-1.6 2.8c-.7.8-1 1.7-.7 2.2s.1 1-.4 1.2c-.5.1-1.1 1-1.3 1.8s-.9 2.1-1.6 2.8c-.7.8-1 1.7-.7 2.2s.1 1-.4 1.2c-.5.1-1.1 1-1.3 1.8s-.8 2-1.5 2.8c-.7.7-1 1.9-.7 2.7s-.1 2.1-1 3c-.8.9-1.3 2.2-1 3s-.1 2.2-1 3.1c-.9.8-1.4 1.9-1.1 2.4s.1 1-.4 1.2c-.5.1-1.1 1.4-1.3 2.8-.1 1.4-.6 2.7-1 3-.3.3-.8 1.2-1 2s-.9 2.1-1.6 2.8c-.7.8-1 1.7-.7 2.2s0 1-.6 1.2c-.5.2-1.1 1.9-1.1 3.8-.1 1.9-.4 3.7-.8 4-.5.3-1 1.6-1.1 3-.2 1.4-.8 2.8-1.2 3.1-.5.3-.9 2.1-.9 4-.1 1.9-.4 3.6-.8 3.9-.5.3-1 1.6-1.1 3-.2 1.4-.7 2.7-1 3-.4.3-.9 1.6-1 3-.2 1.4-1 3.1-1.7 3.9-1 1-1 1.6-.3 2.1.8.4.5 1.4-.8 2.9-1.1 1.2-1.7 2.9-1.4 3.8.3.8.1 1.8-.5 2.2-.6.3-1.2 1.3-1.4 2.1s-.9 2.1-1.6 2.8c-.7.8-1 1.7-.7 2.2s.1 1-.4 1.2c-.5.1-1.1 1.4-1.3 2.8-.1 1.4-.9 3.1-1.6 3.8-.7.8-1 1.7-.7 2.2s.1 1-.4 1.2c-.5.1-1.1 1.4-1.3 2.8-.1 1.4-.9 3.1-1.6 3.8-.7.8-1 1.7-.7 2.2s.1 1-.4 1.2c-.5.1-1.1 1-1.3 1.8s-.9 2.1-1.6 2.8c-.7.8-1 1.8-.7 2.3.4.5.1.9-.6.9-.6 0-.9.8-.6 2 .3 1.1-.3 2.9-1.4 4.1-1 1.2-1.6 2.5-1.4 2.9.3.5.1 1-.4 1.2-.5.1-1.1 1-1.3 1.8s-.8 2-1.5 2.8c-.7.7-.9 2-.6 2.8.3.9.1 1.9-.5 2.3-.6.3-1.2 1.3-1.4 2.1s-.9 2.1-1.6 2.9c-1 1-1 1.6-.3 2.1q1.2.6-.9 3t-.9 3c.7.5.5 1.2-.6 2.4-.9.9-1.7 3.1-1.7 4.8-.1 1.8-.5 3.6-1.1 3.9-.5.4-.9 2.6-.9 5 .1 2.4-.4 4.6-.9 5-.5.3-1 2.7-1.1 5.2 0 2.6-.4 4.7-.8 4.7-1.2 0-1.8 4.9-.7 5.3.5.1.2 1-.7 1.9-.9 1-1.7 3.5-1.8 6 0 2.4-.4 4.5-.9 4.8-.4.3-.9 1.6-1 3-.2 1.4-.8 2.8-1.3 3.1-.4.4-.8 2.6-.8 5 .1 2.4-.3 4.6-.8 4.9-.4.3-.9 2.1-1.1 4s-.7 3.7-1 4c-.4.3-.9 1.6-1 3-.2 1.4-.9 3.1-1.6 3.8s-.9 2-.6 2.8c.3.9 0 1.9-.6 2.3-.7.5-1.3 2.3-1.3 4.2-.1 1.9-.5 3.7-1.1 4-.5.4-.9 2.6-1 5 0 2.4-.4 4.7-.9 5-.4.3-.9 2.5-1 5 0 2.4-.5 4.7-1 5-.4.3-.9 2.5-1 5 0 2.4-.5 4.7-1 5s-.9 2.7-1 5.2c0 2.6-.4 4.7-.8 4.7s-1 1.1-1.2 2.5c-.3 1.4-.2 2.5.2 2.5.9 0-.1 6.4-1.2 7.1-.5.3-.9 3-1 6 0 3-.4 5.7-.9 6s-1 2.5-1.1 5c0 2.4-.6 4.7-1.1 5.1-.6.4-1.1 4.7-1.1 10 0 5.1-.4 9.6-.9 9.9-.4.3-.8 3-.9 6 0 3-.4 5.7-.9 6s-1 2.5-1.1 5c0 2.4-.6 4.7-1.1 5-.5.4-1 3.1-1 6-.1 3-.5 5.7-1 6s-.8 3.5-.8 7-.5 6.6-1 7c-.6.3-1 3-1.1 6 0 3-.4 5.7-.9 6s-1 2.5-1.1 5c0 2.4-.5 4.6-.9 4.9s-.9 1.2-1.1 2-.8 2-1.5 2.8c-.7.7-.9 2-.6 2.8.3.9.1 1.9-.5 2.3-.9.5-1.2 21.8-1.2 79.3 0 47.3-.4 78.8-1 79-.5.2-1 7.7-1.1 16.8s-.5 16.7-.9 17c-1.2.8-1.6 98.2-.5 100 1.3 2 1.3 26 0 26-.5 0-.3.5.5 1s1.1 1 .6 1-.2.7.5 1.6c1.5 1.9 2.1 20.4.6 20.4-1.1 0-.7 14.2.5 15.6.5.7.7 24.5.6 55.3-.2 29.8.1 54.2.5 54.4.5.1 1.1 2.3 1.3 4.7.2 2.5.7 5.2 1.1 6 .3.8.7 6.9.7 13.5.2 10.3-.1 12.2-1.6 13.6-1 .9-1.5 1.9-1.1 2.3 1.2 1.2 1.2 22.6-.1 22.6-1.4 0-1.6 462.1-.2 463.2 1.4.9 1.4 10.1.2 11-.7.5-.6.8.2.8.7 0 1 .4.7 1-.4.6.4.9 1.7.7 1.3-.1 2.2.2 2.1.8s2.2.9 5.8.7c3.3-.2 6.7-.1 7.7.3 2.2.8 110.2 1.2 110.2.3 0-.4 2.1-.8 4.8-1 4.3-.3 4.7-.5 5-3.1.2-1.5.6-2.7 1-2.7.9 0 .9 2.8 1-210.3 0-105.7.5-179.7 1-179.7s.8-8.2.8-18.5c-.1-11.4.3-18.8.9-19.3.6-.4 1-14.3 1.1-37.7.1-57.7.5-78.5 1.6-78.5.6 0 .8-.7.4-1.5-.3-.8-.2-1.5.2-1.5s.5-2.3.4-5c-.2-2.9.1-5.7.8-6.5.8-1 1-5.4.4-16.3-.5-11-.4-15.1.5-15.6.7-.4.9-1.6.6-2.7-.4-1-.3-1.9.2-1.9 1.1 0 1.1-1.9 1.2-32.8.1-16.3.5-26.2 1.1-26.2s.7-1.8.3-4.6c-.4-3-.2-4.8.5-5.3 1.6-.9 2.7-12.2 2.4-24.4-.1-6.4.2-9.7.9-9.7.6 0 .9-.7.5-1.5-.3-.8-.1-1.5.5-1.5s.7-.5.4-1c-.3-.6-.3-1.5.1-2.1.4-.7.8-5 .9-9.8.2-10.5.8-15.4 2.1-15.8.5-.2.8-3.4.6-7.3-.3-4.8 0-7 .8-7s.9-1 .5-3.1c-.4-1.7-.2-4.2.3-5.7.6-1.5 1.4-3.6 1.8-4.7s.6-6.2.5-11.3c-.2-6 .1-9.2.8-9.2.6 0 .8-.7.5-1.5-.4-.8-.1-1.5.5-1.5s.8-.7.5-1.5c-.4-.8-.2-1.5.2-1.5.5 0 1-3.5 1.1-7.8.2-12.8.7-17.5 1.9-17.9.6-.2.9-1.5.6-2.8-.2-1.4.1-3.1.7-3.9.8-.9 1-3.9.5-9.4s-.3-8.1.5-8.6c.6-.4.9-1.2.5-1.7-.3-.5 0-1.7.7-2.5.7-.9 1.2-3.6 1-6.4-.1-2.6.2-5.1.8-5.4.6-.4.7-1.4.4-2.3s0-2.1.8-2.7c1.5-1.2 1.9-3.7 2.2-13.4.1-4 .7-6.6 1.5-7.1s1.3-1.1 1.3-1.5c-.1-.3-.1-.9 0-1.4 0-.4 0-2.8-.1-5.3-.1-2.6.3-5 .8-5.3.6-.3.8-1.5.5-2.6-.3-1.2 0-2 .6-2 .7 0 1-.4.6-.9-.3-.5-.1-1.2.4-1.6.6-.3.8-1.2.5-1.9-.3-.8-.1-1.7.5-2 .6-.4.8-1.3.5-2-.3-.8-.1-1.7.4-2s.7-1.7.4-3.1c-.2-1.4 0-2.5.7-2.5.5 0 .8-.7.5-1.5s-.2-2 .2-2.7c.5-.7.7-2.3.5-3.6-.1-1.2.2-2.2.7-2.2.6 0 .8-.8.5-1.9-.3-1 0-2.2.6-2.5.5-.4.8-1.3.4-2.1-.3-.8-.2-2.3.2-3.3.5-.9.7-2.7.6-4-.1-1.2.3-2.2.9-2.2s.9-.4.5-.9c-.3-.5.2-1.7 1.1-2.5.8-.9 1.2-1.6.8-1.6-.3 0-.1-.6.5-1.4.6-.7.8-2.6.5-4.3s.1-4.5 1-6.7c.9-2.1 1.6-4.9 1.6-6.2s.4-2.4.9-2.4c.4 0 .6-1.1.3-2.5-.2-1.4 0-3.1.6-3.8s.9-2.2.6-3.4c-.3-1.1-.1-2.4.4-2.7.6-.3.8-1.5.5-2.6-.3-1.2 0-2 .6-2 .7 0 1-.4.7-.8-.5-.9 3.4-14.2 4.4-15.2.3-.3.6-1.9.8-3.5.2-1.7.7-3.1 1.2-3.3s.7-.9.4-1.7c-.3-.7-.1-1.6.4-1.9.6-.3.8-1.5.5-2.6s0-2 .6-2c.5 0 .8-.7.5-1.5s-.2-2 .2-2.7.9-2.1.9-3.1c.1-1 .6-2.2 1.1-2.5.5-.4 1.1-2.5 1.3-4.7s.6-4.5.9-5c.4-.6.5-1.7.4-2.5-.1-.9.7-2.6 1.8-3.8 1.4-1.5 1.9-2.9 1.4-4.6-.3-1.3-.1-2.7.4-3 .6-.3.8-1.5.5-2.6-.3-1.2 0-2 .6-2 .7 0 1-.4.7-.9-.4-.5-.1-2.2.6-3.8.6-1.5 1-3.4.9-4.1-.1-.6.3-1.2.9-1.2s.8-.4.5-1c-.6-1 4.1-15.9 5.5-17.4.5-.5.6-1.5.3-2.2-.3-.8 0-1.4.6-1.4s.8-.7.5-1.5c-.4-.8-.2-1.5.2-1.5.5 0 1-1.4 1.1-3.2.1-1.7.6-3.4 1-3.7.5-.3.9-1.9 1-3.5s.7-3.2 1.3-3.6.8-1.5.4-2.4c-.4-1-.2-2.1.5-2.5.6-.4 1.4-1.8 1.6-3.2.3-1.3.8-3.9 1.1-5.7.3-1.7 1-3.2 1.5-3.2s.9-.9.9-2 .5-2 1.1-2c.7 0 .9-1 .5-2.7-.8-2.8 4-18.3 5.6-18.3.5 0 .6-.5.3-1-.3-.6-.2-1 .3-1 .6 0 .9-.6.9-1.3-.1-2 2.4-7.7 3.5-7.7.5 0 .6-.5.3-1-.3-.6-.1-1 .4-1 .6 0 1-.3.9-.8-.4-1.5 2.4-8.2 3.4-8.2.6 0 .9-.3.6-.6-.5-.4.3-3.3 3.8-13.4.3-.8.6-1.7.7-2 0-.3.8-1.3 1.7-2.2.9-1 2.4-4.4 3.4-7.5 2.5-7.9 5.7-15.3 6.6-15.3.5 0 1.1-1.8 1.5-4s1.4-4.8 2.3-5.7c1-.9 1.6-1.9 1.5-2.2-.5-1.3 1-5.1 1.9-5.1.5 0 .6-.5.3-1-.3-.6-.2-1 .3-1 .6 0 .9-.6.9-1.3-.1-2 2.4-7.7 3.5-7.7.5 0 .6-.5.3-1-.3-.6-.1-1 .4-1 .6 0 1-.3.9-.8-.5-1.3 3.3-10.2 4.3-10.2.6 0 .7-.5.4-1-.3-.6-.2-1 .3-1s.9-.6.9-1.3c0-2.1 4.6-11.7 5.5-11.7.5 0 .6-.5.3-1-.3-.6-.1-1 .5-1s.8-.5.5-1c-.3-.6-.1-1 .5-1s.8-.5.5-1c-.3-.6-.1-1 .6-1s1-.3.6-.6c-.7-.7 5-12.6 6.5-13.5.5-.3.9-.9.9-1.3-.3-2 .1-2.6 1.6-2.6.9 0 1.3-.3 1-.6-.7-.8 4.9-11.5 6.7-12.6.6-.4.7-.8.3-.8-.5 0 .7-2.2 2.7-4.9s3.6-5.3 3.6-5.9 1-1.8 2.2-2.6c1.2-.9 1.9-1.6 1.5-1.6-1 0 3.9-8.8 6.3-11.5 1-1.1 3.4-5.2 5.4-9.2 1.9-3.9 4-7.4 4.6-7.8.5-.3 1.9-2.6 3-5s3.1-5.2 4.5-6.3c1.3-1.1 2.1-2.2 1.8-2.6-.3-.3-.1-.6.5-.6.7 0 1.1-.3 1-.8-.5-1.9 1.5-5.3 2.8-4.8.8.3 1.3.2.9-.3-.3-.5.1-1.6.9-2.4s1.2-1.7.9-2.1c-.4-.3-.1-.6.6-.6s1-.4.7-.9c-.3-.4.9-2.6 2.7-4.7s4.5-5.9 5.9-8.4c1.5-2.5 4.6-6.6 7.1-9.3 2.4-2.6 4.3-4.7 4-4.7-.9 0 1.5-3.2 7.7-10.1 3.6-4 8.1-9.3 10-11.8 8.2-10.9 49.2-52.2 59-59.5 3.6-2.7 7.6-6.2 8.8-7.7 1.3-1.6 3.6-3.6 5-4.3 1.5-.8 6.5-5.1 11.2-9.5 4.6-4.5 9-7.9 9.6-7.7.7.3 1.4-.4 1.7-1.5.3-1 1.6-2.3 2.9-2.8 1.2-.5 3.6-2.3 5.2-4 1.7-1.7 3.5-3.1 4-3.1.6 0 3.1-1.9 5.6-4.1 2.5-2.3 6.4-5 8.7-6.1 2.4-1.1 4.3-2.4 4.3-2.9s.9-.9 1.9-.9c1.1 0 3.7-1.6 5.7-3.6 2.6-2.4 4.5-3.4 6-3.1 1.4.2 2.1-.1 2-1.1-.1-.8 1.6-2 3.9-2.8 2.1-.8 4.2-1.9 4.6-2.6.4-.6 1.8-.9 3.2-.6 1.5.3 2.5.1 2.4-.5-.3-1.3 9.8-7.3 15.9-9.5 2.7-.9 4.9-2.1 4.9-2.7 0-.5 1.6-1.2 3.5-1.6s3.6-1.2 3.8-1.8c.4-1.2 6.4-.3 7.3 1.2.7 1-19.4 21.7-21.1 21.7-.6 0-.8.4-.5 1 .3.5-.1 1-1 1s-1.3.4-1 1c.3.5-.1 1-1 1s-1.3.4-1 1c.3.5-.2 1-1.2 1s-2.5.9-3.3 2-2.1 2-2.9 2-1.2.3-.8.6c.3.4-.1 1.3-.9 2.1s-1.2 1.9-.9 2.4c.4.5-.1.9-1 .9s-1.3.4-1 1c.3.5-.1 1-1 1s-1.3.4-1 1c.3.5-.1 1-1 1s-1.3.4-1 1c.3.5-.1 1-1 1s-1.3.4-1 1c.3.5-.1 1-1 1s-1.3.4-1 1c.3.5-.2 1-1.1 1-1 0-1.5.3-1.1.6.3.4-.1 1.3-.9 2.1s-1.2 1.9-.9 2.4c.4.5-.1.9-1 .9s-1.3.4-1 1c.3.5-.1 1-1 1s-1.3.4-1 1c.3.5-.1 1-1 1s-1.3.4-1 1c.3.5-.2 1-1.1 1-1 0-1.5.3-1.1.6.9.9-1.9 3.4-3.7 3.4-.9 0-1.6.8-1.6 2 0 1.1-.7 2-1.6 2-.8 0-1.2.4-.9 1 .3.5-.1 1-1 1s-1.3.4-1 1c.3.5-.1 1-1 1s-1.3.4-1 1c.3.5-.1 1-1 1s-1.3.4-1 1c.3.5-.1 1-1 1s-1.3.4-1 1c.3.5-.1 1-1 1s-1.3.4-1 1c.3.5-.1 1-1 1-1.9 0-4.5 2.3-4.5 4 0 .6-1.6 2.7-3.5 4.6-2 1.9-3.3 3.9-3 4.5.4.5 0 .9-.9.9-.8 0-1.3.8-1.2 1.7.2.9-2.1 4.1-5.1 7-2.9 3-5.1 5.8-4.8 6.3.4.6-.3 1-1.5 1-1.8 0-1.9.3-1 2 .9 1.6.8 2-.6 2-1 0-1.5.3-1.1.6.3.3-1.4 2.6-3.9 5-2.4 2.5-4.2 4.9-3.9 5.5.4.5-.1.9-.9.9-.9 0-1.3.7-1.1 2 .3 1.3-.2 2-1.2 2-.9 0-1.3.3-1 .6.3.4-.7 1.9-2.3 3.4s-3 3.3-3.2 4.1c-.2.7-.9 2-1.6 2.7-.7.8-1 1.8-.7 2.3.4.5-.1.9-1 .9s-1.3.4-1 1c.3.5-.1 1-1 1s-1.3.4-1 1c.3.5-.1 1-1 1s-1.3.4-1 1c.3.5-.2 1-1.1 1-1 0-1.4.3-1.1.6.4.4-.2 1.4-1.3 2.4-1 .9-2 2.3-2.2 3-.2.8-.9 2.1-1.6 2.8-.7.8-1 1.8-.7 2.3.4.5-.1.9-1 .9s-1.3.4-1 1c.3.5-.2 1-1.1 1-1 0-1.4.3-1.1.6.4.4-.2 1.4-1.3 2.4-1 .9-2 2.3-2.2 3-.2.8-.9 2.1-1.6 2.8-.7.8-1 1.8-.7 2.3.4.5-.1.9-1 .9s-1.3.4-1 1c.3.5-.1 1-1 1s-1.3.4-1 1c.3.5.1 1-.4 1-.6 0-1.1.9-1.1 2s-.6 2-1.4 2c-.9 0-1.3.7-1.1 2 .3 1.4-.2 2-1.6 2-1.9 0-2.1.3-2.2 3.7-.1 1-1.4 3-2.9 4.4s-2.8 3.2-3 4-.6 1.6-1 1.9c-.3.3-.8 1.2-1 2s-2 3.2-4.2 5.2c-3 3.1-3.6 4.1-2.7 5.2 1 1.1.8 1.6-.8 2.1-1.9.6-2.8 3.4-2.2 6.7 0 .5-.6.8-1.5.8-.8 0-1.2.4-.9 1 .3.5-.2 1-1.1 1-1 0-1.5.3-1.1.6.3.4 0 1.3-.8 2-.8.8-1.2 2.3-1 3.4.3 1.5-.2 2-1.9 2-1.9 0-2.2.4-1.8 2.5.3 1.6 0 2.5-.8 2.5-1 0-1 .3 0 1.5 1.5 1.8-.1 2-1.9.2-1.1-1-1.3-1-.7 0 .4.7.3 1.3-.2 1.3s-.7 1.1-.5 2.5c.3 1.4-.1 3.1-1.1 4-.9.9-1.4 2.1-1.1 2.6.4.5-.1.9-1 .9s-1.3.4-1 1c.3.5.1 1-.4 1-.6 0-1.1.8-1.1 1.8s-.9 2.4-2 3.2-2 2.2-2 3.2-.5 1.8-1.1 1.8c-.5 0-.7.4-.4 1 .3.5.2 1-.4 1-.5 0-.8.8-.7 1.7.2 1-.3 2.4-1.1 3.1-.7.8-1.1 1.8-.8 2.3.4.5 0 .9-.8.9-1 0-1.4.9-1.2 3 .2 2.4-.1 3-1.6 3-1.2 0-1.9.7-1.9 2 0 1.1-.4 2-1 2-.5 0-.9.3-.9.7.3 2-.2 3.3-1.4 3.3q-1.35 0-.9 3c.3 2.2 0 3-1.1 3-1 0-1.4.9-1.2 3s-.2 3-1.2 3c-.8 0-1.2.4-.8.9.3.5-.4 1.2-1.5 1.6-1.2.4-1.7 1.1-1.3 1.8 1.5 2.4 1.1 3.7-1 3.7-1.9 0-2.2.5-2.1 4 .2 4.2-.3 4.8-2.5 2.7-1.1-1-1.1-.8-.2 1 1 1.9.9 2.3-.3 2.3-.9 0-1.3.6-1 1.5.3.8-.1 2.1-.9 3-.9.8-1.4 2.4-1.2 3.5.2 1.2-.3 2.1-1.6 2.5-1.2.4-1.9 1.5-1.9 3 0 1.3-.4 2.5-.9 2.7-.5.1-1.1 1-1.3 1.8s-.6 1.8-1 2.1c-.5.3-.9 1.7-1 3.2s-.8 2.7-1.5 2.7c-.6 0-1 .9-.8 2 .3 1.3-.2 2-1.2 2-.9 0-1.3.3-1 .6.4.4-.3 1.5-1.5 2.5-1.6 1.4-1.8 2.2-1 3.2.9 1 .6 1.7-.8 2.7-1.2.8-2 2.6-2 4.2 0 2.2-.5 2.8-2.1 2.8-1.1 0-1.7.4-1.4 1 1.3 2.1 1.4 5 .1 5-.7 0-1.1 1.2-1 3 .1 1.9-.3 3-1.1 3s-1.2.8-1 2c.3 1.4-.2 2-1.4 2-1.3 0-1.8 1-2 4.2-.1 2.4-.6 4.5-1.2 4.6-.6.3-.5.9.2 1.8.9 1.1.8 1.4-.5 1.4-1 0-1.5.4-1.2.9.4.5.2 1.1-.4 1.3-.5.1-1.1 1.5-1.2 3-.1 1.6-.7 2.8-1.3 2.8-.7 0-1.1 1.6-1 3.7.1 2.9-.5 4.4-2.6 6.4-2 1.8-2.5 2.9-1.8 4.1.7 1.3.4 1.8-1.1 2.3-1.1.4-2 1.5-2 2.6s-.6 2.7-1.4 3.4c-.7.8-1.2 2.8-1.1 4.5.2 1.8-.2 3-.9 3s-1.1 1.2-1 3c.1 1.9-.3 3-1.1 3s-1.2.8-1 1.8c.2 1.1-.5 2.5-1.6 3.3-1.1.7-1.9 2.5-1.9 4s-.6 2.9-1.2 3.2c-1 .3-1 .7.1 2 1.2 1.5 1.1 1.7-.3 1.7-1 0-1.4.4-1.1 1 .3.5 0 1-.7 1-1 0-1.3 1-1 3.5.3 2.2-.1 4-1.1 4.9-.8.8-1.3 2.9-1.2 4.6.2 2.1-.2 3-1.2 3-.8 0-1.1.4-.8 1 .3.5-.1 1-.9 1-1 0-1.3.6-.9 1.6.3.9 0 2-.7 2.4-1.1.7-1.1 1.4-.2 3.4 1 2.3.9 2.6-.9 2.6-1.6 0-1.8.3-.9 1.9.6 1.2.6 2.1 0 2.3-.5.2-1 2.9-1.1 6-.2 3.9-.7 5.8-1.5 5.8-.7 0-1.1.8-.9 2s-.2 2-1 2c-.9 0-1.2.8-.9 2.5.2 1.5-.2 3.2-.9 4-.8.8-1.3 3.1-1.2 5.4.1 2.9-.2 4.1-1.2 4.1-.8 0-1.1.4-.8 1 .3.5.1 1-.4 1-.6 0-1.1 1.3-1.1 3 0 1.6-.5 3-1.1 3-.5 0-.7.4-.4 1 .3.5-.1 1-1 1-1.3 0-1.4.4-.5 2 .7 1.4.7 2 0 2-.5 0-1 1.3-1 3 0 1.6-.5 3-1.1 3-.5 0-.7.4-.4 1 .3.5-.1 1-1 1s-1.3.5-.9 1.1c1.3 2.2 1.2 6.9-.2 6.9-.7 0-1.1.8-.9 1.8.2 1.1-.5 2.5-1.6 3.3-1.9 1.4-2.5 4-1.2 5.3 1.4 1.3 1 5.6-.4 5.6-.8 0-1.1.4-.8 1 .3.5.1 1-.4 1-.6 0-1.1 1.5-1.1 3.4s-.6 3.6-1.3 3.9c-.9.3-1.3 2-1.2 4.6.1 2.5-.2 4.1-1 4.1-.6 0-1 1.5-1 3.7.1 2.1-.3 4.3-1 4.9-.6.7-1.1 3.5-1 6.3.1 4.1-.2 5.2-1.7 5.7-1.4.4-1.8 1.6-1.8 4.9 0 2.6-.5 4.5-1.2 4.8-1 .3-1 .7-.1 1.7s.8 1.6-.3 2.7c-.8.8-1.2 1.9-.9 2.4.4.5 0 .9-.7.9-.9 0-1.3 1.6-1.1 6 .1 4.1-.3 6-1.1 6s-1.2 1.6-1.1 4.7c.1 4.5-1.2 7.3-3.3 7.3-.4 0-.7 1.3-.4 3 .3 1.9 0 3-.8 3s-1 .8-.6 2.2c1.3 4.3 1.3 5.3 0 6.5-.7.7-1.6 1.3-2.1 1.3-.4 0-.6 2.2-.5 5 .3 3.3 0 5-.7 5-.9 0-.9.5-.1 2 .8 1.6.8 2-.3 2s-1.4 1.3-1.1 6c.3 4.5.1 6-.9 6-.9 0-1.2 1.1-.9 3.5.3 2.1 0 3.5-.7 3.5-.6 0-1.1 1.1-1.1 2.4s-.5 2.6-1.2 2.8c-.7.3-.8.9-.2 1.9 1.4 2.2 1.2 19.2-.3 20.7-.7.8-1.1 1.8-.8 2.3.4.5.1.9-.4.9-.7 0-1.1 3.3-1.1 9 0 6-.4 9-1.1 9s-.9.9-.5 2.2c1.6 5.3 1.5 5.8-.5 5.8-1.7 0-1.8.3-.9 2 .8 1.5.8 2-.2 2s-1.3 2.2-1.1 8.6c.1 5.8-.2 9.1-1.1 9.9-.7.7-1.2 3.7-1.1 7.1.1 5.5-1 8.4-3.2 8.4-.5 0-.7 1.6-.5 3.5.3 2.1 0 3.5-.7 3.5-1.2 0-1.5 6.2-.4 7.4 1.2 1.2 1.1 5.6-.2 5.6-.7 0-1.1 1.8-1 5 .1 3-.3 5-.9 5-.8 0-1 7.9-.8 26 .2 19.4 0 26-.9 26-.7 0-.9.8-.4 2.2 1.3 4.6 1.1 7.3-.8 9-1.1 1-1.6 2.2-1.1 2.9.4.7.9 10.4 1.1 21.6.2 16.4 0 20.3-1 20.3-1.1 0-1.3 2.7-1 13.5.3 11.3.2 13.8-1.2 15.1-.8.9-1.3 1.9-1 2.4s-.1 1-.7 1.3c-.7.3 0 1 1.7 1.6 1.6.7 4.5 1.9 6.3 2.8 2 1 3.7 1.2 4 .7.4-.5 3.2-1.6 6.2-2.3 3-.8 12.5-3.5 21-6.2 8.5-2.6 20.2-6.2 26-7.9 20.4-6.1 32.7-10.3 46-15.7 21.2-8.7 43.7-18.2 51.7-21.9 4-1.9 7.5-3.4 7.7-3.4.3 0 8.1-3.7 17.4-8.3 16.3-7.9 23.8-12.2 37.8-21.5 3.5-2.3 6.9-4.2 7.3-4.2.5 0 2.2-1.1 3.8-2.3 1.5-1.3 6-4.3 9.8-6.6 3.9-2.3 9.1-5.7 11.7-7.4 2.6-1.8 7.3-4.8 10.5-6.7 21.2-13 33.8-22.1 47.8-34.9 2.2-2 8.3-7.2 13.5-11.5 13.3-11 26-22.5 36-32.6 9.4-9.4 33.7-35.2 39.1-41.5 1.9-2.2 4.6-5.3 6.1-7 1.6-1.6 2.8-3.4 2.8-3.9 0-1 9.2-12.2 11.7-14.2.7-.6 1-1.3.8-1.6-.3-.3 1.8-3.1 4.6-6.4 2.9-3.2 6.7-7.6 8.5-9.8 1.9-2.1 3.4-4.2 3.4-4.7 0-.4 2.3-3.4 5.1-6.6s5.6-6.9 6.2-8.3 2.6-4.1 4.4-6 3.3-4.2 3.3-5.1 1.7-3.6 3.9-6c2.1-2.4 4.1-5.3 4.5-6.4.3-1.1 2.4-4 4.6-6.5s4-5.3 4-6.2 1.7-3.5 3.8-5.6 3.6-4.4 3.5-4.9c-.4-1 5.2-8.4 6.8-9.1.4-.2.5-1.2.2-2.3-.4-1.4 0-2.2 1.4-2.5 1.4-.4 1.9-1.2 1.6-2.7-.2-1.4.7-3.3 2.6-5.3 1.6-1.8 2.7-3.5 2.4-3.8-.4-.3-.1-.6.5-.6s.9-.6.6-1.3c-.2-.7.4-2.2 1.6-3.2 1.1-1 2-2.4 2-3.2 0-.7.5-1.3 1.1-1.3s.8-.7.5-1.5c-.3-.9.1-1.8.9-2.1.8-.4 1.5-1.7 1.5-3 0-1.5.6-2.4 1.6-2.4.8 0 1.3-.4 1-.8-.3-.5.1-2 .9-3.5s1.1-2.7.7-2.7c-.4-.1.3-.9 1.6-2 1.4-1.1 2-2.4 1.6-3.1s.1-1.8 1.2-2.6c1.3-1 1.8-2.3 1.5-4.8-.1-2 .2-3.5.8-3.5s1.1-.8 1.1-1.9c0-1 .7-2.4 1.5-3.1.9-.7 1.4-1.9 1.1-2.7-.3-.7.1-1.3.9-1.3s1.4-.3 1.4-.8c-.5-3.1.3-6.2 1.7-6.2.8 0 1.3-.4.9-.9-.3-.5.1-1.5.8-2.3.8-.7 1.2-1.9.9-2.6-.2-.6.1-1.2.7-1.2s.8-.6.5-1.4-.1-1.7.5-2c.6-.4.8-1.3.4-2.1-.3-.8 0-1.5.7-1.5.6 0 .9-.4.6-.9-.3-.4.1-1.7.9-2.7s1.5-2.7 1.5-3.7 1.1-2.9 2.4-4.2c1.6-1.6 2.2-3.1 1.9-4.4-.3-1.4.1-2.3 1.1-2.7s1.6-1.8 1.6-3.9c0-1.9.5-3.7 1-4 .6-.4.8-1 .5-1.4-.2-.5.5-1.7 1.6-2.7s1.7-2.4 1.5-3.1c-.3-.7 0-1.3.7-1.3s1.4-1.2 1.5-2.7.9-3.7 1.7-4.9c.8-1.3 1.5-3.5 1.5-4.9s.4-2.5 1-2.5c.5 0 .7-.6.4-1.4s.3-2 1.4-2.7c1.2-.8 1.7-2 1.4-3.4-.3-1.6.2-2.4 1.6-2.7 1.5-.4 1.9-1.2 1.5-3.2-.3-1.4-.1-3.2.4-3.9.6-.6 1.3-2.4 1.7-4 .3-1.5 1.1-2.7 1.7-2.7.7 0 .8-1.1.4-2.9-.5-2.2-.1-3.5 1.2-4.8q1.8-1.8 1.5-5.1c-.2-1.9 0-4.1.4-5 .4-1 .6-2 .6-2.5-.1-.4.2-.7.6-.7 1.1 0 3.5-8.7 2.7-10-.7-1.2 1.3-7 2.4-7 .3 0 .5-2 .3-4.5-.3-3 0-4.5.8-4.5.7 0 1-.7.6-1.5-.3-.8-.1-1.5.4-1.5.6 0 1-1.8 1-3.9 0-2.2.5-4.3 1-4.6.6-.4.8-1.5.5-2.5-.3-1.1 0-2 1-2.4.9-.3 1.4-1 1-1.5-.3-.5-.1-1.2.3-1.5.5-.3.7-1.7.4-3.1-.2-1.5 0-2.5.7-2.5s.9-.9.5-2.4c-.3-1.4-.2-3.1.2-3.8.5-.7.7-2.3.5-3.6-.1-1.2.2-2.2.7-2.2s.7-1.1.4-2.5c-.2-1.4 0-2.5.6-2.5.7 0 .9-1.4.5-3.5-.4-2.2-.2-3.5.5-3.5.6 0 .9-.7.6-1.5-.4-.8-.3-2.3.1-3.3.4-.9.7-2.9.6-4.4-.1-1.4.3-2.9.8-3.3.6-.3.8-1.7.5-3.1-.3-1.3-.3-3.2.1-4.1.4-1 .7-3 .6-4.5s.1-3.3.5-4c.9-1.4 1.3-6.3 1.3-14.6 0-2.8.3-5.2.8-5.2.4 0 .8-7.1.9-15.7.4-91 .7-114.3 1.3-114.3.4 0 .7-25.8.7-57.3.1-168.7.5-252.7 1.4-252.7 1.5 0 1.2-7.8-.2-8.3-.7-.3-.8-.6-.2-.6.7-.1.9-11 .6-36.9-.2-21 0-40.5.6-45.5.5-4.9.8-9.7.5-10.8-.5-1.9-2-1.9-62.5-1.9-41 0-61.7.3-61.3 1 .9 1.5-12.8 1.3-14.3-.2-.9-.9-1.2-.9-1.2 0"/>
  </g>

  <!-- Blue leaf group (left side) — reveals bottom to top, delayed -->
  <g mask="url(#mask-blue)">
    <path fill="#000040" d="M1033.3 1345.7c10.3.2 27.1.2 37.5 0 10.3-.1 1.8-.2-18.8-.2s-29.1.1-18.7.2"/>
    <path fill="#000040" fill-opacity=".9" d="M1013.4 1545c0 14.6.2 20.5.3 13.2.2-7.2.2-19.2 0-26.5-.1-7.2-.3-1.3-.3 13.3m0 56c0 15.7.2 22.1.3 14.2.2-7.8.2-20.6 0-28.5-.1-7.8-.3-1.4-.3 14.3"/>
    <path fill="#0040BF" d="M1015.7 1352.7c-.4 3.8-1 117.9-1.3 253.8l-.6 247 3.6 31.5c7.2 61.3 10.3 78.8 23.1 129.3 7.2 28.6 9.5 36 16.5 53.5 4.4 11.2 8.3 21.6 8.7 23.2.3 1.7 1 3 1.4 3 1.2 0 1.5.7 9.5 23 3.7 10.2 8.4 22 10.5 26.2 2.2 4.3 3.9 8.4 3.9 9.3 0 .8.4 1.5.9 1.5s1.2 1.3 1.6 2.9c.3 1.6 1.3 3.5 2.1 4.2.8.6 1.4 2.2 1.4 3.4s.7 2.8 1.5 3.5 1.5 2 1.5 2.9c0 1 1.1 3.3 2.5 5.1 1.4 1.9 3.1 5.3 3.7 7.5s1.9 4.9 2.9 6c.9 1.1 3.1 4.9 4.9 8.5s3.9 7.2 4.6 8.1c.8.9 2.9 4.5 4.7 8 5.4 10.5 12.9 23.2 15.9 26.7 1.5 1.8 2.8 3.8 2.8 4.5s1.8 3.4 4 6.2c2.2 2.7 4 5.5 4 6.1 0 .5 2 3.4 4.5 6.3s4.5 5.8 4.5 6.5 2.6 4.2 5.8 7.7c3.3 3.5 6.5 7.6 7.3 9 .8 1.5 3.8 5.4 6.7 8.7s6.5 7.8 8 10 9.1 10.9 17 19.2c7.9 8.4 15.4 16.9 16.7 19 3.5 5.6 14.1 16.6 18.3 19.1 2.1 1.3 8.3 6.7 13.9 12.1s10.7 9.8 11.3 9.8 5.4 4 10.6 9c5.3 4.9 10 9 10.5 9s4.3 3.1 8.5 7c4.1 3.8 7.9 7 8.4 7s4.4 3.2 8.6 7c4.3 3.8 8.3 7 9.1 7 .7 0 2.9 1.6 4.9 3.5 1.9 1.9 4.1 3.5 4.9 3.5s3.2 1.5 5.2 3.4c2.1 1.8 5 3.6 6.6 4 1.5.3 2.7 1.1 2.7 1.6 0 .6.7 1 1.5 1s3.2 1.6 5.4 3.5c2.1 1.9 4.6 3.5 5.5 3.5s2.5.9 3.6 2 2.6 2 3.4 2 3.9 2.2 6.9 5c3 2.7 6 5 6.6 5s2.8 1.5 4.9 3.4 5 3.8 6.6 4.2c1.5.3 3 1.3 3.3 2 .3.8 1.4 1.4 2.5 1.4s3.1.9 4.5 2 3.1 2 3.8 2 1.8.7 2.5 1.5 2.3 1.5 3.7 1.5c1.3 0 2.6.6 2.9 1.4s1.8 1.8 3.4 2.1 3.4 1.3 4.1 2.1c.6.8 1.9 1.4 2.9 1.4.9 0 2.7.9 4 2s3.2 2 4.2 2 2.1.7 2.4 1.5c.4.8 1.5 1.5 2.6 1.5s3.1.9 4.5 2 3.4 2 4.5 2c1 0 2.1.7 2.4 1.5.4.8 1.4 1.5 2.4 1.5.9 0 2.9.9 4.3 2s3.2 2 4 2 2 .7 2.7 1.5 2.1 1.5 3.1 1.5c.9 0 2.5.7 3.4 1.6.8.9 3.3 1.8 5.5 2.1s4.5 1.2 5.1 1.9c.6.8 2 1.4 3 1.4.9 0 2.5.7 3.4 1.6.8.9 3.3 1.8 5.5 2.1s4.5 1.2 5.1 1.9c.6.8 1.9 1.4 2.8 1.4s3 .9 4.6 2c1.7 1.1 4.2 2 5.7 2s3.3.7 4.2 1.5c.8.8 2.1 1.5 2.8 1.5s2.7.9 4.3 2c1.7 1.1 4.2 2 5.7 2s3.3.7 4.2 1.5c.8.8 2.6 1.5 4 1.5s4.3.9 6.3 2c2.1 1.1 5.7 2 8 2 2.4 0 4.8.6 5.7 1.5.8.9 3.3 1.5 5.8 1.5 2.4 0 6 .9 8.1 2 2 1.1 5.3 2 7.3 2s4.8.6 6.2 1.4c1.5.8 4.3 1.7 6.3 2.1 2.1.3 4.2 1.2 4.9 2s2.7 1.5 4.4 1.5c1.8 0 4.1.7 5.2 1.5 1.2.9 4.3 1.4 8.8 1.5h6.9l-.7-19.7c-.4-12.3-1.1-20.2-1.8-21s-1.4-7.3-1.8-15.6c-.3-7.8-1.1-15.1-1.7-16.2-.5-1.1-1.3-7.5-1.6-14.3-.3-7.3-1-12.9-1.7-13.7s-1.5-5.4-1.7-10.2c-.3-4.9-1.2-10-1.9-11.5-.8-1.5-1.4-5.7-1.4-9.5 0-4.1-.6-7.9-1.5-9.7-1-1.8-1.7-7.1-2.1-14.5-.3-6.4-1.2-13.3-2-15.4s-1.4-7.3-1.4-12c0-4.9-.6-9.2-1.3-10.7-.8-1.4-1.7-7.3-2-13.1-.4-6.3-1.3-11.8-2.2-13.5-.8-1.6-1.5-5-1.5-7.5 0-2.9-.6-5.1-1.5-5.9-.9-.7-1.5-2.9-1.5-5.4 0-2.2-.7-5.5-1.6-7.1-.9-1.7-1.8-5.5-2.1-8.5s-1.2-6.4-1.9-7.5c-.8-1.1-1.4-4.4-1.4-7.5 0-3-.7-6.8-1.5-8.4-.9-1.6-1.8-7-2.2-12-.3-4.9-1.2-10.2-2-11.6-.7-1.4-1.3-5.6-1.3-9.3s-.6-8-1.4-9.5c-.7-1.5-1.6-5-1.9-7.7-.3-2.8-1.3-6.4-2.1-8-.9-1.7-1.6-4.8-1.6-7.1 0-2.2-.7-4.9-1.5-6-.8-1-1.5-3.1-1.5-4.7 0-1.5-.9-4.4-2-6.4-1.1-2.1-2-5.6-2-7.8s-.7-4.9-1.5-5.9c-.8-1.1-1.5-4-1.5-6.6 0-2.5-.7-5.5-1.5-6.7s-1.8-4.9-2.2-8.2c-.3-3.4-1.2-6.6-1.9-7.2-.8-.6-1.4-2.9-1.4-5.1 0-2.5-.5-4.1-1.5-4.4-.8-.4-1.5-1.4-1.5-2.3s-.9-3-2-4.6c-1.1-1.7-2-4.4-2-6.1s-.7-3.7-1.5-4.4c-.9-.7-1.5-2.9-1.5-5.1 0-2.1-.7-4.5-1.6-5.4s-1.9-3.6-2.2-6c-.2-2.5-1.1-5-1.8-5.6-.8-.7-1.4-3.1-1.4-5.8 0-2.6-.7-5.6-1.5-6.8s-1.8-4.9-2.2-8.2c-.3-3.4-1.2-6.6-1.9-7.2-.8-.6-1.4-2.8-1.4-4.9s-.6-4.3-1.4-4.9c-.7-.6-1.6-3.9-2-7.3-.3-3.4-1.1-6.5-1.7-6.9-.6-.3-1.4-2.8-1.6-5.4-.3-2.6-1.2-4.9-1.9-5.2-.8-.3-1.4-1.4-1.4-2.6 0-1.1-.7-2.8-1.6-3.8s-1.8-3.7-2.1-6.1-1.2-4.7-1.9-5.1c-.8-.4-1.4-1.8-1.4-3.1s-.6-2.9-1.4-3.5c-.8-.7-1.8-3.1-2.1-5.4-.4-2.3-1.4-5.1-2.1-6.2-.8-1.1-1.4-3.4-1.4-5.1s-.7-3.7-1.5-4.4-1.5-2-1.5-3c0-.9-.9-2.9-2-4.3s-2-3.6-2-5c0-1.3-.7-3-1.5-3.7s-1.5-2.5-1.5-4.1c0-1.5-.7-3.5-1.6-4.4-.9-.8-1.8-3.5-2.1-5.8s-1.2-4.6-1.9-5c-.8-.4-1.4-1.8-1.4-3.1s-.7-2.9-1.5-3.6c-.7-.6-1.7-3.1-2.1-5.5-.3-2.5-1.2-5-2-5.6s-1.4-2.2-1.4-3.4-.6-2.8-1.4-3.4c-.7-.6-1.6-3-1.9-5.2s-1.2-4.8-2.1-5.8-1.6-2.7-1.6-3.8c0-1.2-.7-2.3-1.5-2.7-.8-.3-1.5-1.5-1.5-2.7 0-1.1-.9-3.2-2-4.6s-2-3.4-2-4.3c0-1-.7-2.3-1.5-3s-1.5-2-1.5-3-.6-2.3-1.4-2.9c-.8-.7-1.8-2.5-2.1-4.1s-1.3-3.4-2.1-4.1c-.8-.6-1.4-2.2-1.4-3.4 0-1.3-.7-2.5-1.5-2.9-.8-.3-1.5-1.4-1.5-2.4 0-1.1-.9-3.1-2-4.5s-2-3.5-2-4.6c0-1.2-.7-2.4-1.5-2.7-.8-.4-1.5-1.5-1.5-2.6s-.9-3.1-2-4.5-2-3.4-2-4.3c0-1-.7-2.3-1.5-3s-1.5-2.3-1.5-3.5c0-1.3-.6-2.5-1.4-2.8s-1.7-1.9-2.1-3.6c-.3-1.6-1.3-3.5-2.1-4.2-.8-.6-1.4-2.2-1.4-3.6 0-1.3-.7-2.6-1.5-2.9-.8-.4-1.5-1.4-1.5-2.4 0-.9-.9-2.9-2-4.3s-2-3.2-2-4-.7-1.7-1.5-2.1c-.8-.3-1.5-1-1.5-1.7 0-.6-.9-2.2-2-3.6s-2-3.4-2-4.3c0-1-.7-2-1.5-2.4-.8-.3-1.5-1.4-1.5-2.5 0-1-.6-2.1-1.4-2.4s-1.7-1.9-2.1-3.6c-.3-1.6-1.3-3.5-2.1-4.2-.8-.6-1.4-1.7-1.4-2.4s-.6-1.8-1.4-2.4c-.8-.7-1.7-2.3-2.1-3.8-.3-1.4-1.3-3.2-2-4-.8-.8-1.5-2.3-1.5-3.2 0-1-.7-2.4-1.5-3.1s-1.5-2-1.5-3c0-.9-.9-2.7-2-4s-2-2.9-2-3.6-2.2-3.9-5-7.1c-2.7-3.2-5-6.4-5-7.1 0-.6-.5-1.2-1-1.2-.6 0-1.3-.8-1.7-1.8-.3-.9-1.3-2.5-2.1-3.5-1.7-1.9-3.6-5.1-5.1-8.5-.6-1.2-1.5-2.2-2-2.2s-1.3-1-1.7-2.3c-.6-1.9-4-6.4-8.9-11.8-.8-.9-1.5-1.9-1.5-2.4 0-.4-1.6-2.5-3.5-4.6-1.9-2.2-3.5-4.5-3.5-5.3s-.7-1.6-1.5-2c-.8-.3-1.5-1.1-1.5-1.9 0-.7-1.6-2.8-3.5-4.7s-3.5-3.9-3.5-4.5c0-.7-.9-2-2-3s-2-2.3-2-3c0-.6-1.3-2.4-3-4-1.6-1.6-3-3.4-3-4.2 0-.7-.9-1.7-2-2.3s-2-1.7-2-2.4-5.1-6.8-11.2-13.4c-6.2-6.7-14.9-16.2-19.3-21.2s-13.4-14.8-19.9-21.8c-16-17.1-17.6-19.3-17.6-25.4 0-3.3.4-4.8 1.3-4.8.8 0 6.5 4.8 12.8 10.8 6.3 5.9 12.8 11.6 14.4 12.7 1.7 1 5.3 4 8 6.5 2.8 2.6 5.9 5.2 7 5.8 9.5 5.1 104.3 99.6 113.2 112.8 1.5 2.1 5.1 6.6 8 9.8 2.9 3.3 5.3 6.4 5.3 7.1 0 .6 2.9 4.2 6.3 8 3.5 3.9 7.1 8.4 8 10.2.9 1.7 3.5 5.2 5.7 7.8 2.2 2.5 4 5 4 5.4 0 .5 2.3 3.7 5 7.1 2.8 3.4 5 6.7 5 7.2 0 .6 1.2 2.4 2.6 4.2 3.7 4.6 11.6 15.4 13.9 19.1 1.1 1.7 3.2 4.6 4.8 6.4 1.5 1.8 2.7 4 2.7 5s.9 2.6 2 3.6 2 2.6 2 3.6c0 .9 1.6 3.6 3.5 5.9s3.5 4.8 3.5 5.5.7 1.8 1.5 2.5 1.5 2 1.5 3 1.6 3.7 3.5 6 3.5 5 3.5 6 .7 2 1.5 2.4c.8.3 1.5 1.6 1.5 2.9s.9 3.2 2 4.2 2 2.6 2 3.6c0 .9 1.6 3.6 3.5 5.9s3.5 5 3.5 6 .7 2 1.5 2.4c.8.3 1.5 1.6 1.5 2.9 0 1.4.6 3 1.4 3.6.8.7 1.8 2.5 2.1 4.1s1.3 3.1 2.1 3.4 1.4 1.6 1.4 2.9c0 1.4.7 3 1.5 3.7s1.5 2 1.5 3c0 .9.9 2.7 2 4s2 3.3 2 4.5c0 1.3.7 2.5 1.5 2.9.8.3 1.5 1.5 1.5 2.7 0 1.1.9 3.2 2 4.6s2 3.4 2 4.3c0 1 .7 2 1.5 2.4.8.3 1.5 1.6 1.5 2.9 0 1.4.6 3 1.4 3.6.8.7 1.7 2.3 2.1 3.8.3 1.4 1.3 3.2 2 4 .8.8 1.5 2.5 1.5 3.8 0 1.2.7 2.5 1.5 2.9.8.3 1.5 1.8 1.5 3.3 0 1.6.9 4.5 2 6.6 1.1 2 2 4.3 2 5.1 0 .7.7 1.9 1.5 2.6s1.5 2 1.5 3c0 .9.9 2.7 2 4s2 3.1 2 4c0 1 .7 2.3 1.5 3s1.5 2.9 1.5 5 .6 4.3 1.4 4.9c.8.7 1.8 3.1 2.1 5.4.4 2.3 1.4 5.1 2.1 6.2.8 1.1 1.4 3.4 1.4 5.1s.7 3.7 1.5 4.4 1.5 2.2 1.5 3.5c0 1.2.9 3 2 4s2 2.8 2 4c0 1.3.7 2.5 1.5 2.9.8.3 1.5 1.6 1.5 2.9 0 1.4.7 3 1.5 3.7s1.7 2.8 2 4.9c.4 2 1.3 4.8 2.1 6.3.8 1.4 1.4 3.9 1.4 5.6 0 1.6.7 3.5 1.5 4.2.7.6 1.7 3.2 2.1 5.8.4 2.5 1.3 5.2 2 6 .8.7 1.4 3.1 1.4 5.1 0 2.2.6 4.4 1.5 5.1.8.7 1.5 2.4 1.5 3.9 0 1.4.9 4.3 2 6.4 1.1 2 2 5 2 6.6s.7 3.4 1.5 4.1 1.5 2.7 1.5 4.4.7 4.2 1.6 5.4c.9 1.3 1.8 5 2.1 8.3.3 3.2 1.2 6.4 1.9 7 .8.7 1.4 3.1 1.4 5.8 0 2.6.6 5.6 1.4 6.7s1.7 4.6 2.1 7.9 1.4 6.9 2.1 8c.8 1.1 1.4 4.5 1.4 8s.6 6.9 1.4 8c.7 1.1 1.6 4.7 1.9 7.9.3 3.3 1.1 6.2 1.8 6.6.6.4 1.4 2.8 1.6 5.4.3 2.5 1.2 5.1 1.9 5.7.8.6 1.4 2.6 1.4 4.3s.7 4.2 1.6 5.5c1 1.4 1.9 5.2 2.2 9.5.2 3.9 1 7.7 1.6 8.5s1.4 5.6 1.7 10.7 1.1 10 1.7 10.7 1.5 4.7 1.8 8.8c.4 4.1 1.3 8.3 2 9.4.8 1.1 1.4 4.5 1.4 8s.6 6.9 1.4 8c.7 1.1 1.6 5.3 1.9 9.3.3 4.1 1.1 8 1.8 8.8s1.4 5.2 1.6 9.7 1 9.8 1.8 11.7 1.6 7 1.8 11.2c.2 4.3 1 8.4 1.6 9.2.8 1 1.5 6.6 1.8 15.8.3 7.9 1 14.9 1.6 15.6s1.3 7 1.7 14 1.2 13.7 1.8 14.8c.6 1.2 1.4 7.7 1.8 14.5s1.2 13 1.7 13.8c.7.7 1.4 8.8 1.7 19 .3 9.7 1.1 18.5 1.7 19.6.5 1.1 1.3 8.2 1.6 15.8.4 8.4 1.1 14.5 1.8 15.3.8.9 1.4 7.9 1.8 19.2.3 9.7 1.1 18.4 1.6 19.2s1.3 10.9 1.6 22.5c.4 12.1 1.2 22.3 1.9 24 .8 2 1.4 18.3 2.1 50 .9 47.2 1.8 63.4 3.2 58.5.4-1.4.8-7.7 1-14 .1-7.5.6-11.4 1.3-11.3 1 .2 1.3-5.2.4-7.2-.3-.6-.3-34.8 0-76 .4-56 .8-74.9 1.7-74.8 1.2.3 1.2-1.4 0-3.5-.6-.8-.1-1.5 1.4-2 1.4-.6 1.8-1.1 1.1-1.6-1.5-.9-.4-3.6 1.3-3 1.4.6 1.5-1.2.2-3.2-1.1-1.8.3-7.3 1.8-6.8 1.3.5 1.5-3.2.2-5.2-1.1-1.8.3-7.3 1.7-6.8s1.6-5.2.3-7.3c-1.1-1.7.3-6.3 1.9-6.3 1 0 1.1-.6.2-3-1.4-4.2-.3-10.1 1.9-9.3 1.3.5 1.3.3.5-1.4-1.5-2.7-.4-9.3 1.4-8.6 1 .3 1.2-.3.7-2.4-1.1-5.7-.7-9.3 1.1-9.3 1.4 0 1.6-2.3.3-3.6-.4-.4-.7-3.6-.7-7.1 0-6.4 1.3-10.8 3-9.8.9.6.8-1.4-.3-3.1-1.1-1.8.3-7.3 1.8-6.8 1.3.5 1.4-2.8.1-5.7-.8-1.9 1-7.2 2.2-6.5 1 .6.9-2.9-.2-6.1-.8-2.4.9-6.7 2.4-5.8 1 .6.8-1.4-.3-3.2-1.1-1.7.3-6.3 1.9-6.3 1 0 1.1-.6.5-2.3-1.2-3.2-.2-8.7 1.4-8.1q2.1.9 0-3.9c-.9-2.1 1-7.1 2.4-6.3 1 .7.9-1.3-.2-3-1.1-1.9.3-7.3 1.8-6.7 1.4.5 1.5-1.3.2-3.4-1-1.5 1-5.6 2.3-4.8.6.4.6-.3.1-1.9-1-2.6.7-5.3 2.5-3.8.4.4.2-.1-.5-1-1.7-2.2-.6-5.9 1.6-5.1 1.2.5 1.3.3.3-1.3-1.3-2.2.3-8 1.9-6.9.9.5.5-4-.5-5.6-.7-1.2.7-3.9 2.2-3.9 1.1 0 1.2-.4.2-1.9-.9-1.5-.9-2.3.1-3.5.7-.9 1.7-1.4 2.1-1.1 1 .6.8-1.5-.3-3.2s.3-6.3 1.8-6.3c1.3 0 1.5-2.3.3-3.5-1.1-1.1.4-5.4 1.7-4.9q2.1.9 0-3.9c-.9-2.1 1.1-7.1 2.4-6.2.9.5.5-4-.5-5.7-.7-1.1 1.5-5 2.6-4.3.9.6.8-1.4-.2-3.1-1.2-1.8.2-5.3 1.9-4.7 1.3.5 1.3.3.3-1.6-.9-1.7-.9-2.6 0-3.7.7-.7 1.6-1.1 2.1-.8s.5-.5 0-1.8c-1.1-3.1-.4-4.8 1.7-4.1 1.5.6 1.5.5.3-1.1-1.3-1.5-1.3-1.9-.1-2.6.8-.5 1.7-.7 2.1-.4.9.5.6-1.7-.4-3.4-.6-.8-.1-1.5 1.4-2 1.4-.6 1.8-1.1 1.1-1.6-1.7-1-.3-3.6 1.6-2.8 1.5.5 1.5.4.3-1.2-1.3-1.5-1.3-1.9-.1-2.6.8-.5 1.7-.7 2.1-.4.9.5.6-1.7-.5-3.4-.5-.9-.1-1.5 1.3-1.9 1.7-.4 1.9-.8.9-2-.9-1.1-.9-1.6.2-2.3.8-.5 1.9-.6 2.5-.2.5.3.4-.2-.4-1.2-1.3-1.5-1.3-1.9-.1-2.6.8-.5 1.9-.6 2.5-.2.5.3.4-.2-.4-1.2-1.3-1.5-1.3-1.9-.1-2.6.8-.5 1.9-.6 2.5-.2.5.3.4-.1-.3-1-1.5-1.9-.6-4.8 1.5-4.8 1.2 0 1.3-.3.4-1.4-.8-1-.8-1.6.2-2.5.8-.6 1.8-.7 2.3-.3.4.4.3 0-.4-.9-1.3-1.7-.7-4.9 1-4.9.5 0 .8-.6.7-1.3-.3-2.8.2-3.6 1.9-3 1.5.6 1.5.5.4-1-1.6-1.8-.7-4.1 1.3-3.3 1.4.5 1.5-1.1.2-3-.8-1.4 1.6-3.7 2.8-2.6.4.4.3-.3-.4-1.5-1.4-2.8-.5-5.4 1.7-4.5 1.4.5 1.5.3.5-.9-1.6-2-.6-5.9 1.4-5.2 1.3.5 1.3.3.2-1.5-1-1.7-1-2.3 0-3.6.7-.9 1.7-1.4 2.1-1.1 1 .6.8-1.5-.3-3.2-1-1.6.2-4.3 2-4.3 1.2 0 1.3-.3.4-1.4-1.4-1.6.3-6.1 1.9-5.1 1 .6.8-1.4-.3-3.2-1-1.6.2-4.3 2.1-4.3 1.2 0 1.3-.3.5-1.1-1.6-1.6-.5-3.9 1.5-3.1 1.4.5 1.5.3.4-1-1-1.2-1-1.7.1-2.7.8-.6 1.8-.7 2.3-.3.4.4.3 0-.4-.9-1.5-2-.6-4.9 1.5-4.9 1.2 0 1.3-.3.3-1.5-1.4-1.7-.4-3.9 1.5-3.1 1.4.5 1.5-1.1.2-3-.7-1.3 1.6-3.8 2.6-2.8.8.8.3-1.8-.6-3.4-.6-.8-.1-1.5 1.4-2 1.4-.6 1.8-1.1 1.1-1.6-1.7-1-.3-3.6 1.6-2.9 1.3.5 1.4.3.5-.7-1.6-1.7-.5-4 1.5-3.2 1.5.5 1.5.4.3-1.2-1.3-1.5-1.3-1.9-.1-2.6.8-.5 1.9-.6 2.5-.2.5.3.4-.2-.4-1.2-1.3-1.5-1.3-1.9-.1-2.6.8-.5 1.9-.6 2.5-.2.5.3.4-.2-.4-1.2-1.3-1.5-1.3-1.9-.1-2.6.8-.5 1.9-.6 2.5-.3.5.3.5 0-.2-.7-1.6-1.7-.5-4 1.5-3.2 1.5.5 1.5.4.3-1.2-1.3-1.5-1.2-1.8.8-2.3 1.7-.4 1.9-.8 1-2-1-1.1-.8-1.5.9-1.9 1.4-.4 1.9-1.1 1.5-2.2-.5-1.2-.2-1.4 1.2-.9 1.5.6 1.6.5.6-.7-1.6-1.9-.4-3.9 1.8-3.1 1.2.5 1.3.3.4-.6-1.6-1.6-.5-3.9 1.5-3.1 1.5.5 1.5.4.3-1.2-1.3-1.5-1.2-1.8.8-2.3 1.7-.4 1.9-.8 1-1.9s-.8-1.5.5-2c.9-.3 1.6-1.3 1.6-2.1 0-.9.6-1.3 1.4-1 1.1.4 1.3-.1 1-2-.4-2.1-.2-2.4 1.2-1.9s1.5.4.5-.8c-1.6-1.9-.4-3.9 1.6-3.1 1.3.5 1.4.3.3-1.1-1.2-1.3-1.1-1.7 0-2.4.8-.5 1.9-.6 2.5-.2.5.3.4-.2-.3-1.1-1.6-1.9-.6-4.1 1.5-3.2 1.3.4 1.4.3.4-.9-1.6-1.9-.4-3.9 1.8-3.1 1.3.5 1.3.4.4-.6-1-1-2-.9-4.7.6-5.1 2.7-6.2 1.3-7-9.2-.3-4.7-1.1-9.2-1.7-9.9-.6-.8-1.3-7.1-1.6-14.1-.3-7.1-1.1-14.8-1.8-17.3s-1.6-8.6-1.8-13.5c-.3-5-1.3-10.7-2.1-12.7-.9-2.1-1.6-5.4-1.6-7.5s-.7-4.7-1.5-5.7c-.8-1.1-1.5-3.8-1.5-6 0-2.3-.7-5.4-1.5-6.9-.8-1.6-1.7-5.2-2.1-8-.4-2.9-1.3-6.4-2-7.9-.8-1.5-1.4-4.4-1.4-6.5s-.6-4.7-1.4-5.8c-.7-1.1-1.6-3.7-2-5.7s-1.3-5-2.1-6.5-1.5-3.9-1.5-5.3-.7-3.4-1.5-4.4c-.8-1.1-1.5-3-1.5-4.2s-.9-4.1-2-6.5-2-6.2-2-8.4-.7-4.9-1.5-5.9c-.8-1.1-1.5-2.9-1.5-4 0-1.2-1.2-4.6-2.6-7.6s-3.6-8.4-4.9-12c-1.2-3.6-3.2-9-4.5-12-1.2-3-3.8-9.2-5.6-13.7-1.9-4.5-3.4-9.1-3.4-10.1 0-1.1-.6-2.2-1.4-2.5-.7-.3-1.6-1.7-2-3.2-.4-1.4-3.4-8.4-6.7-15.5-3.2-7.2-6.2-14.3-6.5-16-.4-1.6-1.3-3.5-2-4.1-.8-.6-1.4-1.8-1.4-2.6s-.9-2.6-2-4-2-3.4-2-4.3c0-1-.7-2.3-1.5-3s-1.5-2.1-1.5-3.2-1.1-3.3-2.3-4.8c-1.3-1.5-4.5-7-7.2-12.1-2.6-5.2-5.8-10.8-7-12.4-1.2-1.7-3.5-5.4-5-8.4s-4.2-7.7-6.1-10.4-3.4-5.5-3.4-6.3-.4-1.4-.9-1.4c-.8 0-6.4-8.2-12.6-18.4-4.5-7.4-10-15.3-13.6-19.6-2.2-2.6-3.9-5-3.9-5.5s-1.7-2.9-3.8-5.4-4.7-6-5.7-7.6c-1.1-1.7-4.1-5.5-6.8-8.5s-6-7.1-7.3-9.2-5.2-6.8-8.5-10.5c-3.4-3.8-9.5-10.9-13.5-15.8-9.9-12.3-72-72.9-80.4-78.5-1.9-1.3-6.3-5-9.7-8.2s-6.6-5.8-7.2-5.8-3.8-2.5-7.2-5.5-6.7-5.5-7.3-5.5c-.7 0-2.9-1.6-4.9-3.5s-4.4-3.5-5.2-3.5-3.2-1.6-5.4-3.5c-2.1-1.9-4.5-3.5-5.3-3.5s-2.9-1.6-4.8-3.5-4-3.5-4.8-3.5-3.2-1.6-5.3-3.5c-2.2-1.9-4.5-3.5-5.3-3.5-.7 0-3-1.6-5-3.5-2.1-1.9-4.6-3.5-5.5-3.5-1 0-2.4-.7-3.1-1.5s-1.8-1.5-2.5-1.5-2.4-.9-3.8-2-3.1-2-3.7-2c-.7 0-3-1.6-5.1-3.5-2.2-1.9-4.7-3.5-5.8-3.5-1 0-2.4-.7-3.1-1.5s-1.8-1.5-2.5-1.5-2.4-.9-3.8-2-3.5-2-4.6-2c-1.2 0-2.4-.7-2.7-1.5-.4-.8-1.5-1.5-2.5-1.5s-2.8-.9-3.9-2-2.8-2-3.9-2c-1 0-2.4-.6-3-1.4s-3.1-1.7-5.6-2c-2.4-.4-4.9-1.4-5.5-2.1-.7-.8-2-1.5-3-1.5s-2.3-.6-2.9-1.4c-.7-.8-2.6-1.8-4.2-2.1-1.7-.4-3.3-1.3-3.6-2.1s-1.5-1.4-2.8-1.4c-1.2 0-2.8-.7-3.5-1.5s-1.8-1.5-2.5-1.5-2.4-.9-3.8-2-3.3-2-4.2-2-2.8-.9-4.2-2-3.1-2-3.8-2-1.8-.7-2.5-1.5-2.1-1.5-3.1-1.5c-.9 0-2.4-.7-3.2-1.5s-3.3-1.7-5.6-2.1c-2.2-.4-4.6-1.3-5.2-2-.6-.8-2.4-1.4-4-1.4s-4.6-.9-6.6-2c-2.1-1.1-5-2-6.4-2-1.5 0-3.2-.7-3.9-1.5s-2.7-1.5-4.5-1.5-3.8-.7-4.5-1.5c-.6-.7-3.1-1.7-5.5-2.1-2.5-.3-5-1.2-5.6-2s-2.6-1.4-4.3-1.4-4.2-.7-5.4-1.6c-1.2-.8-4.7-1.8-7.7-2.1s-6-1.2-6.6-1.9c-.6-.8-2.6-1.4-4.3-1.4s-4.4-.9-6.1-2c-1.6-1.1-4.4-2-6.1-2s-3.7-.7-4.4-1.5q-1.2-1.5-6.9-1.5c-3.1 0-6.9-.7-8.6-1.6-1.6-.8-5.9-1.8-9.5-2.1s-7.4-1.1-8.5-1.8c-1.1-.6-5.3-1.4-9.2-1.7-4-.3-7.9-1.1-8.7-1.7-.8-.7-5.6-1.5-10.8-1.7-5.1-.3-10.9-1.2-12.8-1.9-1.9-.8-7.9-1.6-13.2-1.8-5.4-.2-10.4-.9-11.2-1.6-.7-.6-7.6-1.6-15.2-2.1-7.7-.5-17-1.4-20.9-1.9-3.8-.6-31.1-1-60.6-1l-53.6-.1z"/>
    <path fill="navy" fill-opacity=".9" d="M1013.5 1742c0 62.4.1 88 .2 56.7.2-31.2.2-82.2 0-113.5-.1-31.2-.2-5.6-.2 56.8"/>
  </g>

  <!-- Details fade in at end -->
  <g opacity="0">
    <animate attributeName="opacity"
      from="0" to="1"
      dur="0.6s" begin="3.6s"
      fill="freeze"/>
    <path fill-opacity=".1" d="M1011.5 1665c0 21.2.1 29.8.2 19.2.2-10.5.2-27.9 0-38.5-.1-10.5-.2-1.9-.2 19.3m0 137c0 29.4.1 41.5.2 26.7.2-14.7.2-38.7 0-53.5-.1-14.7-.2-2.6-.2 26.8m825.9 1621.5c0 16.5.2 23.4.3 15.3.2-8.1.2-21.6 0-30-.1-8.4-.3-1.8-.3 14.7"/>
    <path fill-opacity=".5" d="M1033.3 1344.7c10.3.2 27.1.2 37.5 0 10.3-.1 1.8-.2-18.8-.2s-29.1.1-18.7.2m-20.8 265.3c0 20.1.1 28.3.2 18.2.2-10 .2-26.4 0-36.5-.1-10-.2-1.8-.2 18.3"/>
    <path fill-opacity=".4" d="M1012.4 1544c0 15.1.2 21.3.3 13.7.2-7.5.2-19.9 0-27.5-.1-7.5-.3-1.3-.3 13.8m1498 499c0 16.8.2 23.6.3 15.2.2-8.3.2-22.1 0-30.5-.1-8.3-.3-1.5-.3 15.3m-818.9 891.5c0 23.1.1 32.4.2 20.7.2-11.7.2-30.6 0-42-.1-11.4-.2-1.8-.2 21.3m148.9 116.5c0 16.8.2 23.6.3 15.2.2-8.3.2-22.1 0-30.5-.1-8.3-.3-1.5-.3 15.3m-148.9 260.5c0 95.7.1 134.7.2 86.7.2-48.1.2-126.4 0-174-.1-47.7-.2-8.4-.2 87.3"/>
    <path fill-opacity=".6" d="M1012.5 1690.5c0 24.7.1 34.7.2 22.2.2-12.6.2-32.8 0-45-.1-12.2-.2-2-.2 22.8m0 109.5c0 30 .1 42.2.2 27.2.2-14.9.2-39.5 0-54.5-.1-14.9-.2-2.7-.2 27.3m823.9 1621c0 17.3.2 24.4.3 15.7.2-8.6.2-22.8 0-31.5-.1-8.6-.3-1.5-.3 15.8"/>
  </g>

</svg>