<svg viewBox="0 0 14350 4724" width="100%" height="100%" xmlns="http://www.w3.org/2000/svg" xmlns:sodipodi="http://sodipodi.sourceforge.net/DTD/sodipodi-0.dtd" xmlns:inkscape="http://www.inkscape.org/namespaces/inkscape" version="1.0">
 <defs id="defs16">
  <rect x="6473.2007" y="1587.7662" width="1765.4183" height="921.57056" id="rect21"/>
  <rect x="2953.467" y="1077.0162" width="5151.9126" height="1532.2499" id="rect20"/>
  <rect x="4477.0474" y="2117.158" width="53.94033" height="1051.8365" id="rect19"/>
  <rect x="2934.3706" y="1572.8228" width="4941.48" height="1232.4357" id="rect18"/>
  <rect x="3227.8076" y="1690.1975" width="4354.606" height="786.41132" id="rect17"/>
  <rect x="2664.4084" y="1690.1975" width="5616.5498" height="1769.8562" id="rect16"/>
 </defs>
 <g id="g1">
  <title id="title1">Layer 1</title>
  <path fill="#0040bf" d="m1023.25262,1344.24829c-0.40002,3.80005 -1,117.90002 -1.29999,253.80005l-0.60004,247l3.60004,31.5c7.19995,61.29993 10.29993,78.79993 23.09998,129.29993c7.20007,28.59998 9.50012,36 16.50024,53.50012c4.40002,11.19995 8.30005,21.59985 8.70007,23.19995c0.30005,1.69995 1,3 1.40002,3c1.19995,0 1.5,0.69995 9.50012,23c3.69995,10.19995 8.40002,22 10.5,26.19995c2.2002,4.30005 3.90015,8.3999 3.90015,9.30005c0,0.80005 0.40002,1.5 0.90002,1.5c0.49988,0 1.19983,1.30005 1.59985,2.8999c0.30005,1.6001 1.30005,3.5 2.09998,4.19995c0.80005,0.6001 1.40002,2.2002 1.40002,3.40015c0,1.19995 0.70007,2.80005 1.5,3.5c0.80005,0.69995 1.49988,2 1.49988,2.8999c0,1 1.1001,3.30005 2.5,5.1001c1.40002,1.8999 3.1001,5.30005 3.70007,7.5c0.59998,2.19995 1.8999,4.8999 2.8999,6c0.90002,1.09985 3.09998,4.8999 4.90002,8.5c1.79993,3.59985 3.8999,7.19995 4.59985,8.09985c0.80005,0.90015 2.90002,4.5 4.69995,8c5.3999,10.5 12.8999,23.2002 15.8999,26.7002c1.5,1.7998 2.79993,3.7998 2.79993,4.5c0,0.69995 1.80005,3.3999 4,6.19995c2.20007,2.69995 4,5.5 4,6.09985c0,0.5 2,3.40015 4.49988,6.30005c2.5,2.90015 4.5,5.80005 4.5,6.5c0,0.69995 2.6001,4.19995 5.80005,7.69995c3.30005,3.5 6.5,7.6001 7.30005,9c0.79993,1.5 3.79993,5.40015 6.69995,8.7002c2.90002,3.2998 6.5,7.7998 8,10c1.5,2.19995 9.09998,10.8999 17,19.19995c7.90002,8.3999 15.40002,16.8999 16.69995,19c3.5,5.59985 14.1001,16.59985 18.30005,19.09985c2.09998,1.30005 8.30005,6.7002 13.90002,12.1001c5.59998,5.3999 10.69995,9.80005 11.29993,9.80005c0.6001,0 5.40002,4 10.6001,9c5.29993,4.8999 10,9 10.5,9c0.5,0 4.29993,3.09985 8.5,7c4.09998,3.80005 7.8999,7 8.3999,7c0.5,0 4.40002,3.19995 8.6001,7c4.29993,3.80005 8.29993,7 9.09998,7c0.69995,0 2.90002,1.59985 4.90002,3.5c1.8999,1.8999 4.09998,3.5 4.8999,3.5c0.80005,0 3.20007,1.5 5.20007,3.3999c2.09998,1.80005 5,3.6001 6.59998,4c1.5,0.30005 2.69995,1.1001 2.69995,1.6001c0,0.59985 0.70007,1 1.5,1c0.80005,0 3.20007,1.59985 5.40002,3.5c2.09998,1.8999 4.59998,3.5 5.5,3.5c0.90002,0 2.5,0.8999 3.59998,2c1.1001,1.09985 2.6001,2 3.40002,2c0.80005,0 3.90002,2.19995 6.90002,5c3,2.69995 6,5 6.59998,5c0.59998,0 2.80005,1.5 4.90002,3.3999c2.09998,1.90015 5,3.80005 6.59998,4.19995c1.5,0.30005 3,1.30005 3.30005,2c0.29993,0.80005 1.40002,1.40015 2.5,1.40015c1.09998,0 3.09998,0.8999 4.5,2c1.40002,1.09985 3.09998,2 3.79993,2c0.70007,0 1.80005,0.69995 2.5,1.5c0.70007,0.80005 2.30005,1.5 3.70007,1.5c1.29993,0 2.59998,0.59985 2.90002,1.3999c0.29993,0.80005 1.79993,1.80005 3.3999,2.1001c1.6001,0.30005 3.40002,1.30005 4.1001,2.09985c0.59998,0.80005 1.8999,1.40015 2.8999,1.40015c0.90002,0 2.70007,0.8999 4,2c1.30005,1.09985 3.20007,2 4.20007,2c1,0 2.09998,0.69995 2.40002,1.5c0.3999,0.80005 1.5,1.5 2.59998,1.5c1.09998,0 3.09998,0.8999 4.5,2c1.40002,1.09985 3.40002,2 4.5,2c1,0 2.09998,0.69995 2.40002,1.5c0.3999,0.80005 1.3999,1.5 2.3999,1.5c0.90002,0 2.90002,0.8999 4.30005,2c1.40002,1.09985 3.19995,2 4,2c0.80005,0 2,0.69995 2.69995,1.5c0.70007,0.80005 2.1001,1.5 3.1001,1.5c0.8999,0 2.5,0.69995 3.3999,1.59985c0.80005,0.90015 3.30005,1.80005 5.5,2.1001c2.20007,0.30005 4.5,1.19995 5.1001,1.8999c0.59998,0.80005 2,1.40015 3,1.40015c0.8999,0 2.5,0.69995 3.3999,1.59985c0.80005,0.90015 3.30005,1.80005 5.5,2.1001c2.20007,0.30005 4.5,1.19995 5.1001,1.8999c0.59998,0.80005 1.8999,1.40015 2.79993,1.40015c0.90002,0 3,0.8999 4.59998,2c1.70007,1.09985 4.20007,2 5.70007,2c1.5,0 3.29993,0.69995 4.19995,1.5c0.80005,0.80005 2.09998,1.5 2.80005,1.5c0.69995,0 2.69995,0.8999 4.29993,2c1.70007,1.09985 4.20007,2 5.70007,2c1.5,0 3.29993,0.69995 4.19995,1.5c0.80005,0.80005 2.59998,1.5 4,1.5c1.40002,0 4.30005,0.8999 6.30005,2c2.09998,1.09985 5.69995,2 8,2c2.40002,0 4.79993,0.59985 5.69995,1.5c0.80005,0.8999 3.30005,1.5 5.80005,1.5c2.40002,0 6,0.8999 8.09998,2c2,1.09985 5.30005,2 7.30005,2c2,0 4.79993,0.59985 6.19995,1.3999c1.5,0.80005 4.30005,1.69995 6.30005,2.1001c2.09998,0.30005 4.19995,1.19995 4.8999,2c0.70007,0.80005 2.70007,1.5 4.40002,1.5c1.80005,0 4.09998,0.69995 5.20007,1.5c1.19995,0.8999 4.29993,1.3999 8.79993,1.5l6.90002,0l-0.69995,-19.69995c-0.40002,-12.30005 -1.1001,-20.2002 -1.80005,-21c-0.69995,-0.80005 -1.40002,-7.30005 -1.80005,-15.6001c-0.29993,-7.80005 -1.09998,-15.1001 -1.69995,-16.19995c-0.5,-1.1001 -1.30005,-7.5 -1.59998,-14.30005c-0.30005,-7.30005 -1,-12.8999 -1.70007,-13.69995c-0.69995,-0.80005 -1.5,-5.40015 -1.69995,-10.19995c-0.30005,-4.90015 -1.19995,-10 -1.90002,-11.5c-0.79993,-1.5 -1.40002,-5.7002 -1.40002,-9.5c0,-4.1001 -0.59998,-7.90015 -1.5,-9.7002c-1,-1.7998 -1.69995,-7.09985 -2.09998,-14.5c-0.29993,-6.3999 -1.19995,-13.2998 -2,-15.3999c-0.79993,-2.1001 -1.40002,-7.30005 -1.40002,-12c0,-4.8999 -0.59998,-9.19995 -1.29993,-10.69995c-0.80005,-1.40015 -1.70007,-7.30005 -2,-13.1001c-0.40002,-6.30005 -1.30005,-11.80005 -2.20007,-13.5c-0.79993,-1.59985 -1.5,-5 -1.5,-7.5c0,-2.8999 -0.59998,-5.09985 -1.5,-5.8999c-0.8999,-0.69995 -1.5,-2.90015 -1.5,-5.40015c0,-2.19995 -0.69995,-5.5 -1.59998,-7.09985c-0.90002,-1.69995 -1.79993,-5.5 -2.09998,-8.5c-0.30005,-3 -1.19995,-6.40015 -1.90002,-7.5c-0.79993,-1.1001 -1.40002,-4.40015 -1.40002,-7.5c0,-3 -0.69995,-6.80005 -1.5,-8.40015c-0.8999,-1.59985 -1.79993,-7 -2.19995,-12c-0.30005,-4.8999 -1.19995,-10.19995 -2,-11.59985c-0.69995,-1.40015 -1.30005,-5.6001 -1.30005,-9.30005c0,-3.69995 -0.59998,-8 -1.3999,-9.5c-0.70007,-1.5 -1.6001,-5 -1.90002,-7.69995c-0.30005,-2.80005 -1.30005,-6.40015 -2.09998,-8c-0.90002,-1.69995 -1.6001,-4.80005 -1.6001,-7.1001c0,-2.19995 -0.69995,-4.8999 -1.5,-6c-0.79993,-1 -1.5,-3.09985 -1.5,-4.69995c0,-1.5 -0.8999,-4.3999 -2,-6.3999c-1.09998,-2.1001 -2,-5.6001 -2,-7.80005c0,-2.19995 -0.69995,-4.90015 -1.5,-5.90015c-0.79993,-1.09985 -1.5,-4 -1.5,-6.59985c0,-2.5 -0.69995,-5.5 -1.5,-6.69995c-0.79993,-1.2002 -1.79993,-4.90015 -2.19995,-8.2002c-0.30005,-3.3999 -1.19995,-6.59985 -1.90002,-7.19995c-0.79993,-0.59985 -1.40002,-2.8999 -1.40002,-5.09985c0,-2.5 -0.5,-4.1001 -1.5,-4.40015c-0.79993,-0.3999 -1.5,-1.3999 -1.5,-2.30005c0,-0.8999 -0.8999,-3 -2,-4.59985c-1.09998,-1.69995 -2,-4.40015 -2,-6.1001c0,-1.69995 -0.69995,-3.69995 -1.5,-4.3999c-0.8999,-0.69995 -1.5,-2.90015 -1.5,-5.1001c0,-2.09985 -0.69995,-4.5 -1.59998,-5.3999c-0.90002,-0.90015 -1.90002,-3.6001 -2.19995,-6c-0.20007,-2.5 -1.09998,-5 -1.80005,-5.6001c-0.79993,-0.69995 -1.40002,-3.09985 -1.40002,-5.80005c0,-2.59985 -0.69995,-5.59985 -1.5,-6.7998c-0.79993,-1.2002 -1.79993,-4.90015 -2.19995,-8.2002c-0.30005,-3.3999 -1.19995,-6.59985 -1.90002,-7.19995c-0.79993,-0.59985 -1.40002,-2.80005 -1.40002,-4.8999c0,-2.1001 -0.59998,-4.30005 -1.3999,-4.90015c-0.70007,-0.59985 -1.6001,-3.8999 -2,-7.2998c-0.30005,-3.40015 -1.1001,-6.5 -1.70007,-6.90015c-0.59998,-0.30005 -1.40002,-2.80005 -1.59998,-5.3999c-0.30005,-2.6001 -1.19995,-4.90002 -1.90002,-5.20007c-0.79993,-0.29993 -1.40002,-1.40002 -1.40002,-2.59998c0,-1.09998 -0.69995,-2.80005 -1.59998,-3.80005c-0.90002,-1 -1.79993,-3.69995 -2.09998,-6.09998c-0.30005,-2.40002 -1.19995,-4.69995 -1.90002,-5.09998c-0.79993,-0.40002 -1.40002,-1.80005 -1.40002,-3.09998c0,-1.30005 -0.59998,-2.90002 -1.3999,-3.5c-0.80005,-0.70007 -1.80005,-3.09998 -2.1001,-5.40002c-0.3999,-2.30005 -1.3999,-5.09998 -2.09998,-6.19995c-0.79993,-1.1001 -1.40002,-3.40002 -1.40002,-5.1001c0,-1.69995 -0.69995,-3.69995 -1.5,-4.3999c-0.79993,-0.70007 -1.5,-2 -1.5,-3c0,-0.90002 -0.8999,-2.90002 -2,-4.30005c-1.09998,-1.40002 -2,-3.59998 -2,-5c0,-1.30005 -0.69995,-3 -1.5,-3.69995c-0.79993,-0.70007 -1.5,-2.5 -1.5,-4.1001c0,-1.5 -0.69995,-3.5 -1.59998,-4.3999c-0.90002,-0.80005 -1.79993,-3.5 -2.09998,-5.80005c-0.30005,-2.30005 -1.19995,-4.59998 -1.90002,-5c-0.79993,-0.40002 -1.40002,-1.80005 -1.40002,-3.09998c0,-1.30005 -0.69995,-2.90002 -1.5,-3.59998c-0.69995,-0.6001 -1.69995,-3.1001 -2.09998,-5.5c-0.29993,-2.5 -1.19995,-5 -2,-5.6001c-0.79993,-0.59998 -1.40002,-2.19995 -1.40002,-3.3999c0,-1.20007 -0.59998,-2.80005 -1.3999,-3.40002c-0.70007,-0.59998 -1.6001,-3 -1.90002,-5.20007c-0.30005,-2.19995 -1.20007,-4.79993 -2.09998,-5.79993c-0.90002,-1 -1.6001,-2.70007 -1.6001,-3.80005c0,-1.19995 -0.69995,-2.29993 -1.5,-2.69995c-0.79993,-0.30005 -1.5,-1.5 -1.5,-2.70007c0,-1.09998 -0.8999,-3.19995 -2,-4.59998c-1.09998,-1.40002 -2,-3.40002 -2,-4.29993c0,-1 -0.69995,-2.30005 -1.5,-3c-0.79993,-0.70007 -1.5,-2 -1.5,-3c0,-1 -0.59998,-2.30005 -1.3999,-2.90002c-0.80005,-0.70007 -1.80005,-2.5 -2.1001,-4.09998c-0.29993,-1.6001 -1.29993,-3.40002 -2.09998,-4.1001c-0.79993,-0.59998 -1.40002,-2.19995 -1.40002,-3.3999c0,-1.30005 -0.69995,-2.5 -1.5,-2.90002c-0.79993,-0.30005 -1.5,-1.40002 -1.5,-2.40002c0,-1.09998 -0.8999,-3.09998 -2,-4.5c-1.09998,-1.40002 -2,-3.5 -2,-4.59998c0,-1.20007 -0.69995,-2.40002 -1.5,-2.70007c-0.79993,-0.3999 -1.5,-1.5 -1.5,-2.59998c0,-1.09998 -0.8999,-3.09998 -2,-4.5c-1.09998,-1.40002 -2,-3.40002 -2,-4.29993c0,-1 -0.69995,-2.30005 -1.5,-3c-0.79993,-0.70007 -1.5,-2.30005 -1.5,-3.5c0,-1.30005 -0.59998,-2.5 -1.3999,-2.80005c-0.80005,-0.30005 -1.70007,-1.90002 -2.1001,-3.59998c-0.29993,-1.59998 -1.29993,-3.5 -2.09998,-4.20007c-0.79993,-0.59998 -1.40002,-2.19995 -1.40002,-3.59998c0,-1.29993 -0.69995,-2.59998 -1.5,-2.90002c-0.79993,-0.3999 -1.5,-1.3999 -1.5,-2.3999c0,-0.90002 -0.8999,-2.90002 -2,-4.30005c-1.09998,-1.40002 -2,-3.19995 -2,-4c0,-0.80005 -0.69995,-1.69995 -1.5,-2.09998c-0.79993,-0.30005 -1.5,-1 -1.5,-1.70007c0,-0.59998 -0.8999,-2.19995 -2,-3.59998c-1.09998,-1.40002 -2,-3.40002 -2,-4.29993c0,-1 -0.69995,-2 -1.5,-2.40002c-0.79993,-0.30005 -1.5,-1.40002 -1.5,-2.5c0,-1 -0.59998,-2.09998 -1.3999,-2.40002c-0.80005,-0.30005 -1.70007,-1.90002 -2.1001,-3.59998c-0.29993,-1.59998 -1.29993,-3.5 -2.09998,-4.20007c-0.79993,-0.59998 -1.40002,-1.69995 -1.40002,-2.3999c0,-0.70007 -0.59998,-1.80005 -1.3999,-2.40002c-0.80005,-0.70007 -1.70007,-2.30005 -2.1001,-3.80005c-0.29993,-1.40002 -1.29993,-3.19995 -2,-4c-0.79993,-0.79993 -1.5,-2.29993 -1.5,-3.19995c0,-1 -0.69995,-2.40002 -1.5,-3.09998c-0.79993,-0.70007 -1.5,-2 -1.5,-3c0,-0.90002 -0.8999,-2.70007 -2,-4c-1.09998,-1.30005 -2,-2.90002 -2,-3.6001c0,-0.69995 -2.19995,-3.8999 -5,-7.09998c-2.69995,-3.19995 -5,-6.40002 -5,-7.09998c0,-0.59998 -0.5,-1.19995 -1,-1.19995c-0.59998,0 -1.29993,-0.80005 -1.69995,-1.80005c-0.30005,-0.90002 -1.30005,-2.5 -2.09998,-3.5c-1.70007,-1.90002 -3.59998,-5.09998 -5.09998,-8.5c-0.6001,-1.19995 -1.5,-2.19995 -2,-2.19995c-0.5,0 -1.30005,-1 -1.70007,-2.30005c-0.59998,-1.90002 -4,-6.40002 -8.90002,-11.80005c-0.79993,-0.8999 -1.5,-1.8999 -1.5,-2.3999c0,-0.40002 -1.59998,-2.5 -3.5,-4.6001c-1.8999,-2.19995 -3.5,-4.5 -3.5,-5.29993c0,-0.80005 -0.69995,-1.59998 -1.5,-2c-0.79993,-0.30005 -1.5,-1.09998 -1.5,-1.90002c0,-0.69995 -1.59998,-2.80005 -3.5,-4.69995c-1.8999,-1.90002 -3.5,-3.90002 -3.5,-4.5c0,-0.70007 -0.8999,-2 -2,-3c-1.09998,-1 -2,-2.30005 -2,-3c0,-0.6001 -1.29993,-2.40002 -3,-4c-1.59998,-1.6001 -3,-3.40002 -3,-4.20007c0,-0.69995 -0.8999,-1.69995 -2,-2.29993c-1.09998,-0.6001 -2,-1.70007 -2,-2.40002c0,-0.70007 -5.09998,-6.80005 -11.19995,-13.40002c-6.19995,-6.69995 -14.90002,-16.19995 -19.30005,-21.19995c-4.3999,-5 -13.3999,-14.80005 -19.8999,-21.80005c-16,-17.09998 -17.6001,-19.30005 -17.6001,-25.40002c0,-3.29993 0.40002,-4.79993 1.30005,-4.79993c0.80005,0 6.5,4.79993 12.80005,10.79993c6.29993,5.90002 12.79993,11.59998 14.3999,12.70007c1.70007,1 5.30005,4 8,6.5c2.80005,2.59998 5.90002,5.19995 7,5.79993c9.5,5.09998 104.30005,99.59998 113.20007,112.80005c1.5,2.09998 5.09998,6.59998 8,9.79993c2.90002,3.30005 5.29993,6.40002 5.29993,7.1001c0,0.59998 2.90002,4.19995 6.30005,8c3.5,3.8999 7.09998,8.3999 8,10.19995c0.90002,1.69995 3.5,5.19995 5.69995,7.80005c2.20007,2.5 4,5 4,5.3999c0,0.5 2.30005,3.70007 5,7.1001c2.80005,3.3999 5,6.69995 5,7.19995c0,0.59998 1.20007,2.40002 2.6001,4.19995c3.69995,4.6001 11.59998,15.40002 13.8999,19.1001c1.1001,1.69995 3.20007,4.59998 4.80005,6.3999c1.5,1.80005 2.69995,4 2.69995,5c0,1 0.90002,2.6001 2,3.6001c1.1001,1 2,2.59998 2,3.59998c0,0.90002 1.6001,3.59998 3.5,5.90002c1.90002,2.29993 3.5,4.79993 3.5,5.5c0,0.69995 0.70007,1.79993 1.5,2.5c0.80005,0.69995 1.5,2 1.5,3c0,1 1.6001,3.69995 3.5,6c1.90002,2.29993 3.5,5 3.5,6c0,1 0.70007,2 1.5,2.3999c0.80005,0.30005 1.5,1.6001 1.5,2.90002c0,1.30005 0.90002,3.20007 2,4.20007c1.1001,1 2,2.59998 2,3.59998c0,0.90002 1.6001,3.59998 3.5,5.90002c1.90002,2.29993 3.5,5 3.5,6c0,1 0.70007,2 1.5,2.3999c0.80005,0.30005 1.5,1.6001 1.5,2.90002c0,1.40002 0.6001,3 1.40002,3.59998c0.80005,0.70007 1.80005,2.5 2.09998,4.1001c0.30005,1.59998 1.30005,3.09998 2.1001,3.3999c0.79993,0.30005 1.3999,1.6001 1.3999,2.90002c0,1.40002 0.70007,3 1.5,3.70007c0.80005,0.69995 1.5,2 1.5,3c0,0.8999 0.90002,2.69995 2,4c1.1001,1.29993 2,3.29993 2,4.5c0,1.29993 0.70007,2.5 1.5,2.8999c0.80005,0.30005 1.5,1.5 1.5,2.70007c0,1.09998 0.90002,3.19995 2,4.59998c1.1001,1.40002 2,3.40002 2,4.30005c0,1 0.70007,2 1.5,2.3999c0.80005,0.30005 1.5,1.6001 1.5,2.90002c0,1.40002 0.6001,3 1.40002,3.59998c0.80005,0.70007 1.70007,2.30005 2.09998,3.80005c0.30005,1.40002 1.30005,3.19995 2,4c0.80005,0.80005 1.5,2.5 1.5,3.80005c0,1.19995 0.70007,2.5 1.5,2.8999c0.80005,0.30005 1.5,1.80005 1.5,3.30005c0,1.59998 0.90002,4.5 2,6.59998c1.1001,2 2,4.30005 2,5.09998c0,0.70007 0.70007,1.90002 1.5,2.6001c0.80005,0.69995 1.5,2 1.5,3c0,0.8999 0.90002,2.69995 2,4c1.1001,1.29993 2,3.09998 2,4c0,1 0.70007,2.29993 1.5,3c0.80005,0.69995 1.5,2.8999 1.5,5c0,2.09998 0.6001,4.29993 1.40002,4.8999c0.80005,0.70007 1.80005,3.1001 2.09998,5.40002c0.40002,2.30005 1.40002,5.09998 2.1001,6.20007c0.79993,1.09998 1.3999,3.3999 1.3999,5.09998c0,1.69995 0.70007,3.69995 1.5,4.40002c0.80005,0.69995 1.5,2.19995 1.5,3.5c0,1.19995 0.90002,3 2,4c1.1001,1 2,2.79993 2,4c0,1.29993 0.70007,2.5 1.5,2.8999c0.80005,0.30005 1.5,1.6001 1.5,2.90015c0,1.3999 0.70007,3 1.5,3.69995c0.80005,0.69995 1.70007,2.80005 2,4.8999c0.40002,2 1.30005,4.80005 2.1001,6.30005c0.79993,1.3999 1.3999,3.8999 1.3999,5.6001c0,1.59985 0.70007,3.5 1.5,4.19995c0.70007,0.59985 1.70007,3.19995 2.1001,5.80005c0.3999,2.5 1.29993,5.19995 2,6c0.79993,0.69995 1.3999,3.09985 1.3999,5.09985c0,2.19995 0.6001,4.40015 1.5,5.1001c0.80005,0.69995 1.5,2.3999 1.5,3.8999c0,1.40015 0.90002,4.30005 2,6.40015c1.1001,2 2,5 2,6.59985c0,1.6001 0.70007,3.40015 1.5,4.1001c0.80005,0.69995 1.5,2.69995 1.5,4.3999c0,1.69995 0.70007,4.19995 1.6001,5.40015c0.8999,1.2998 1.79993,5 2.09998,8.2998c0.29993,3.2002 1.19995,6.40015 1.90002,7c0.79993,0.7002 1.3999,3.1001 1.3999,5.80005c0,2.6001 0.6001,5.6001 1.40002,6.69995c0.80005,1.1001 1.70007,4.6001 2.09998,7.90015c0.40002,3.30005 1.40002,6.8999 2.09998,8c0.80005,1.09985 1.40002,4.5 1.40002,8c0,3.5 0.59998,6.8999 1.40002,8c0.69995,1.09985 1.59998,4.69995 1.90002,7.8999c0.30005,3.30005 1.09998,6.19995 1.79993,6.6001c0.6001,0.3999 1.40002,2.80005 1.6001,5.3999c0.29993,2.5 1.19995,5.1001 1.90002,5.69995c0.79993,0.6001 1.3999,2.6001 1.3999,4.30005c0,1.69995 0.70007,4.19995 1.6001,5.5c1,1.40015 1.8999,5.19995 2.19995,9.5c0.19995,3.90015 1,7.69995 1.59998,8.5c0.59998,0.80005 1.40002,5.6001 1.70007,10.69995c0.29993,5.1001 1.09998,10 1.69995,10.7002c0.59998,0.69995 1.5,4.69995 1.80005,8.7998c0.3999,4.1001 1.29993,8.30005 2,9.40015c0.79993,1.09985 1.3999,4.5 1.3999,8c0,3.5 0.6001,6.8999 1.40002,8c0.70007,1.09985 1.59998,5.30005 1.90002,9.30005c0.30005,4.09985 1.09998,8 1.80005,8.7998c0.69995,0.80005 1.3999,5.2002 1.59998,9.7002c0.19995,4.5 1,9.7998 1.79993,11.69995c0.80005,1.8999 1.6001,7 1.80005,11.19995c0.19995,4.30005 1,8.3999 1.59998,9.19995c0.80005,1 1.5,6.6001 1.80005,15.80005c0.29993,7.8999 1,14.8999 1.59998,15.6001c0.59998,0.69995 1.30005,7 1.69995,14c0.40002,7 1.20007,13.69995 1.80005,14.7998c0.59998,1.2002 1.40002,7.7002 1.80005,14.5c0.3999,6.80005 1.19995,13 1.69995,13.80005c0.69995,0.69995 1.40002,8.80005 1.69995,19c0.30005,9.69995 1.1001,18.5 1.70007,19.6001c0.5,1.09985 1.29993,8.19995 1.59998,15.80005c0.40002,8.3999 1.09998,14.5 1.80005,15.2998c0.79993,0.90015 1.3999,7.90015 1.79993,19.2002c0.30005,9.69995 1.40039,18.27783 1.59998,19.19995c1.43201,6.61597 9.99878,6.28491 13.20007,-28.30005c1.19995,0.30005 1.19995,-1.3999 0,-3.5c-0.6001,-0.80005 -0.1001,-1.5 1.3999,-2c1.40002,-0.6001 1.80005,-1.1001 1.1001,-1.6001c-1.5,-0.8999 -0.40002,-3.59985 1.29993,-3c1.40002,0.6001 1.5,-1.19995 0.20007,-3.19995c-1.1001,-1.80005 0.29993,-7.30005 1.79993,-6.80005c1.30005,0.5 1.5,-3.19995 0.20007,-5.19995c-1.1001,-1.80005 0.29993,-7.30005 1.69995,-6.80005c1.40002,0.5 1.59998,-5.19995 0.30005,-7.2998c-1.1001,-1.7002 0.29993,-6.30005 1.90002,-6.30005c1,0 1.09998,-0.6001 0.19995,-3c-1.40002,-4.19995 -0.30005,-10.1001 1.90002,-9.30005c1.29993,0.5 1.29993,0.30005 0.5,-1.3999c-1.5,-2.7002 -0.40002,-9.30005 1.40002,-8.6001c1,0.30005 1.19995,-0.30005 0.69995,-2.3999c-1.09998,-5.7002 -0.69995,-9.30005 1.09998,-9.30005c1.40002,0 1.59998,-2.30005 0.30005,-3.6001c-0.40002,-0.3999 -0.70007,-3.59985 -0.70007,-7.09985c0,-6.40015 1.30005,-10.80005 3,-9.80005c0.90002,0.59985 0.80005,-1.40015 -0.29993,-3.1001c-1.09998,-1.80005 0.29993,-7.30005 1.79993,-6.80005c1.30005,0.5 1.40002,-2.7998 0.1001,-5.69995c-0.80005,-1.8999 1,-7.19995 2.19995,-6.5c1,0.6001 0.90002,-2.8999 -0.19995,-6.09985c-0.80005,-2.40015 0.8999,-6.7002 2.3999,-5.80005c1,0.59985 0.80005,-1.40015 -0.29993,-3.19995c-1.09998,-1.7002 0.29993,-6.30005 1.90002,-6.30005c1,0 1.09998,-0.6001 0.5,-2.30005c-1.20007,-3.19995 -0.20007,-8.69995 1.3999,-8.1001c1.40002,0.6001 1.40002,-0.69995 0,-3.8999c-0.8999,-2.1001 1,-7.1001 2.40002,-6.30005c1,0.69995 0.90002,-1.30005 -0.19995,-3c-1.09998,-1.8999 0.29993,-7.30005 1.79993,-6.69995c1.40002,0.5 1.5,-1.30005 0.20007,-3.3999c-1,-1.5 1,-5.6001 2.29993,-4.80005c0.6001,0.3999 0.6001,-0.30005 0.1001,-1.90015c-1,-2.59985 0.69995,-5.2998 2.5,-3.7998c0.3999,0.3999 0.19995,-0.1001 -0.5,-1c-1.70007,-2.2002 -0.6001,-5.90015 1.59998,-5.1001c1.19995,0.5 1.29993,0.30005 0.29993,-1.30005c-1.29993,-2.19995 0.30005,-8 1.90002,-6.8999c0.90002,0.5 0.5,-4 -0.5,-5.6001c-0.69995,-1.19995 0.70007,-3.8999 2.20007,-3.8999c1.09998,0 1.19995,-0.40015 0.19995,-1.90015c-0.90002,-1.5 -0.90002,-2.2998 0.09998,-3.5c0.70007,-0.8999 1.70007,-1.3999 2.09998,-1.09985c1,0.59985 0.80005,-1.5 -0.29993,-3.19995c-1.09998,-1.7002 0.29993,-6.30005 1.79993,-6.30005c1.30005,0 1.5,-2.30005 0.30005,-3.5c-1.09998,-1.1001 0.40002,-5.40015 1.69995,-4.90015c1.40002,0.6001 1.40002,-0.69995 0,-3.8999c-0.8999,-2.1001 1.1001,-7.1001 2.40002,-6.19995c0.90002,0.5 0.5,-4 -0.5,-5.69995c-0.69995,-1.1001 1.5,-5 2.59998,-4.30005c0.90002,0.59985 0.80005,-1.40015 -0.19995,-3.1001c-1.19995,-1.80005 0.19995,-5.30005 1.90002,-4.69995c1.29993,0.5 1.29993,0.30005 0.29993,-1.6001c-0.8999,-1.69995 0.47656,-1.09839 1.12622,-3.07422c1.95142,-3.07764 0.47388,-1.72559 0.97388,-1.42578c0.5,0.30005 -0.62622,3.50439 1.25134,-0.54858c1.15234,-3.47534 -0.2749,-2.54761 1.69995,-4.09985c0.24866,-2.65356 0.24866,-0.75146 -0.95129,-2.35156c-1.30005,-1.5 -0.51807,-0.03198 -0.1001,-2.59985c0.80005,-0.5 -0.13098,-0.14404 0.26904,0.15576c0.90002,0.5 0.95386,-1.21313 1.30066,-3.73853c0.8772,-1.27808 0.03003,-1.71729 1.5304,-2.21729c1.2262,-1.68604 1.79993,-1.1001 1.09998,-1.6001c1.4281,-2.34668 -0.25659,-0.38477 1.59998,-2.7998c-2.49695,2.02051 -1.84534,2.44189 0.30005,-1.2002c1.00256,-2.15161 -1.08289,0.7937 -0.1001,-2.59985c0.6698,-1.15161 1.70007,-0.69995 2.1001,-0.40015c0.8999,0.5 0.59998,-1.69995 -0.5,-3.3999c-0.5,-0.8999 -0.1001,-1.5 1.29993,-1.8999c1.70007,-0.40015 1.90002,-0.80005 0.90002,-2c-0.90002,-1.1001 -0.90002,-1.6001 0.19995,-2.30005c0.80005,-0.5 1.90002,-0.6001 2.5,-0.19995c0.5,0.2998 0.40002,-0.2002 -0.3999,-1.2002c-1.30005,-1.5 -1.30005,-1.8999 -0.1001,-2.59985c0.80005,-0.5 1.90002,-0.6001 2.5,-0.19995c0.5,0.2998 0.40002,-0.2002 -0.3999,-1.2002c-1.30005,-1.5 -1.30005,-1.8999 -0.1001,-2.59985c0.80005,-0.5 1.90002,-0.6001 2.5,-0.19995c0.5,0.2998 0.40002,-0.1001 -0.29993,-1c-1.5,-1.90015 -0.59998,-4.80005 1.5,-4.80005c1.19995,0 1.29993,-0.30005 0.40002,-1.40015c-0.80005,-1 -0.80005,-1.59985 0.19995,-2.5c0.80005,-0.59985 1.80005,-0.69995 2.30005,-0.2998c0.3999,0.3999 0.29993,0 -0.40002,-0.90015c-1.30005,-1.69995 -0.70007,-4.8999 1,-4.8999c0.5,0 0.79993,-0.6001 0.69995,-1.30005c-0.29993,-2.80005 0.20007,-3.6001 1.90002,-3c1.5,0.6001 1.5,0.5 0.40002,-1c-1.59998,-1.80005 -0.70007,-4.1001 1.29993,-3.30005c1.40002,0.5 1.5,-1.09985 0.20007,-3c-0.80005,-1.3999 1.59998,-3.69995 2.79993,-2.59985c0.40002,0.3999 0.30005,-0.30005 -0.3999,-1.5c-1.40002,-2.80005 -0.5,-5.40015 1.69995,-4.5c1.40002,0.5 1.5,0.2998 0.5,-0.90015c-1.59998,-2 -0.59998,-5.8999 1.40002,-5.19995c1.29993,0.5 1.29993,0.30005 0.19995,-1.5c-1,-1.69995 -1,-2.30005 0,-3.6001c0.70007,-0.8999 1.70007,-1.3999 2.09998,-1.09985c1,0.59985 0.80005,-1.5 -0.29993,-3.19995c-1,-1.6001 0.19995,-4.30005 2,-4.30005c1.19995,0 1.29993,-0.30005 0.40002,-1.40015c-1.40002,-1.59985 0.29993,-6.09985 1.8999,-5.09985c-6.24536,17.10327 0.80005,-1.40015 -0.29993,-3.19995c-1,-1.6001 0.19995,-4.30005 2.09998,-4.30005c1.19995,0 1.30005,-0.30005 0.5,-1.1001c-1.59998,-1.59985 -0.5,-3.8999 1.5,-3.09985c1.40002,0.5 1.5,0.2998 0.40002,-1c-1,-1.2002 -1,-1.7002 0.09998,-2.7002c0.80005,-0.59985 1.80005,-0.69995 2.30005,-0.2998c0.3999,0.3999 0.29993,0 -0.40002,-0.90015c-1.5,-2 -0.59998,-4.8999 1.5,-4.8999c1.19995,0 1.29993,-0.30005 0.29993,-1.5c-1.3999,-1.69995 -0.3999,-3.90015 1.5,-3.1001c1.40002,0.5 1.5,-1.09985 0.20007,-3c-0.70007,-1.30005 1.59998,-3.80005 2.59998,-2.80005c0.80005,0.80005 0.30005,-1.7998 -0.59998,-3.3999c-0.59998,-0.80005 -0.09998,-1.5 1.40002,-2c1.3999,-0.6001 1.79993,-1.1001 1.09998,-1.6001c-1.70007,-1 -0.30005,-3.59985 1.59998,-2.8999c1.30005,0.5 1.40002,0.30005 0.5,-0.69995c-1.59998,-1.69995 -0.5,-4 1.5,-3.19995c1.5,0.5 1.5,0.3999 0.30005,-1.2002c-1.30005,-1.5 -1.30005,-1.8999 -0.1001,-2.59985c0.80005,-0.5 1.90002,-0.6001 2.5,-0.19995c0.5,0.2998 0.40002,-0.2002 -0.3999,-1.2002c-1.30005,-1.5 -1.30005,-1.8999 -0.1001,-2.59985c0.80005,-0.5 1.90002,-0.6001 2.5,-0.19995c0.5,0.2998 0.40002,-0.2002 -0.3999,-1.2002c-1.30005,-1.5 -1.30005,-1.8999 -0.1001,-2.59985c0.80005,-0.5 1.90002,-0.6001 2.5,-0.30005c0.5,0.30005 0.5,0 -0.19995,-0.69995c-1.59998,-1.69995 -0.5,-4 1.5,-3.19995c1.5,0.5 1.5,0.3999 0.30005,-1.2002c-1.30005,-1.5 -1.20007,-1.7998 0.79993,-2.2998c2.55847,-0.60205 10.37939,-32.16821 10.79077,-48.47266c-0.29993,-4.70007 0.64551,-13.27283 0.04504,-13.97278c-0.59998,-0.80005 -0.13635,-8.55469 -0.43628,-15.55469c-0.30005,-7.09998 -1.09998,-14.79993 -1.80005,-17.29993c-0.69995,-2.5 -1.59998,-8.6001 -1.79993,-13.5c-0.30005,-5 -1.30005,-10.70007 -2.1001,-12.70007c-0.8999,-2.09998 -1.59998,-5.3999 -1.59998,-7.5c0,-2.09998 -0.69995,-4.69995 -1.5,-5.69995c-0.79993,-1.09998 -1.5,-3.80005 -1.5,-6c0,-2.30005 -0.69995,-5.40002 -1.5,-6.90002c-0.79993,-1.59998 -1.69995,-5.19995 -2.09998,-8c-0.40002,-2.90002 -1.30005,-6.40002 -2,-7.90002c-0.80005,-1.5 -1.40002,-4.3999 -1.40002,-6.5c0,-2.09998 -0.59998,-4.69995 -1.40002,-5.79993c-0.69995,-1.09998 -1.59998,-3.70007 -2,-5.70007c-0.3999,-2 -1.29993,-5 -2.09998,-6.5c-0.79993,-1.5 -1.5,-3.8999 -1.5,-5.29993c0,-1.40002 -0.69995,-3.40002 -1.5,-4.40002c-0.79993,-1.09998 -1.5,-3 -1.5,-4.19995c0,-1.20007 -0.90002,-4.1001 -2,-6.5c-1.09998,-2.40002 -2,-6.20007 -2,-8.40002c0,-2.20007 -0.69995,-4.90002 -1.5,-5.90002c-0.79993,-1.09998 -1.5,-2.90002 -1.5,-4c0,-1.19995 -1.19995,-4.59998 -2.59998,-7.59998c-1.40002,-3 -3.59998,-8.40002 -4.90002,-12c-1.19995,-3.59998 -3.19995,-9 -4.5,-12c-1.19995,-3 -3.79993,-9.20007 -5.59998,-13.70007c-1.90002,-4.5 -3.40002,-9.09998 -3.40002,-10.09998c0,-1.09998 -0.59998,-2.19995 -1.40002,-2.5c-0.69995,-0.29993 -1.59998,-1.69995 -2,-3.19995c-0.3999,-1.40002 -3.3999,-8.40002 -6.69995,-15.5c-3.19995,-7.20007 -6.19995,-14.30005 -6.5,-16c-0.40002,-1.59998 -1.30005,-3.5 -2,-4.09998c-0.80005,-0.6001 -1.40002,-1.80005 -1.40002,-2.6001c0,-0.79993 -0.90002,-2.59998 -2,-4c-1.09998,-1.3999 -2,-3.3999 -2,-4.29993c0,-1 -0.69995,-2.30005 -1.5,-3c-0.79993,-0.70007 -1.5,-2.09998 -1.5,-3.20007c0,-1.09998 -1.09998,-3.29993 -2.29993,-4.79993c-1.30005,-1.5 -4.5,-7 -7.20007,-12.09998c-2.59998,-5.20007 -5.79993,-10.80005 -7,-12.40002c-1.19995,-1.70007 -3.5,-5.40002 -5,-8.40002c-1.5,-3 -4.19995,-7.69995 -6.09998,-10.40002c-1.90002,-2.69995 -3.40002,-5.5 -3.40002,-6.29993c0,-0.80005 -0.40002,-1.40002 -0.90002,-1.40002c-0.79993,0 -6.3999,-8.20007 -12.59998,-18.40002c-4.5,-7.40002 -10,-15.30005 -13.59998,-19.59998c-2.19995,-2.59998 -3.90002,-5 -3.90002,-5.5c0,-0.5 -1.69995,-2.90002 -3.79993,-5.40002c-2.1001,-2.5 -4.70007,-6 -5.70007,-7.59998c-1.09998,-1.70007 -4.09998,-5.5 -6.79993,-8.5c-2.70007,-3 -6,-7.09998 -7.30005,-9.20007c-1.30005,-2.09998 -5.19995,-6.79993 -8.5,-10.5c-3.40002,-3.79993 -9.5,-10.8999 -13.5,-15.79993c-9.90002,-12.30005 -72,-72.90002 -80.40002,-78.5c-1.90002,-1.30005 -6.29993,-5 -9.69995,-8.20007c-3.40002,-3.19995 -6.59998,-5.79993 -7.20007,-5.79993c-0.59998,0 -3.79993,-2.5 -7.19995,-5.5c-3.40002,-3 -6.69995,-5.5 -7.30005,-5.5c-0.69995,0 -2.8999,-1.59998 -4.8999,-3.5c-2,-1.90002 -4.40002,-3.5 -5.20007,-3.5c-0.79993,0 -3.19995,-1.59998 -5.40002,-3.5c-2.09998,-1.90002 -4.5,-3.5 -5.29993,-3.5c-0.80005,0 -2.90002,-1.59998 -4.80005,-3.5c-1.90002,-1.90002 -4,-3.5 -4.79993,-3.5c-0.80005,0 -3.20007,-1.59998 -5.30005,-3.5c-2.19995,-1.90002 -4.5,-3.5 -5.30005,-3.5c-0.69995,0 -3,-1.59998 -5,-3.5c-2.09998,-1.90002 -4.59998,-3.5 -5.5,-3.5c-1,0 -2.3999,-0.70007 -3.09998,-1.5c-0.69995,-0.80005 -1.79993,-1.5 -2.5,-1.5c-0.69995,0 -2.40002,-0.90002 -3.79993,-2c-1.40002,-1.09998 -3.1001,-2 -3.70007,-2c-0.69995,0 -3,-1.59998 -5.09998,-3.5c-2.19995,-1.90002 -4.69995,-3.5 -5.80005,-3.5c-1,0 -2.3999,-0.70007 -3.09998,-1.5c-0.69995,-0.80005 -1.79993,-1.5 -2.5,-1.5c-0.69995,0 -2.40002,-0.90002 -3.79993,-2c-1.40002,-1.09998 -3.5,-2 -4.6001,-2c-1.19995,0 -2.3999,-0.70007 -2.69995,-1.5c-0.40002,-0.80005 -1.5,-1.5 -2.5,-1.5c-1,0 -2.80005,-0.90002 -3.90002,-2c-1.09998,-1.09998 -2.79993,-2 -3.90002,-2c-1,0 -2.3999,-0.59998 -3,-1.40002c-0.59998,-0.80005 -3.09998,-1.69995 -5.59998,-2c-2.40002,-0.40002 -4.90002,-1.40002 -5.5,-2.09998c-0.69995,-0.80005 -2,-1.5 -3,-1.5c-1,0 -2.29993,-0.59998 -2.90002,-1.40002c-0.69995,-0.80005 -2.59998,-1.80005 -4.19995,-2.09998c-1.69995,-0.40002 -3.30005,-1.30005 -3.59998,-2.09998c-0.30005,-0.80005 -1.5,-1.40002 -2.80005,-1.40002c-1.19995,0 -2.79993,-0.70007 -3.5,-1.5c-0.69995,-0.80005 -1.79993,-1.5 -2.5,-1.5c-0.69995,0 -2.40002,-0.90002 -3.79993,-2c-1.40002,-1.09998 -3.30005,-2 -4.20007,-2c-0.90002,0 -2.79993,-0.90002 -4.19995,-2c-1.40002,-1.09998 -3.09998,-2 -3.80005,-2c-0.69995,0 -1.79993,-0.70007 -2.5,-1.5c-0.69995,-0.80005 -2.09998,-1.5 -3.09998,-1.5c-0.90002,0 -2.40002,-0.70007 -3.19995,-1.5c-0.80005,-0.80005 -3.30005,-1.70007 -5.6001,-2.09998c-2.19995,-0.40002 -4.59998,-1.30005 -5.19995,-2c-0.59998,-0.80005 -2.40002,-1.40002 -4,-1.40002c-1.59998,0 -4.59998,-0.90002 -6.59998,-2c-2.09998,-1.09998 -5,-2 -6.40002,-2c-1.5,0 -3.19995,-0.70007 -3.90002,-1.5c-0.69995,-0.80005 -2.69995,-1.5 -4.5,-1.5c-1.79993,0 -3.79993,-0.70007 -4.5,-1.5c-0.59998,-0.70007 -3.09998,-1.70007 -5.5,-2.09998c-2.5,-0.30005 -5,-1.20007 -5.59998,-2c-0.59998,-0.80005 -2.59998,-1.40002 -4.30005,-1.40002c-1.69995,0 -4.19995,-0.70007 -5.3999,-1.59998c-1.20007,-0.80005 -4.70007,-1.80005 -7.70007,-2.1001c-3,-0.29993 -6,-1.19995 -6.59998,-1.8999c-0.59998,-0.80005 -2.59998,-1.40002 -4.30005,-1.40002c-1.69995,0 -4.3999,-0.90002 -6.09998,-2c-1.59998,-1.09998 -4.40002,-2 -6.09998,-2c-1.69995,0 -3.69995,-0.70007 -4.40002,-1.5c-0.79993,-1 -3.09998,-1.5 -6.90002,-1.5c-3.09998,0 -6.8999,-0.70007 -8.59998,-1.59998c-1.59998,-0.80005 -5.90002,-1.80005 -9.5,-2.1001c-3.59998,-0.29993 -7.40002,-1.09998 -8.5,-1.79993c-1.09998,-0.59998 -5.29993,-1.40002 -9.19995,-1.70007c-4,-0.29993 -7.90002,-1.09998 -8.70007,-1.69995c-0.79993,-0.69995 -5.59998,-1.5 -10.79993,-1.69995c-5.09998,-0.30005 -10.90002,-1.20007 -12.80005,-1.90002c-1.90002,-0.80005 -7.90002,-1.59998 -13.19995,-1.80005c-5.40002,-0.19995 -10.40002,-0.90002 -11.20007,-1.59998c-0.69995,-0.59998 -7.59998,-1.59998 -15.19983,-2.09998c-7.70007,-0.5 -16.99988,-1.40002 -20.8999,-1.90002c-3.80005,-0.59998 -31.09961,-1 -60.59985,-1l-53.60028,-0.09998l-0.59949,6.69995z" id="path11"/>
  <path fill="#008080" d="m2372,1737.80005c0,0.69995 -1.5,1.19995 -3.6001,1.19995c-1.8999,0 -3.2998,0.40002 -3,0.90002c0.40015,0.5 -2.7998,0.90002 -7.09985,0.90002c-4.6001,0.09998 -7.90015,0.5 -8.1001,1.09998c-0.5,1.5 -5.5,1.40002 -7,-0.09998c-0.8999,-0.90002 -1.19995,-0.90002 -1.19995,0c0,0.80005 -1.69995,1.19995 -4.6001,1.19995c-2.69995,0 -4.2998,0.40002 -3.8999,1c0.8999,1.5 -6.80005,1.20007 -8.3999,-0.29993c-1.1001,-1 -1.30005,-1 -0.7002,0c0.5,1 -0.5,1.29993 -3.7998,1.29993c-2.5,0 -4.6001,0.40002 -4.6001,1c0,1.40002 -5.30005,1.20007 -6.8999,-0.29993c-1.1001,-1 -1.30005,-1 -0.7002,0c0.5,1 -0.3999,1.29993 -3.3999,1.29993c-2.5,0 -3.8999,0.40002 -3.5,1c0.3999,0.6001 -1.80005,1 -6,1c-4.5,0 -6.3999,0.30005 -6,1.1001c0.5,0.69995 -0.30005,1 -2.1001,0.79993c-5.19995,-0.40002 -8.5,0.09998 -7.8999,1.09998c0.3999,0.6001 -1.19995,1 -4,1c-2.80005,0 -4.3999,0.40002 -4,1c0.3999,0.6001 -1.19995,1 -4,1c-2.80005,0 -4.3999,0.40002 -4,1c0.3999,0.6001 -0.80005,1 -3,1c-2.19995,0 -3.3999,0.40002 -3,1c0.3999,0.6001 -1,1 -3.3999,1c-2.30005,0 -4.1001,0.40002 -4.1001,1c0,0.5 -1.30005,1 -3,1c-1.6001,0 -3,0.40002 -3,1c0,0.5 -1.30005,1 -3,1c-1.6001,0 -3,0.40002 -3,1c0,0.5 -1.30005,1 -3,1c-1.6001,0 -3,0.40002 -3,1c0,0.5 -1.30005,1 -3,1c-1.6001,0 -3,0.40002 -3,1c0,0.5 -1.30005,1 -3,1c-1.6001,0 -3,0.40002 -3,1c0,0.5 -1.30005,1 -3,1c-1.6001,0 -3,0.40002 -3,1c0,0.5 -1.19995,1 -2.6001,1c-1.3999,0 -2.2998,0.40002 -1.8999,1c0.3999,0.6001 -0.80005,1 -3,1c-2.19995,0 -3.3999,0.40002 -3,1c0.3999,0.6001 -0.80005,1 -3,1c-2.3999,0 -3.3999,0.40002 -2.8999,1.1001c0.3999,0.69995 0,0.8999 -1.40015,0.5c-1.19995,-0.40002 -2.59985,-0.1001 -3.5,0.8999c-0.8999,0.80005 -2.69995,1.5 -4.09985,1.5c-1.40015,0 -2.6001,0.40002 -2.6001,1c0,0.5 -1.19995,1 -2.6001,1c-1.3999,0 -2.2998,0.40002 -1.8999,1c0.3999,0.6001 -0.80005,1 -3,1c-2.19995,0 -3.3999,0.40002 -3,1c0.3999,0.6001 -0.69995,1 -2.3999,1c-1.7002,0 -3.1001,0.40002 -3.1001,1c0,0.5 -1.19995,1 -2.6001,1c-1.59985,0 -2.2998,0.40002 -1.7998,1.1001c0.3999,0.69995 0,0.8999 -1.40015,0.5c-1.19995,-0.40002 -2.59985,-0.1001 -3.5,0.8999c-0.8999,0.80005 -2.5,1.5 -3.69995,1.5c-1.19995,0 -1.80005,0.40002 -1.5,1c0.3999,0.6001 -0.69995,1 -2.3999,1c-1.7002,0 -3.1001,0.40002 -3.1001,1c0,0.5 -1.19995,1 -2.6001,1c-1.59985,0 -2.2998,0.40002 -1.7998,1.1001c0.3999,0.69995 0,0.8999 -1.40015,0.5c-1.19995,-0.40002 -2.59985,-0.1001 -3.5,0.8999c-0.8999,0.80005 -2.30005,1.5 -3.09985,1.5c-0.90015,0 -1.6001,0.40002 -1.6001,1c0,0.5 -0.8999,1 -2,1c-1.1001,0 -2,0.40002 -2,1c0,0.5 -1.19995,1 -2.6001,1c-1.3999,0 -2.2998,0.40002 -1.8999,1c0.3999,0.6001 -0.5,1 -2,1c-1.5,0 -2.3999,0.40002 -2,1c0.30005,0.5 -0.30005,1 -1.3999,1c-1.2002,0 -2.1001,0.40002 -2.1001,1c0,0.5 -0.8999,1 -2,1c-1.1001,0 -2,0.40002 -2,1c0,0.5 -0.8999,1 -2,1c-1.1001,0 -2,0.40002 -2,1c0,0.5 -0.8999,1 -2,1c-1.1001,0 -2,0.40002 -2,1c0,0.5 -0.8999,1 -2,1c-1.1001,0 -2,0.40002 -2,0.80005c0,0.40002 -1.5,1.19995 -3.19995,1.80005c-1.80005,0.5 -3.19995,1.5 -3,2.19995c0.09985,0.69995 -0.90015,1.19995 -2.40015,1.19995c-1.3999,0 -2.2998,0.40002 -1.8999,1c0.30005,0.5 -0.30005,1 -1.3999,1c-1.2002,0 -2.1001,0.40002 -2.1001,1c0,0.5 -0.69995,1 -1.6001,1c-0.7998,0 -1.19995,0.40002 -0.8999,1c0.30005,0.5 -0.30005,1 -1.3999,1c-1.2002,0 -2.1001,0.40002 -2.1001,1c0,0.5 -0.8999,1 -2,1c-1.1001,0 -2,0.40002 -2,0.80005c0,0.40002 -1.5,1.19995 -3.19995,1.80005c-1.80005,0.5 -3.19995,1.5 -3,2.19995c0.09985,0.69995 -0.90015,1.19995 -2.40015,1.19995c-1.3999,0 -2.2998,0.40002 -1.8999,1c0.30005,0.5 -0.19995,1 -1.19995,1c-1,0 -2.5,0.90002 -3.30005,2c-0.80005,1.1001 -2.19995,2 -3.19995,2c-1,0 -1.80005,0.40002 -1.80005,1c0,0.5 -0.8999,1 -2,1c-1.1001,0 -2,0.40002 -2,1c0,0.5 -0.69995,1 -1.6001,1c-0.8999,0 -2.8999,1.30005 -4.3999,3c-1.5,1.6001 -3.5,3 -4.40002,3c-0.90002,0 -1.59998,0.40002 -1.59998,1c0,0.5 -0.69995,1 -1.59998,1c-0.80005,0 -1.20007,0.40002 -0.90002,1c0.30005,0.5 -0.09998,1 -1,1c-0.90002,0 -1.30005,0.40002 -1,1c0.30005,0.5 -0.30005,1 -1.40002,1c-1.19995,0 -2.09998,0.40002 -2.09998,1c0,0.5 -0.69995,1 -1.59998,1c-0.90002,0 -2.90002,1.30005 -4.40002,3c-1.5,1.6001 -3.5,3 -4.40002,3c-0.90002,0 -1.59998,0.40002 -1.59998,1c0,0.5 -0.69995,1 -1.59998,1c-0.80005,0 -1.20007,0.40002 -0.90002,1c0.30005,0.5 -0.09998,1 -1,1c-1,0 -3,1.30005 -4.5,3c-1.5,1.6001 -3.30005,3 -4,3c-0.59998,0 -0.80005,0.40002 -0.5,1c0.40002,0.6001 -0.5,1 -2,1c-1.5,0 -2.40002,0.40002 -2,1c0.30005,0.5 -0.09998,1 -1,1c-0.90002,0 -1.30005,0.40002 -1,1c0.30005,0.5 -0.09998,1 -1,1c-0.90002,0 -1.30005,0.40002 -1,1c0.30005,0.5 -0.09998,1 -1,1c-0.90002,0 -1.40002,0.40002 -1.09998,0.90002c0.29993,0.5 -0.70007,1.09998 -2.40002,1.40002c-1.59998,0.40002 -4.90002,2.69995 -7.40002,5.19995c-2.5,2.5 -5,4.5 -5.59998,4.5c-0.59998,0 -0.80005,0.40002 -0.5,1c0.30005,0.5 -0.30005,1 -1.40002,1c-1.19995,0 -2.09998,0.40002 -2.09998,1c0,0.5 -0.69995,1 -1.59998,1c-0.80005,0 -1.20007,0.40002 -0.90002,1c0.30005,0.5 -0.09998,1 -1,1c-0.90002,0 -1.30005,0.40002 -1,1c0.30005,0.5 -0.09998,1 -1,1c-0.90002,0 -1.30005,0.40002 -1,1c0.30005,0.5 -0.09998,1 -1,1c-0.90002,0 -1.30005,0.40002 -1,1c0.30005,0.5 -0.09998,1 -1,1c-0.90002,0 -1.30005,0.40002 -1,1c0.30005,0.5 -0.09998,1 -1,1c-0.90002,0 -1.30005,0.40002 -1,1c0.30005,0.5 -0.09998,1 -1,1c-0.90002,0 -3.40002,1.80005 -5.5,4c-2.09998,2.20007 -4.40002,4 -5,4c-0.59998,0 -0.80005,0.40002 -0.5,1c0.30005,0.5 -0.09998,1 -1,1c-0.90002,0 -1.30005,0.40002 -1,1c0.30005,0.5 -0.09998,1 -1,1c-0.90002,0 -1.30005,0.40002 -1,1c0.30005,0.5 -0.09998,1 -1,1c-0.90002,0 -1.30005,0.40002 -1,1c0.30005,0.5 -0.09998,1 -1,1c-2,0 -63.80005,61.80005 -63,63c0.40002,0.6001 -0.09998,1 -1,1c-0.90002,0 -1.30005,0.40002 -1,1c0.30005,0.5 -0.09998,1 -1,1c-0.90002,0 -1.30005,0.40002 -1,1c0.30005,0.5 -0.09998,1 -1,1c-0.90002,0 -1.30005,0.40002 -1,1c0.30005,0.5 -0.09998,1 -1,1c-0.90002,0 -1.30005,0.40002 -1,1c0.30005,0.5 -0.19995,1 -1.09998,1c-1,0 -1.5,0.30005 -1.09998,0.6001c0.29993,0.3999 -0.1001,1.29993 -0.90002,2.09998c-0.80005,0.79993 -1.20007,1.90002 -0.90002,2.40002c0.40002,0.5 -0.09998,0.8999 -1,0.8999c-0.90002,0 -1.30005,0.40002 -1,1c0.30005,0.5 -0.19995,1 -1.09998,1c-1,0 -1.5,0.30005 -1.09998,0.6001c0.29993,0.29993 -1,2.19995 -2.90002,4.09998c-1.90002,1.90002 -3.20007,3.79993 -2.90002,4.40002c0.40002,0.5 -0.09998,0.8999 -1,0.8999c-0.90002,0 -1.40002,0.40002 -1.09998,0.90002c0.29993,0.5 -0.09998,1.09998 -0.90002,1.5c-0.80005,0.30005 -1.5,1.20007 -1.5,2.09998c0,0.80005 -0.5,1.5 -1.19995,1.5c-0.6001,0 -0.90002,0.30005 -0.5,0.6001c0.29993,0.29993 -0.5,1.69995 -1.90002,3.09998c-1.30005,1.29993 -2.20007,2.90002 -1.90002,3.40002c0.40002,0.5 -0.09998,0.8999 -1,0.8999c-0.90002,0 -1.30005,0.40002 -1,1c0.30005,0.5 -0.09998,1 -1,1c-0.90002,0 -1.30005,0.40002 -1,1c0.30005,0.5 -0.19995,1 -1.09998,1c-1,0 -1.5,0.30005 -1.09998,0.6001c0.29993,0.3999 -0.1001,1.29993 -0.90002,2.09998c-0.80005,0.79993 -1.20007,1.90002 -0.90002,2.40002c0.40002,0.5 -0.09998,0.8999 -1,0.8999c-0.90002,0 -1.30005,0.40002 -1,1c0.30005,0.5 0,1 -0.90002,1c-0.79993,0 -1.29993,0.80005 -1.19995,1.70007c0.19995,1 0,1.99988 -0.5,2.29993c-0.40002,0.30005 -0.90002,1.19995 -1.09998,2c-0.20007,0.80005 -0.90002,2.1001 -1.6001,2.80005c-0.69995,0.80005 -1,1.69995 -0.69995,2.19995c0.30005,0.5 0.09998,1 -0.40002,1.19995c-0.5,0.1001 -1.09998,1 -1.29993,1.80005c-0.20007,0.80005 -0.90002,2.1001 -1.6001,2.80005c-0.69995,0.80005 -1,1.80005 -0.69995,2.30005c0.40002,0.5 0.09998,0.8999 -0.40002,0.8999c-0.59998,0 -1,0.30005 -1,0.69995c0.30005,2.1001 -0.29993,3.30005 -1.69995,3.30005c-0.80005,0 -1.30005,0.40015 -1,0.90015c0.40002,0.5 0.19995,1.09985 -0.30005,1.2998c-0.5,0.1001 -1.09998,1 -1.29993,1.80005c-0.20007,0.80005 -0.90002,2.1001 -1.6001,2.80005c-0.69995,0.80005 -1,1.69995 -0.69995,2.19995c0.30005,0.5 0.09998,1 -0.40002,1.19995c-0.5,0.1001 -1.09998,1 -1.29993,1.80005c-0.20007,0.80005 -0.90002,2.1001 -1.6001,2.80005c-0.69995,0.80005 -1,1.80005 -0.69995,2.30005c0.40002,0.5 -0.09998,0.8999 -1,0.8999c-0.90002,0 -1.40002,0.40015 -1.09998,0.90015c0.40002,0.5 0.19995,1.09985 -0.30005,1.2998c-0.5,0.1001 -1.09998,1 -1.29993,1.80005c-0.20007,0.80005 -0.6001,1.69995 -1,2c-0.30005,0.30005 -0.80005,1.19995 -1,2c-0.20007,0.80005 -0.90002,2.1001 -1.6001,2.80005c-0.69995,0.80005 -1,1.69995 -0.69995,2.19995c0.30005,0.5 0.09998,1 -0.40002,1.19995c-0.5,0.1001 -1.09998,1 -1.29993,1.80005c-0.20007,0.80005 -0.90002,2.1001 -1.6001,2.80005c-0.69995,0.80005 -1,1.69995 -0.69995,2.19995c0.30005,0.5 0.09998,1 -0.40002,1.19995c-0.5,0.1001 -1.09998,1 -1.29993,1.80005c-0.20007,0.80005 -0.90002,2.1001 -1.6001,2.80005c-0.69995,0.80005 -1,1.69995 -0.69995,2.19995c0.30005,0.5 0.09998,1 -0.40002,1.19995c-0.5,0.1001 -1.09998,1 -1.29993,1.80005c-0.20007,0.80005 -0.80005,2 -1.5,2.80005c-0.70007,0.69995 -1,1.8999 -0.70007,2.69995c0.30005,0.80005 -0.09998,2.1001 -1,3c-0.79993,0.90015 -1.29993,2.19995 -1,3c0.30005,0.80005 -0.09998,2.19995 -1,3.1001c-0.90002,0.80005 -1.40002,1.8999 -1.09998,2.3999c0.30005,0.5 0.09998,1 -0.40002,1.19995c-0.5,0.1001 -1.09998,1.40015 -1.29993,2.80005c-0.1001,1.40015 -0.6001,2.69995 -1,3c-0.30005,0.30005 -0.80005,1.19995 -1,2c-0.20007,0.80005 -0.90002,2.1001 -1.6001,2.80005c-0.69995,0.80005 -1,1.69995 -0.69995,2.19995c0.30005,0.5 0,1 -0.59998,1.19995c-0.5,0.2002 -1.09998,1.90015 -1.09998,3.80005c-0.1001,1.90015 -0.40002,3.69995 -0.80005,4c-0.5,0.30005 -1,1.6001 -1.09998,3c-0.20007,1.40015 -0.80005,2.80005 -1.20007,3.1001c-0.5,0.30005 -0.8999,2.09985 -0.8999,4c-0.1001,1.8999 -0.40002,3.59985 -0.80005,3.8999c-0.5,0.30005 -1,1.6001 -1.09998,3c-0.20007,1.40015 -0.70007,2.69995 -1,3c-0.40002,0.30005 -0.90002,1.6001 -1,3c-0.20007,1.40015 -1,3.1001 -1.70007,3.90015c-1,1 -3.39941,0.7002 -2.69946,1.2002c0.80005,0.3999 2.89954,2.2998 1.59949,3.7998c-1.09998,1.19995 -3.19971,0.80029 -2.89966,1.7002c0.29993,0.80005 1.59973,3.89966 0.99963,4.2998c-0.59998,0.2998 -2.99963,0.1001 -3.19971,0.90015c-0.19995,0.80005 0.89978,3.2998 0.19971,3.99976c-0.69995,0.80005 -1,1.69995 -0.69995,2.19995c0.30005,0.5 0.09998,1 -0.40002,1.19995c-0.5,0.1001 -1.09998,1.40015 -1.29993,2.80005c-0.1001,1.40015 -0.90002,3.1001 -1.6001,3.80005c-0.69995,0.80005 -1,1.69995 -0.69995,2.19995c0.30005,0.5 0.09998,1 -0.40002,1.19995c-0.5,0.1001 -1.09998,1.40015 -1.29993,2.80005c-0.1001,1.40015 -0.90002,3.1001 -1.6001,3.80005c-0.69995,0.80005 -1,1.69995 -0.69995,2.19995c0.30005,0.5 0.09998,1 -0.40002,1.19995c-0.5,0.1001 -1.09998,1 -1.29993,1.80005c-0.20007,0.80005 -0.90002,2.1001 -1.6001,2.80005c-0.69995,0.80005 -1,1.80005 -0.69995,2.30005c0.40002,0.5 0.09998,0.8999 -0.59998,0.8999c-0.59998,0 -0.90002,0.80005 -0.59998,2c0.29993,1.1001 -0.30005,2.90015 -1.40002,4.1001c-1,1.19995 -1.59998,2.5 -1.40002,2.8999c0.30005,0.5 0.09998,1 -0.40002,1.19995c-0.5,0.1001 0.99963,1.30005 0.79968,2.1001c-0.20007,0.7998 -1.09998,1.69995 -3.59961,2.5c-0.70007,0.69995 1.49951,2.2998 1.79944,3.09985c-0.90332,2.17578 -3.21594,2.51074 -3.24707,2.26074c-0.59998,0.30005 1.54712,0.7395 1.34705,1.53955c-0.19995,0.80005 -3.29944,2.3999 -3.99951,3.19995c-1,1 5.15857,0.05396 3.86035,2.77002c-0.4165,2.39844 -0.66064,0.72998 -2.06055,2.32983c-1.40002,1.6001 -4.69946,2.6001 -3.89941,3c0.69995,0.5 2.89941,2.09985 1.79944,3.2998c-0.90002,0.90015 -2.89966,3.69995 -2.89966,5.3999c-0.09998,1.80005 -0.80005,3.30005 -2.2998,2.40039c-0.5,0.3999 -0.90002,2.59985 -0.90002,5c0.09998,2.3999 -0.40002,4.59985 -0.90002,5c-0.5,0.30005 -1,2.69995 -1.09998,5.19995c0,2.6001 -0.40002,4.69995 -0.80005,4.69995c-1.19995,0 -1.79993,4.90015 -0.69995,5.30005c0.5,0.1001 0.19995,1 -0.69995,1.8999c-0.90002,1 -1.70007,3.5 -1.80005,6c0,2.40015 -0.40002,4.5 -0.90002,4.80005c-0.40002,0.30005 -0.90002,1.6001 -1,3c-0.19995,1.40015 -0.79993,2.80005 -1.29993,3.1001c-0.40002,0.3999 -0.80005,2.59985 -0.80005,5c0.09998,2.3999 -0.30005,4.59985 -0.80005,4.8999c-0.3999,0.30005 -0.8999,2.1001 -1.09998,4c-0.19995,1.90015 -0.69995,3.69995 -1,4c-0.40002,0.30005 -0.90002,1.6001 -1,3c-0.19995,1.40015 -0.90002,3.1001 -1.59998,3.80005c-0.69995,0.69995 -0.90002,2 -0.59998,2.80005c0.29993,0.8999 0,1.8999 -0.59998,2.30005c-0.70007,0.5 -1.30005,2.2998 -1.30005,4.19995c-0.09998,1.8999 -0.5,3.69995 -1.09998,4c-0.5,0.3999 -0.90002,2.59985 -1,5c0,2.3999 -0.40002,4.69995 -0.90002,5c-0.40002,0.30005 -0.90002,2.5 -1,5c0,2.3999 -0.5,4.69995 -1,5c-0.40002,0.30005 -0.90002,2.5 -1,5c0,2.3999 -0.5,4.69995 -1,5c-0.5,0.30005 -0.90002,2.69995 -1,5.19995c0,2.6001 -0.40002,4.69995 -0.80005,4.69995c-0.3999,0 -1,1.1001 -1.19995,2.5c-0.30005,1.40015 -0.19995,2.5 0.19995,2.5c0.90002,0 -0.09998,6.40015 -1.19995,7.1001c-0.5,0.30005 -0.90002,3 -1,6c0,3 -0.40002,5.69995 -0.90002,6c-0.5,0.30005 -1,2.5 -1.09998,5c0,2.3999 -0.59998,4.69995 -1.09998,5.09985c-0.59998,0.40015 -1.09998,4.7002 -1.09998,10c0,5.1001 -0.40002,9.6001 -0.90002,9.90015c-0.40002,0.30005 -0.80005,3 -0.90002,6c0,3 -0.40002,5.69995 -0.90002,6c-0.5,0.30005 -1,2.5 -1.09998,5c0,2.3999 -0.59998,4.69995 -1.09998,5c-0.5,0.3999 -1,3.09985 -1,6c-0.09998,3 -0.5,5.69995 -1,6c-0.5,0.30005 -0.80005,3.5 -0.80005,7c0,3.5 -0.5,6.59985 -1,7c-0.59998,0.30005 -1,3 -1.09998,6c0,3 -0.40002,5.69995 -0.90002,6c-0.5,0.30005 -1,2.5 -1.09998,5c0,2.3999 -0.5,4.59985 -0.90002,4.8999c-0.40002,0.30005 -0.4668,1.2395 -0.86365,2.11816c-0.33948,0.75146 -0.40063,1.48804 -0.98254,2.76074c-0.23572,1.31885 -0.5553,2.20508 -0.79688,3.19849c-0.20288,1.20947 -0.09802,0.88599 -0.30872,2.33447c-0.04895,1.854 -1.94824,21.28809 -1.94824,78.78809c0,47.30005 -0.3999,78.80005 -1,79c-0.5,0.2002 -1,7.7002 -1.09998,16.80005c-0.09998,9.1001 -0.5,16.69995 -0.90002,17c-1.19995,0.80005 -1.59998,98.19995 -0.5,100c1.30005,2 1.30005,26 0,26c-0.5,0 -0.29993,0.5 0.5,1c0.80005,0.5 1.1001,1 0.6001,1c-0.5,0 -0.20007,0.69995 0.5,1.6001c1.5,1.8999 2.09998,20.3999 0.59998,20.3999c-1.09998,0 -0.70007,14.19995 0.5,15.6001c0.5,0.69995 0.69995,24.5 0.59998,55.30005c-0.19995,29.7998 0.09998,54.19995 0.5,54.3999c0.5,0.1001 0.51318,2.30005 0.71326,4.69995c0.19995,2.5 0.22363,4.39063 0.28601,6.26807c-0.04492,1.18311 -0.27515,6.15674 -0.27515,12.75684c0.19995,10.30005 0.35144,10.29956 0.49036,13.88477c-0.08899,2.81201 -0.14124,1.26025 -0.05298,2.82349c0.13269,2.35327 0.43872,22.26685 -0.86133,22.26685c-1.40002,0 -1.59998,462.1001 -0.19995,463.19995c1.40002,0.90015 1.40002,10.1001 0.19995,11c-0.69995,0.5 -0.59998,0.80005 0.20007,0.80005c0.69995,0 1,0.40015 0.69995,1c-0.40002,0.6001 0.40002,0.90015 1.69995,0.69995c1.30005,-0.09985 2.20007,0.2002 2.1001,0.80005c-0.1001,0.6001 2.19995,0.90015 5.79993,0.69995c3.30005,-0.19995 6.70007,-0.09985 7.70007,0.30005c2.19995,0.80005 110.19995,1.19995 110.19995,0.30005c0,-0.3999 2.09998,-0.80005 4.80005,-1c4.29993,-0.30005 4.69995,-0.5 5,-3.1001c0.19995,-1.5 0.59998,-2.69995 1,-2.69995c0.8999,0 0.8999,2.80005 1,-210.30005c0,-105.69995 0.5,-179.69995 1,-179.69995c0.5,0 0.79993,-8.19995 0.79993,-18.5c-0.09998,-11.3999 0.30005,-18.80005 0.90002,-19.30005c0.59998,-0.3999 1,-14.2998 1.09998,-37.69995c0.09998,-57.69995 0.5,-78.5 1.59998,-78.5c0.6001,0 0.80005,-0.69995 0.40002,-1.5c-0.29993,-0.80005 -0.19995,-1.5 0.20007,-1.5c0.3999,0 0.5,-2.30005 0.3999,-5c-0.19995,-2.8999 0.1001,-5.69995 0.80005,-6.5c0.80005,-1 1,-5.3999 0.40002,-16.30005c-0.5,-11 -0.40002,-15.09985 0.5,-15.59985c0.69995,-0.40015 0.90002,-1.6001 0.59998,-2.69995c-0.40002,-1 -0.30005,-1.90015 0.19995,-1.90015c1.1001,0 1.1001,-1.8999 1.20007,-32.80005c0.09998,-16.2998 0.5,-26.19995 1.09998,-26.19995c0.59998,0 0.69995,-1.80005 0.30005,-4.59985c-0.40002,-3 -0.20007,-4.80005 0.5,-5.30005c1.59998,-0.90015 2.69995,-12.19995 2.3999,-24.40015c-0.09998,-6.3999 0.20007,-9.69995 0.90002,-9.69995c0.59998,0 0.90002,-0.69995 0.5,-1.5c-0.29993,-0.80005 -0.09998,-1.5 0.5,-1.5c0.59998,0 0.70007,-0.5 0.40002,-1c-0.30005,-0.59985 -0.30005,-1.5 0.09998,-2.09985c0.40002,-0.7002 0.80005,-5 0.90002,-9.80005c0.19995,-10.5 0.80005,-15.40015 2.09998,-15.80005c0.5,-0.19995 0.80005,-3.3999 0.59998,-7.30005c-0.29993,-4.80005 0,-7 0.80005,-7c0.80005,0 0.90002,-1 0.5,-3.09985c-0.40002,-1.7002 -0.19995,-4.2002 0.30005,-5.7002c0.59998,-1.5 1.3999,-3.59985 1.79993,-4.69995c0.40002,-1.09985 0.59998,-6.19995 0.5,-11.30005c-0.19995,-6 0.09998,-9.19995 0.80005,-9.19995c0.59998,0 0.79993,-0.69995 0.5,-1.5c-0.40002,-0.80005 -0.09998,-1.5 0.5,-1.5c0.59998,0 0.79993,-0.69995 0.5,-1.5c-0.40002,-0.80005 -0.20007,-1.5 0.19995,-1.5c0.5,0 1,-3.5 1.09998,-7.80005c0.20007,-12.7998 0.70007,-17.5 1.90002,-17.8999c0.59998,-0.19995 0.90002,-1.5 0.59998,-2.80005c-0.19995,-1.3999 0.1001,-3.09985 0.70007,-3.8999c0.79993,-0.90015 1,-3.90015 0.5,-9.40015c-0.5,-5.5 -0.30005,-8.09985 0.5,-8.59985c0.59998,-0.40015 0.90002,-1.19995 0.5,-1.69995c-0.30005,-0.5 0,-1.7002 0.69995,-2.5c0.70007,-0.90015 1.20007,-3.6001 1,-6.40015c-0.09998,-2.59985 0.20007,-5.09985 0.80005,-5.3999c0.59998,-0.40015 0.69995,-1.40015 0.40002,-2.30005c-0.30005,-0.8999 0,-2.1001 0.79993,-2.69995c1.5,-1.19995 1.90002,-3.69995 2.20007,-13.40015c0.09998,-4 0.69995,-6.59985 1.5,-7.09985c0.79993,-0.5 1.29993,-1.1001 1.29993,-1.5c-0.09998,-0.30005 -0.09998,-0.90015 0,-1.40015c0,-0.3999 0,-2.7998 -0.09998,-5.2998c-0.09998,-2.6001 0.30005,-5 0.80005,-5.30005c0.59998,-0.30005 0.79993,-1.5 0.5,-2.6001c-0.30005,-1.19995 0,-2 0.59998,-2c0.69995,0 1,-0.3999 0.59998,-0.8999c-0.30005,-0.5 -0.09998,-1.19995 0.40002,-1.6001c0.59998,-0.30005 0.79993,-1.19995 0.5,-1.8999c-0.30005,-0.80005 -0.09998,-1.69995 0.5,-2c0.59998,-0.40015 0.79993,-1.30005 0.5,-2c-0.30005,-0.80005 -0.09998,-1.69995 0.40002,-2c0.5,-0.30005 0.69995,-1.69995 0.3999,-3.1001c-0.19995,-1.3999 0,-2.5 0.70007,-2.5c0.5,0 0.79993,-0.69995 0.5,-1.5c-0.30005,-0.80005 -0.20007,-2 0.19995,-2.69995c0.5,-0.69995 0.70007,-2.30005 0.5,-3.6001c-0.09998,-1.19995 0.20007,-2.19995 0.70007,-2.19995c0.59998,0 0.79993,-0.80005 0.5,-1.8999c-0.30005,-1 0,-2.19995 0.59998,-2.5c0.5,-0.40015 0.79993,-1.30005 0.40002,-2.1001c-0.30005,-0.80005 -0.20007,-2.30005 0.19995,-3.30005c0.5,-0.8999 0.69995,-2.69995 0.59998,-4c-0.09998,-1.19995 0.30005,-2.19995 0.90002,-2.19995c0.59998,0 0.90002,-0.3999 0.5,-0.8999c-0.30005,-0.5 0.19995,-1.69995 1.09998,-2.5c0.80005,-0.90015 1.20007,-1.6001 0.80005,-1.6001c-0.30005,0 -0.09998,-0.59985 0.5,-1.3999c0.59998,-0.69995 0.79993,-2.6001 0.5,-4.30005c-0.30005,-1.69995 0.09998,-4.5 1,-6.69995c0.90002,-2.1001 1.59998,-4.90015 1.59998,-6.19995c0,-1.30005 0.40002,-2.40015 0.90002,-2.40015c0.40002,0 0.59998,-1.09985 0.29993,-2.5c-0.19995,-1.3999 0,-3.09985 0.6001,-3.80005c0.59998,-0.69995 0.8999,-2.19995 0.59998,-3.3999c-0.30005,-1.1001 -0.09998,-2.3999 0.40002,-2.69995c0.59998,-0.30005 0.79993,-1.5 0.5,-2.6001c-0.30005,-1.19995 0,-2 0.59998,-2c0.69995,0 1,-0.3999 0.69995,-0.80005c-0.5,-0.8999 3.40002,-14.19995 4.40002,-15.19995c0.30005,-0.30005 0.59998,-1.8999 0.80005,-3.5c0.19995,-1.69995 0.69995,-3.09985 1.19995,-3.30005c0.5,-0.19995 0.69995,-0.8999 0.40002,-1.69995c-0.30005,-0.69995 -0.09998,-1.59985 0.40002,-1.8999c0.59998,-0.30005 0.79993,-1.5 0.5,-2.6001c-0.30005,-1.09985 0,-2 0.59998,-2c0.5,0 0.79993,-0.69995 0.5,-1.5c-0.30005,-0.80005 -0.20007,-2 0.19995,-2.69995c0.40002,-0.69995 0.90002,-2.1001 0.90002,-3.1001c0.09998,-1 0.59998,-2.19995 1.09998,-2.5c0.5,-0.3999 1.09998,-2.5 1.30005,-4.69995c0.19995,-2.19995 0.59998,-4.5 0.90002,-5c0.3999,-0.59985 0.5,-1.69995 0.3999,-2.5c-0.09998,-0.8999 0.70007,-2.59985 1.80005,-3.80005c1.40002,-1.5 1.90002,-2.8999 1.40002,-4.59985c-0.30005,-1.30005 -0.09998,-2.69995 0.40002,-3c0.59998,-0.30005 0.79993,-1.5 0.5,-2.6001c-0.30005,-1.19995 0,-2 0.59998,-2c0.69995,0 1,-0.3999 0.69995,-0.8999c-0.40002,-0.5 -0.09998,-2.19995 0.59998,-3.80005c0.6001,-1.5 1,-3.3999 0.90002,-4.1001c-0.09998,-0.59985 0.30005,-1.19995 0.90002,-1.19995c0.59998,0 0.80005,-0.3999 0.5,-1c-0.59998,-1 4.09998,-15.8999 5.5,-17.3999c0.5,-0.5 0.59998,-1.5 0.30005,-2.19995c-0.30005,-0.80005 0,-1.40015 0.59998,-1.40015c0.59998,0 0.79993,-0.69995 0.5,-1.5c-0.40002,-0.80005 -0.20007,-1.5 0.19995,-1.5c0.5,0 1,-1.3999 1.09998,-3.19995c0.1001,-1.69995 0.6001,-3.3999 1,-3.69995c0.5,-0.30005 0.90002,-1.90015 1,-3.5c0.1001,-1.6001 0.70007,-3.19995 1.30005,-3.6001c0.59998,-0.3999 0.80005,-1.5 0.40002,-2.3999c-0.40002,-1 -0.20007,-2.1001 0.5,-2.5c0.59998,-0.40015 1.40002,-1.80005 1.59998,-3.19995c0.30005,-1.30005 0.80005,-3.90015 1.09998,-5.7002c0.30005,-1.69995 1,-3.19995 1.5,-3.19995c0.5,0 0.90002,-0.8999 0.90002,-2c0,-1.09985 0.5,-2 1.09998,-2c0.70007,0 0.90002,-1 0.5,-2.69995c-0.79993,-2.80005 4,-18.30005 5.59998,-18.30005c0.5,0 0.6001,-0.5 0.30005,-1c-0.30005,-0.59985 -0.19995,-1 0.30005,-1c0.59998,0 0.8999,-0.59985 0.8999,-1.30005c-0.09998,-2 2.40002,-7.69995 3.5,-7.69995c0.5,0 0.6001,-0.5 0.30005,-1c-0.30005,-0.59985 -0.09998,-1 0.40002,-1c0.59998,0 1,-0.30005 0.90002,-0.80005c-0.40002,-1.5 2.3999,-8.19995 3.3999,-8.19995c0.6001,0 0.90002,-0.30005 0.6001,-0.59985c-0.5,-0.40015 0.29993,-3.30005 3.79993,-13.40015c0.30005,-0.80005 0.59998,-1.69995 0.70007,-2c0,-0.30005 0.79993,-1.30005 1.69995,-2.19995c0.90002,-1 2.40002,-4.3999 3.40002,-7.5c2.5,-7.8999 5.69995,-15.30005 6.59998,-15.30005c0.5,0 1.09998,-1.80005 1.5,-4c0.40002,-2.19995 1.40002,-4.80005 2.30005,-5.69995c1,-0.8999 1.59998,-1.8999 1.5,-2.19995c-0.5,-1.30005 1,-5.1001 1.8999,-5.1001c0.5,0 0.6001,-0.5 0.30005,-1c-0.30005,-0.59985 -0.19995,-1 0.30005,-1c0.59998,0 0.8999,-0.59985 0.8999,-1.30005c-0.09998,-2 2.40002,-7.69995 3.5,-7.69995c0.5,0 0.6001,-0.5 0.30005,-1c-0.30005,-0.59985 -0.09998,-1 0.40002,-1c0.59998,0 1,-0.30005 0.90002,-0.80005c-0.5,-1.2998 3.29993,-10.19995 4.29993,-10.19995c0.59998,0 0.70007,-0.5 0.40002,-1c-0.30005,-0.59985 -0.19995,-1 0.30005,-1c0.5,0 0.8999,-0.59985 0.8999,-1.30005c0,-2.09985 4.6001,-11.69995 5.5,-11.69995c0.5,0 0.6001,-0.5 0.30005,-1c-0.30005,-0.59985 -0.09998,-1 0.5,-1c0.59998,0 0.80005,-0.5 0.5,-1c-0.30005,-0.59985 -0.09998,-1 0.5,-1c0.59998,0 0.80005,-0.5 0.5,-1c-0.30005,-0.59985 -0.09998,-1 0.59998,-1c0.70007,0 1,-0.30005 0.59998,-0.59985c-0.69995,-0.7002 5,-12.6001 6.5,-13.5c0.5,-0.30005 0.90002,-0.90015 0.90002,-1.30005c-0.29993,-2 0.09998,-2.6001 1.59998,-2.6001c0.90002,0 1.30005,-0.30005 1,-0.59985c-0.69995,-0.80005 4.90002,-11.5 6.70007,-12.6001c0.59998,-0.3999 0.69995,-0.80005 0.29993,-0.80005c-0.5,0 0.70007,-2.19995 2.70007,-4.8999c2,-2.69995 3.59998,-5.30005 3.59998,-5.90015c0,-0.59985 1,-1.7998 2.19995,-2.59985c1.20007,-0.90015 1.90002,-1.6001 1.5,-1.6001c-1,0 3.90002,-8.80005 6.30005,-11.5c1,-1.09985 3.40002,-5.19995 5.40002,-9.19995c1.90002,-3.8999 4,-7.3999 4.59998,-7.80005c0.5,-0.30005 1.90002,-2.59985 3,-5c1.09998,-2.3999 3.1001,-5.19995 4.5,-6.30005c1.30005,-1.09985 2.1001,-2.19995 1.80005,-2.59985c-0.30005,-0.30005 -0.1001,-0.6001 0.5,-0.6001c0.69995,0 1.09985,-0.30005 1,-0.80005c-0.5,-1.8999 1.5,-5.2998 2.80005,-4.7998c0.7998,0.2998 1.2998,0.19995 0.8999,-0.30005c-0.30005,-0.5 0.1001,-1.6001 0.8999,-2.40015c0.80005,-0.7998 1.2002,-1.69995 0.90015,-2.09985c-0.40015,-0.30005 -0.1001,-0.6001 0.59985,-0.6001c0.7002,0 1,-0.3999 0.7002,-0.8999c-0.30005,-0.40015 0.8999,-2.6001 2.69995,-4.69995c1.80005,-2.1001 4.5,-5.90015 5.8999,-8.40015c1.5,-2.5 4.6001,-6.59985 7.1001,-9.30005c2.3999,-2.59985 4.30005,-4.69995 4,-4.69995c-0.90015,0 1.5,-3.19995 7.69995,-10.09985c3.6001,-4 8.1001,-9.30005 10,-11.80005c8.19995,-10.90015 49.19995,-52.19995 59,-59.5c3.6001,-2.69995 7.6001,-6.19995 8.80005,-7.69995c1.30005,-1.6001 3.59985,-3.6001 5,-4.30005c1.5,-0.80005 6.5,-5.1001 11.19995,-9.5c4.6001,-4.5 9,-7.90002 9.6001,-7.70007c0.69995,0.30005 1.3999,-0.40002 1.69995,-1.5c0.30005,-1 1.59985,-2.29993 2.8999,-2.79993c1.19995,-0.5 3.6001,-2.30005 5.19995,-4c1.7002,-1.70007 3.5,-3.1001 4,-3.1001c0.6001,0 3.1001,-1.8999 5.6001,-4.09998c2.5,-2.29993 6.3999,-5 8.69995,-6.09998c2.40015,-1.09998 4.30005,-2.40002 4.30005,-2.90002c0,-0.5 0.8999,-0.90002 1.8999,-0.90002c1.1001,0 3.7002,-1.59998 5.7002,-3.59998c2.59985,-2.40002 4.5,-3.40002 6,-3.09998c1.3999,0.19995 2.09985,-0.09998 2,-1.09998c-0.1001,-0.80005 1.59985,-2 3.8999,-2.80005c2.1001,-0.79993 4.19995,-1.90002 4.6001,-2.59998c0.3999,-0.59998 1.7998,-0.90002 3.19995,-0.59998c1.5,0.29993 2.5,0.09998 2.3999,-0.5c-0.30005,-1.30005 9.80005,-7.30005 15.90015,-9.5c2.69995,-0.90002 4.8999,-2.09998 4.8999,-2.70007c0,-0.5 1.6001,-1.19995 3.5,-1.59998c1.8999,-0.40002 3.6001,-1.19995 3.80005,-1.79993c0.3999,-1.20007 6.3999,-0.30005 7.30005,1.19995c0.69995,1 -19.40015,21.70007 -21.1001,21.70007c-0.6001,0 -0.80005,0.3999 -0.5,1c0.30005,0.5 -0.1001,1 -1,1c-0.8999,0 -1.30005,0.3999 -1,1c0.30005,0.5 -0.1001,1 -1,1c-0.8999,0 -1.30005,0.3999 -1,1c0.30005,0.5 -0.19995,1 -1.19995,1c-1,0 -2.5,0.8999 -3.30005,2c-0.80005,1.09998 -2.1001,2 -2.8999,2c-0.80005,0 -1.2002,0.29993 -0.80005,0.59998c0.30005,0.40002 -0.1001,1.29993 -0.90015,2.09998c-0.7998,0.80005 -1.19995,1.90002 -0.8999,2.40002c0.3999,0.5 -0.1001,0.90002 -1,0.90002c-0.8999,0 -1.30005,0.3999 -1,1c0.30005,0.5 -0.1001,1 -1,1c-0.8999,0 -1.30005,0.3999 -1,1c0.30005,0.5 -0.1001,1 -1,1c-0.8999,0 -1.30005,0.3999 -1,1c0.30005,0.5 -0.1001,1 -1,1c-0.8999,0 -1.30005,0.3999 -1,1c0.30005,0.5 -0.1001,1 -1,1c-0.8999,0 -1.30005,0.3999 -1,1c0.30005,0.5 -0.19995,1 -1.1001,1c-1,0 -1.5,0.29993 -1.09985,0.59998c0.30005,0.40002 -0.1001,1.29993 -0.90015,2.09998c-0.7998,0.80005 -1.19995,1.90002 -0.8999,2.40002c0.3999,0.5 -0.1001,0.90002 -1,0.90002c-0.8999,0 -1.30005,0.3999 -1,1c0.30005,0.5 -0.1001,1 -1,1c-0.8999,0 -1.30005,0.3999 -1,1c0.30005,0.5 -0.1001,1 -1,1c-0.8999,0 -1.30005,0.3999 -1,1c0.30005,0.5 -0.19995,1 -1.1001,1c-1,0 -1.5,0.29993 -1.09985,0.59998c0.8999,0.90002 -1.90015,3.40002 -3.69995,3.40002c-0.90015,0 -1.6001,0.79993 -1.6001,2c0,1.09998 -0.69995,2 -1.6001,2c-0.7998,0 -1.19995,0.3999 -0.8999,1c0.30005,0.5 -0.1001,1 -1,1c-0.8999,0 -1.30005,0.3999 -1,0.99988c0.30005,0.5 -0.1001,1 -1,1c-0.8999,0 -1.30005,0.40015 -1,1c0.30005,0.5 -0.1001,1 -1,1c-0.8999,0 -1.30005,0.40015 -1,1c0.30005,0.5 -0.1001,1 -1,1c-0.8999,0 -1.30005,0.40015 -1,1c0.30005,0.5 -0.1001,1 -1,1c-0.8999,0 -1.30005,0.40015 -1,1c0.30005,0.5 -0.1001,1 -1,1c-1.8999,0 -4.5,2.30005 -4.5,4c0,0.6001 -1.6001,2.69995 -3.5,4.6001c-2,1.8999 -3.30005,3.8999 -3,4.5c0.3999,0.5 0,0.8999 -0.8999,0.8999c-0.80005,0 -1.30005,0.80005 -1.2002,1.69995c0.2002,0.90015 -2.09985,4.1001 -5.09985,7c-2.90015,3 -5.1001,5.80005 -4.80005,6.30005c0.3999,0.6001 -0.30005,1 -1.5,1c-1.80005,0 -1.8999,0.30005 -1,2c0.8999,1.6001 0.80005,2 -0.6001,2c-1,0 -1.5,0.30005 -1.09985,0.6001c0.30005,0.30005 -1.40015,2.59985 -3.90015,5c-2.3999,2.5 -4.19995,4.8999 -3.8999,5.5c0.3999,0.5 -0.1001,0.8999 -0.8999,0.8999c-0.90015,0 -1.30005,0.69995 -1.1001,2c0.30005,1.30005 -0.19995,2 -1.19995,2c-0.90015,0 -1.30005,0.30005 -1,0.6001c0.30005,0.3999 -0.69995,1.8999 -2.30005,3.3999c-1.6001,1.5 -3,3.30005 -3.19995,4.1001c-0.19995,0.69995 -0.90015,2 -1.6001,2.69995c-0.69995,0.80005 -1,1.80005 -0.69995,2.30005c0.3999,0.5 -0.1001,0.8999 -1,0.8999c-0.8999,0 -1.30005,0.40015 -1,1c0.30005,0.5 -0.1001,1 -1,1c-0.8999,0 -1.30005,0.40015 -1,1c0.30005,0.5 -0.1001,1 -1,1c-0.8999,0 -1.30005,0.40015 -1,1c0.30005,0.5 -0.19995,1 -1.1001,1c-1,0 -1.3999,0.30005 -1.09985,0.6001c0.3999,0.3999 -0.19995,1.3999 -1.30005,2.3999c-1,0.90015 -2,2.30005 -2.19995,3c-0.19995,0.80005 -0.90015,2.1001 -1.6001,2.80005c-0.69995,0.80005 -1,1.80005 -0.69995,2.30005c0.3999,0.5 -0.1001,0.8999 -1,0.8999c-0.8999,0 -1.30005,0.40015 -1,1c0.30005,0.5 -0.19995,1 -1.1001,1c-1,0 -1.3999,0.30005 -1.09985,0.6001c0.3999,0.3999 -0.19995,1.3999 -1.30005,2.3999c-1,0.90015 -2,2.30005 -2.19995,3c-0.19995,0.80005 -0.90015,2.1001 -1.6001,2.80005c-0.69995,0.80005 -1,1.80005 -0.69995,2.30005c0.3999,0.5 -0.1001,0.8999 -1,0.8999c-0.8999,0 -1.30005,0.40015 -1,1c0.30005,0.5 -0.1001,1 -1,1c-0.8999,0 -1.30005,0.40015 -1,1c0.30005,0.5 0.1001,1 -0.3999,1c-0.6001,0 -1.1001,0.90015 -1.1001,2c0,1.1001 -0.6001,2 -1.3999,2c-0.90015,0 -1.30005,0.69995 -1.1001,2c0.30005,1.40015 -0.19995,2 -1.6001,2c-1.8999,0 -2.09985,0.30005 -2.19995,3.69995c-0.09985,1 -1.3999,3 -2.8999,4.40015c-1.5,1.3999 -2.80005,3.19995 -3,4c-0.19995,0.80005 -0.6001,1.59985 -1,1.8999c-0.30005,0.30005 -0.80005,1.19995 -1,2c-0.19995,0.80005 -2,3.19995 -4.19995,5.19995c-3,3.1001 -3.6001,4.1001 -2.7002,5.2002c1,1.09985 0.80005,1.59985 -0.7998,2.09985c-1.90015,0.6001 -2.80005,3.40015 -2.2002,6.69995c0,0.5 -0.59985,0.80005 -1.5,0.80005c-0.7998,0 -1.19995,0.40015 -0.8999,1c0.30005,0.5 -0.19995,1 -1.1001,1c-1,0 -1.5,0.30005 -1.09985,0.6001c0.30005,0.3999 0,1.30005 -0.80005,2c-0.80005,0.80005 -1.19995,2.30005 -1,3.3999c0.30005,1.5 -0.19995,2 -1.8999,2c-1.90015,0 -2.2002,0.40015 -1.80005,2.5c0.30005,1.6001 0,2.5 -0.80005,2.5c-1,0 -1,0.30005 0,1.5c1.5,1.80005 -0.1001,2 -1.8999,0.19995c-1.1001,-1 -1.30005,-1 -0.7002,0c0.40015,0.7002 0.30005,1.30005 -0.19995,1.30005c-0.5,0 -0.69995,1.1001 -0.5,2.5c0.30005,1.40015 -0.09985,3.1001 -1.09985,4c-0.90015,0.90015 -1.40015,2.1001 -1.1001,2.6001c0.3999,0.5 -0.1001,0.8999 -1,0.8999c-0.8999,0 -1.30005,0.40015 -1,1c0.30005,0.5 0.1001,1 -0.3999,1c-0.6001,0 -1.1001,0.80005 -1.1001,1.80005c0,1 -0.8999,2.3999 -2,3.19995c-1.1001,0.80005 -2,2.19995 -2,3.19995c0,1 -0.5,1.80005 -1.1001,1.80005c-0.5,0 -0.69995,0.40015 -0.3999,1c0.30005,0.5 0.19995,1 -0.3999,1c-0.5,0 -0.80005,0.80005 -0.7002,1.69995c0.2002,1 -0.2998,2.40015 -1.09985,3.1001c-0.69995,0.80005 -1.1001,1.80005 -0.80005,2.30005c0.3999,0.5 0,0.8999 -0.80005,0.8999c-1,0 -1.3999,0.90015 -1.19995,3c0.19995,2.40015 -0.1001,3 -1.6001,3c-1.19995,0 -1.8999,0.69995 -1.8999,2c0,1.1001 -0.3999,2 -1,2c-0.5,0 -0.8999,0.30005 -0.8999,0.69995c0.2998,2 -0.2002,3.30005 -1.40015,3.30005c-0.8999,0 -1.19995,1 -0.8999,3c0.30005,2.19995 0,3 -1.1001,3c-1,0 -1.3999,0.90015 -1.19995,3c0.19995,2.1001 -0.19995,3 -1.19995,3c-0.80005,0 -1.19995,0.40015 -0.80005,0.90015c0.30005,0.5 -0.3999,1.19995 -1.5,1.59985c-1.19995,0.40015 -1.69995,1.1001 -1.30005,1.80005c1.5,2.3999 1.1001,3.69995 -1,3.69995c-1.8999,0 -2.19995,0.5 -2.09985,4c0.19995,4.19995 -0.30005,4.80005 -2.5,2.69995c-1.1001,-1 -1.1001,-0.7998 -0.2002,1c1,1.90015 0.90015,2.30005 -0.2998,2.30005c-0.90015,0 -1.30005,0.6001 -1,1.5c0.2998,0.80005 -0.1001,2.1001 -0.90015,3c-0.8999,0.80005 -1.3999,2.40015 -1.19995,3.5c0.19995,1.19995 -0.30005,2.1001 -1.6001,2.5c-1.19995,0.40015 -1.8999,1.5 -1.8999,3c0,1.30005 -0.3999,2.5 -0.8999,2.69995c-0.5,0.1001 -1.1001,1 -1.30005,1.80005c-0.19995,0.80005 -0.6001,1.80005 -1,2.1001c-0.5,0.30005 -0.90015,1.69995 -1,3.19995c-0.1001,1.5 -0.80005,2.69995 -1.5,2.69995c-0.6001,0 -1,0.90015 -0.80005,2c0.30005,1.30005 -0.19995,2 -1.19995,2c-0.90002,0 -1.30005,0.30005 -1,0.6001c0.3999,0.3999 -0.30005,1.5 -1.5,2.5c-1.6001,1.3999 -1.80005,2.19995 -1,3.19995c0.8999,1 0.59998,1.69995 -0.80005,2.69995c-1.19995,0.80005 -2,2.6001 -2,4.19995c0,2.2002 -0.5,2.80005 -2.09998,2.80005c-1.09998,0 -1.70007,0.40015 -1.40002,1c1.30005,2.1001 1.40002,5 0.09998,5c-0.69995,0 -1.09998,1.19995 -1,3c0.09998,1.90015 -0.29993,3 -1.09998,3c-0.80005,0 -1.19995,0.80005 -1,2c0.30005,1.40015 -0.19995,2 -1.40002,2c-1.29993,0 -1.79993,1 -2,4.19995c-0.09998,2.40015 -0.59998,4.5 -1.19995,4.6001c-0.59998,0.30005 -0.5,0.8999 0.19995,1.80005c0.90002,1.09985 0.80005,1.3999 -0.5,1.3999c-1,0 -1.5,0.40015 -1.19995,0.90015c0.40002,0.5 0.19995,1.09985 -0.40002,1.2998c-0.5,0.1001 -1.09998,1.5 -1.19995,3c-0.1001,1.6001 -0.70007,2.80005 -1.30005,2.80005c-0.69995,0 -1.09998,1.6001 -1,3.69995c0.09998,2.90015 -0.5,4.40015 -2.59998,6.40015c-2,1.80005 -2.5,2.8999 -1.80005,4.09985c0.70007,1.30005 0.40002,1.80005 -1.09998,2.30005c-1.09998,0.40015 -2,1.5 -2,2.6001c0,1.09985 -0.59998,2.69995 -1.40002,3.3999c-0.69995,0.80005 -1.19995,2.80005 -1.09998,4.5c0.19995,1.80005 -0.19995,3 -0.90002,3c-0.69995,0 -1.09998,1.19995 -1,3c0.09998,1.90015 -0.29993,3 -1.09998,3c-0.80005,0 -1.19995,0.80005 -1,1.80005c0.19995,1.1001 -0.5,2.5 -1.59998,3.30005c-1.09998,0.69995 -1.90002,2.5 -1.90002,4c0,1.5 -0.59998,2.8999 -1.19995,3.19995c-1,0.30005 -1,0.69995 0.09998,2c1.19995,1.5 1.09998,1.69995 -0.30005,1.69995c-1,0 -1.40002,0.40015 -1.09998,1c0.30005,0.5 0,1 -0.69995,1c-1,0 -1.30005,1 -1,3.5c0.29993,2.19995 -0.1001,4 -1.1001,4.90015c-0.79993,0.7998 -1.29993,2.8999 -1.19995,4.59985c0.19995,2.1001 -0.19995,3 -1.19995,3c-0.80005,0 -1.1001,0.40015 -0.80005,1c0.30005,0.5 -0.09998,1 -0.90002,1c-1,0 -1.29993,0.6001 -0.90002,1.6001c0.30005,0.8999 0,2 -0.69995,2.3999c-1.09998,0.69995 -1.09998,1.40015 -0.19995,3.40015c1,2.2998 0.8999,2.59985 -0.90002,2.59985c-1.59998,0 -1.80005,0.30005 -0.90002,1.90015c0.59998,1.19995 0.59998,2.09985 0,2.2998c-0.5,0.2002 -1,2.90015 -1.09998,6c-0.20007,3.90015 -0.70007,5.80005 -1.5,5.80005c-0.70007,0 -1.09998,0.80005 -0.90002,2c0.19995,1.19995 -0.19995,2 -1,2c-0.90002,0 -1.19995,0.80005 -0.90002,2.5c0.20007,1.5 -0.19995,3.19995 -0.90002,4c-0.79993,0.80005 -1.29993,3.1001 -1.19995,5.40015c0.09998,2.8999 -0.19995,4.09985 -1.19995,4.09985c-0.80005,0 -1.1001,0.40015 -0.80005,1c0.30005,0.5 0.09998,1 -0.40002,1c-0.59998,0 -1.09998,1.30005 -1.09998,3c0,1.6001 -0.5,3 -1.09998,3c-0.5,0 -0.70007,0.40015 -0.40002,1c0.30005,0.5 -0.09998,1 -1,1c-1.30005,0 -1.40002,0.40015 -0.5,2c0.69995,1.40015 0.69995,2 0,2c-0.5,0 -1,1.30005 -1,3c0,1.6001 -0.5,3 -1.09998,3c-0.5,0 -0.70007,0.40015 -0.40002,1c0.30005,0.5 -0.09998,1 -1,1c-0.90002,0 -1.30005,0.5 -0.90002,1.1001c1.30005,2.19995 1.20007,6.8999 -0.19995,6.8999c-0.70007,0 -1.09998,0.80005 -0.90002,1.80005c0.19995,1.1001 -0.5,2.5 -1.59998,3.30005c-1.90002,1.3999 -2.5,4 -1.20007,5.30005c1.40002,1.2998 1,5.59985 -0.3999,5.59985c-0.80005,0 -1.1001,0.40015 -0.80005,1c0.30005,0.5 0.09998,1 -0.40002,1c-0.59998,0 -1.09998,1.5 -1.09998,3.40015c0,1.8999 -0.59998,3.59985 -1.30005,3.8999c-0.8999,0.30005 -1.29993,2 -1.19995,4.6001c0.09998,2.5 -0.19995,4.09985 -1,4.09985c-0.59998,0 -1,1.5 -1,3.69995c0.09998,2.1001 -0.30005,4.30005 -1,4.90015c-0.59998,0.69995 -1.09998,3.5 -1,6.30005c0.09998,4.09985 -0.19995,5.19995 -1.69995,5.69995c-1.40002,0.3999 -1.80005,1.59985 -1.80005,4.8999c0,2.6001 -0.5,4.5 -1.19995,4.80005c-1,0.30005 -1,0.69995 -0.1001,1.69995c0.90002,1 0.80005,1.6001 -0.29993,2.69995c-0.80005,0.80005 -1.20007,1.90015 -0.90002,2.40015c0.40002,0.5 0,0.8999 -0.69995,0.8999c-0.90002,0 -1.30005,1.6001 -1.1001,6c0.1001,4.1001 -0.29993,6 -1.09998,6c-0.79993,0 -1.19995,1.6001 -1.09998,4.69995c0.09998,4.5 -1.19995,7.30005 -3.30005,7.30005c-0.3999,0 -0.11804,1.33887 -0.3999,3c-0.3208,2.09399 -0.46558,1.68115 -0.80005,3c-0.19666,0.77563 0.24146,0.83887 -0.59998,2.19995c-0.01904,2.6709 -0.44568,3.70972 -0.8147,5.6853c-0.23438,0.97168 -0.81787,1.93945 -0.93628,2.42505c-0.28357,1.16382 -0.59998,2.19995 -0.5,5c-0.28186,3.4165 -0.93323,3.99927 -1.04907,4.6897c-0.20166,1.20264 0.10864,0.22852 -0.09998,2c-0.36377,1.71655 0.02405,0.13794 -0.30005,2c-0.1886,1.08374 -0.23621,3.23975 -1.09998,6c-0.55347,4.22852 -0.48193,4.44849 -0.90002,6c-0.23401,0.86914 -0.38525,0.86719 -0.8999,3.5c-0.3595,2.37158 -0.50439,2.02588 -0.70007,3.5c-0.07898,0.59497 -0.42371,1.46631 -0.63452,2.74927c-0.23267,1.41626 -0.34473,1.97925 -0.50171,3.11035c-0.2345,1.34741 -0.02393,0.78345 -0.3551,1.97754c-0.46216,2.62671 0.19141,18.46289 -1.30859,19.96289c-0.70007,0.80005 -1.1001,1.80005 -0.80005,2.30005c0.40002,0.5 0.09998,0.8999 -0.40002,0.8999c-0.69995,0 -1.09998,3.30005 -1.09998,9c0,6 -0.40002,9 -1.09998,9c-0.70007,0 -0.90002,0.90015 -0.5,2.19995c1.59998,5.30005 1.5,5.80005 -0.5,5.80005c-1.70007,0 -1.80005,0.30005 -0.90002,2c0.80005,1.5 0.80005,2 -0.19995,2c-1,0 -1.30005,2.19995 -1.1001,8.6001c0.1001,5.80005 -0.19995,9.09985 -1.09998,9.8999c-0.69995,0.69995 -1.19995,3.69995 -1.09998,7.1001c-4.23645,7.72607 -3.97656,18.56299 -5,28.3999c-0.07202,0.69629 -1.09998,1.80005 -1,5c0.09998,3 -0.30005,5 -0.90002,5c-0.79993,0 -1,7.90015 -0.79993,26c0.19995,19.40015 0,26 -0.90002,26c-0.70007,0 -0.90002,0.80005 -0.40002,2.19995c1.30005,4.6001 1.09998,7.30005 -0.80005,9c-1.09998,1 -1.59998,2.2002 -1.09998,2.90015c0.40002,0.69995 0.90002,10.3999 1.09998,21.59985c0.20007,16.40015 0,20.30005 -1,20.30005c-1.09998,0 -1.29993,2.69995 -1,13.5c0.30005,11.30005 0.20007,13.80005 -1.19995,15.1001c-0.80005,0.8999 -1.30005,1.8999 -1,2.3999c0.30005,0.5 -0.09998,1 -0.69995,1.30005c-0.70007,0.30005 0,1 1.69995,1.6001c1.59998,0.69995 4.5,1.8999 6.30005,2.7998c2,1 3.69995,1.2002 4,0.7002c0.3999,-0.5 3.19995,-1.6001 6.19995,-2.30005c3,-0.80005 12.5,-3.5 21,-6.19995c8.5,-2.6001 20.19995,-6.2002 26,-7.90015c20.40002,-6.09985 32.69995,-10.30005 46,-15.69995c21.19995,-8.69995 43.69995,-18.19995 51.69995,-21.8999c4,-1.90015 7.5,-3.40015 7.69995,-3.40015c0.30005,0 8.1001,-3.69995 17.40015,-8.30005c16.30005,-7.8999 23.80005,-12.19995 37.80005,-21.5c3.5,-2.2998 6.8999,-4.19995 7.2998,-4.19995c0.5,0 2.2002,-1.09985 3.80005,-2.30005c1.5,-1.2998 6,-4.2998 9.80005,-6.59985c3.8999,-2.30005 9.1001,-5.69995 11.69995,-7.40015c2.6001,-1.7998 7.30005,-4.7998 10.5,-6.69995c21.19995,-13 33.80005,-22.09985 47.80005,-34.8999c2.19995,-2 8.30005,-7.19995 13.5,-11.5c13.30005,-11 26,-22.5 36,-32.6001c9.3999,-9.3999 33.69995,-35.19995 39.1001,-41.5c1.8999,-2.19995 4.59985,-5.30005 6.09985,-7c1.6001,-1.59985 2.80005,-3.3999 2.80005,-3.8999c0,-1 9.19995,-12.19995 11.69995,-14.19995c0.69995,-0.6001 1,-1.30005 0.80005,-1.6001c-0.30005,-0.30005 1.80005,-3.1001 4.6001,-6.3999c2.8999,-3.2002 6.69995,-7.6001 8.5,-9.80005c1.8999,-2.1001 3.3999,-4.19995 3.3999,-4.69995c0,-0.40015 2.30005,-3.40015 5.1001,-6.6001c2.7998,-3.19995 5.59985,-6.8999 6.19995,-8.30005c0.59985,-1.3999 2.59985,-4.09985 4.3999,-6c1.80005,-1.8999 3.30005,-4.19995 3.30005,-5.09985c0,-0.90015 1.69995,-3.6001 3.8999,-6c2.1001,-2.40015 4.1001,-5.30005 4.5,-6.40015c0.30005,-1.09985 2.40015,-4 4.6001,-6.5c2.19995,-2.5 4,-5.30005 4,-6.19995c0,-0.8999 1.69995,-3.5 3.80005,-5.6001c2.09985,-2.09985 3.59985,-4.3999 3.5,-4.8999c-0.40015,-1 5.19995,-8.3999 6.80005,-9.1001c0.3999,-0.19995 0.5,-1.19995 0.19995,-2.2998c-0.40015,-1.40015 0,-2.2002 1.3999,-2.5c1.40015,-0.40015 1.90015,-1.2002 1.6001,-2.7002c-0.19995,-1.3999 0.69995,-3.2998 2.59985,-5.2998c1.6001,-1.80005 2.7002,-3.5 2.40015,-3.80005c-0.40015,-0.30005 -0.1001,-0.6001 0.5,-0.6001c0.59985,0 0.8999,-0.59985 0.59985,-1.30005c-0.19995,-0.69995 0.40015,-2.19995 1.6001,-3.19995c1.1001,-1 2,-2.3999 2,-3.19995c0,-0.69995 0.5,-1.30005 1.1001,-1.30005c0.59985,0 0.7998,-0.69995 0.5,-1.5c-0.30005,-0.8999 0.09985,-1.80005 0.8999,-2.09985c0.80005,-0.40015 1.5,-1.7002 1.5,-3c0,-1.5 0.6001,-2.40015 1.6001,-2.40015c0.7998,0 1.2998,-0.3999 1,-0.80005c-0.30005,-0.5 0.09985,-2 0.8999,-3.5c0.80005,-1.5 1.1001,-2.69995 0.69995,-2.69995c-0.3999,-0.09985 0.30005,-0.8999 1.6001,-2c1.3999,-1.09985 2,-2.3999 1.59985,-3.09985c-0.3999,-0.7002 0.1001,-1.80005 1.2002,-2.6001c1.2998,-1 1.7998,-2.30005 1.5,-4.80005c-0.1001,-2 0.19995,-3.5 0.7998,-3.5c0.6001,0 1.1001,-0.80005 1.1001,-1.8999c0,-1 0.69995,-2.40015 1.5,-3.1001c0.8999,-0.69995 1.3999,-1.8999 1.1001,-2.69995c-0.30005,-0.69995 0.09985,-1.30005 0.8999,-1.30005c0.80005,0 1.3999,-0.30005 1.3999,-0.80005c-0.5,-3.09985 0.30005,-6.19995 1.7002,-6.19995c0.7998,0 1.2998,-0.3999 0.8999,-0.8999c-0.30005,-0.5 0.1001,-1.5 0.80005,-2.30005c0.80005,-0.69995 1.19995,-1.8999 0.8999,-2.6001c-0.19995,-0.59985 0.1001,-1.19995 0.69995,-1.19995c0.6001,0 0.80005,-0.59985 0.5,-1.3999c-0.2998,-0.80005 -0.09985,-1.69995 0.5,-2c0.6001,-0.40015 0.80005,-1.30005 0.40015,-2.1001c-0.30005,-0.80005 0,-1.5 0.69995,-1.5c0.6001,0 0.8999,-0.3999 0.6001,-0.8999c-0.30005,-0.40015 0.09985,-1.69995 0.8999,-2.69995c0.80005,-1 1.5,-2.7002 1.5,-3.7002c0,-1 1.1001,-2.8999 2.3999,-4.19995c1.6001,-1.59985 2.2002,-3.09985 1.90015,-4.3999c-0.30005,-1.40015 0.09985,-2.30005 1.09985,-2.69995c1,-0.40015 1.6001,-1.80005 1.6001,-3.90015c0,-1.8999 0.5,-3.69995 1,-4c0.6001,-0.3999 0.80005,-1 0.5,-1.3999c-0.19995,-0.5 0.5,-1.69995 1.6001,-2.69995c1.09985,-1 1.69995,-2.40015 1.5,-3.1001c-0.30005,-0.69995 0,-1.30005 0.69995,-1.30005c0.69995,0 1.3999,-1.19995 1.5,-2.69995c0.09985,-1.5 0.8999,-3.69995 1.69995,-4.8999c0.80005,-1.30005 1.5,-3.5 1.5,-4.90015c0,-1.3999 0.3999,-2.5 1,-2.5c0.5,0 0.69995,-0.59985 0.3999,-1.3999c-0.2998,-0.80005 0.30005,-2 1.40015,-2.69995c1.19995,-0.80005 1.69995,-2 1.3999,-3.40015c-0.30005,-1.59985 0.19995,-2.3999 1.6001,-2.69995c1.5,-0.3999 1.8999,-1.19995 1.5,-3.19995c-0.30005,-1.40015 -0.1001,-3.19995 0.3999,-3.90015c0.6001,-0.59985 1.30005,-2.3999 1.69995,-4c0.30005,-1.5 1.1001,-2.69995 1.7002,-2.69995c0.69995,0 0.7998,-1.09985 0.3999,-2.8999c-0.5,-2.19995 -0.1001,-3.5 1.19995,-4.80005c1.19995,-1.19995 1.69995,-2.8999 1.5,-5.1001c-0.19995,-1.8999 0,-4.09985 0.40015,-5c0.3999,-1 0.59985,-2 0.59985,-2.5c-0.09985,-0.3999 0.19995,-0.69995 0.6001,-0.69995c1.09985,0 3.5,-8.69995 2.69995,-10c-0.69995,-1.19995 1.30005,-7 2.3999,-7c0.30005,0 0.5,-2 0.30005,-4.5c-0.30005,-3 0,-4.5 0.80005,-4.5c0.69995,0 1,-0.69995 0.6001,-1.5c-0.30005,-0.80005 -0.1001,-1.5 0.3999,-1.5c0.6001,0 1,-1.80005 1,-3.8999c0,-2.19995 0.5,-4.30005 1,-4.6001c0.6001,-0.3999 0.80005,-1.5 0.5,-2.5c-0.30005,-1.09985 0,-2 1,-2.3999c0.8999,-0.30005 1.3999,-1 1,-1.5c-0.30005,-0.5 -0.1001,-1.19995 0.30005,-1.5c0.5,-0.30005 0.69995,-1.69995 0.3999,-3.1001c-0.19995,-1.5 0,-2.5 0.69995,-2.5c0.7002,0 0.90015,-0.8999 0.5,-2.3999c-0.2998,-1.40015 -0.19995,-3.1001 0.2002,-3.80005c0.5,-0.69995 0.69995,-2.30005 0.5,-3.6001c-0.1001,-1.19995 0.19995,-2.19995 0.69995,-2.19995c0.5,0 0.69995,-1.09985 0.3999,-2.5c-0.19995,-1.3999 0,-2.5 0.6001,-2.5c0.69995,0 0.8999,-1.3999 0.5,-3.5c-0.40015,-2.19995 -0.19995,-3.5 0.5,-3.5c0.59985,0 0.8999,-0.69995 0.59985,-1.5c-0.3999,-0.80005 -0.2998,-2.30005 0.1001,-3.30005c0.3999,-0.8999 0.69995,-2.8999 0.6001,-4.3999c-0.1001,-1.3999 0.2998,-2.8999 0.7998,-3.30005c0.6001,-0.30005 0.80005,-1.69995 0.5,-3.09985c-0.2998,-1.30005 -0.2998,-3.2002 0.1001,-4.1001c0.3999,-1 0.69995,-3 0.6001,-4.5c-0.1001,-1.5 0.09985,-3.30005 0.5,-4c0.8999,-1.3999 1.2998,-6.30005 1.2998,-14.6001c0,-2.7998 0.30005,-5.19995 0.80005,-5.19995c0.40015,0 0.80005,-7.09985 0.90015,-15.69995c0.3999,-91 0.69995,-114.30005 1.2998,-114.30005c0.40015,0 0.7002,-25.80005 0.7002,-57.30005c0.09985,-168.69983 0.5,-252.69983 1.3999,-252.69983c1.5,0 1.19995,-7.80005 -0.19995,-8.30005c-0.69995,-0.30005 -0.80005,-0.59998 -0.19995,-0.59998c0.69995,-0.09998 0.8999,-11 0.59985,-36.90002c-0.19995,-21 0,-40.5 0.6001,-45.5c0.5,-4.90002 0.80005,-9.69995 0.5,-10.80005c-0.5,-1.90002 -2,-1.90002 -62.5,-1.90002c-41,0 -61.69995,0.30005 -61.30005,1c0.8999,1.5 -12.80005,1.30005 -14.30005,-0.19995c-0.8999,-0.90002 -1.19995,-0.90002 -1.19995,0" id="path16"/>
  <text xml:space="preserve" id="text16" font-size="85.3333px" fill="#28170b"/>
  <text xml:space="preserve" id="text18" fill="#1a1a1a" fill-rule="evenodd" stroke="#1a1a1a"/>
  <text xml:space="preserve" id="text20" font-size="85.3333px" fill="#28170b" fill-rule="evenodd" stroke="#1a1a1a"/>
  <text xml:space="preserve" id="text21" font-size="85.3333px" fill="#28170b" fill-rule="evenodd" stroke="#1a1a1a"/>
  <text fill="#000000" stroke-width="0" x="5289.35951" y="1605.05713" id="svg_2" font-size="24" font-family="'Spartan'" text-anchor="start" xml:space="preserve" stroke="#000" transform="rotate(0.48668 6681.18 2342.8) matrix(37.9587 0 0 51.2387 -198044 -79494.5)" font-weight="bold">MENTORAMEDIC</text>
  <text fill="#000000" stroke-width="0" x="5417.80226" y="1633.24441" id="svg_8" font-size="24" font-family="'Work Sans'" text-anchor="start" xml:space="preserve" stroke="#000" transform="matrix(20.4286 0 0 23.0086 -107851 -34086.9)">VAARDIGHEID KENT GEEN GRENZEN</text>
 </g>
 <g>
  <title>Layer 2</title>
  <path stroke="#1a1a1a" fill-rule="evenodd" fill="#0040bf" id="path1" d="m7363.09277,2738.75903c10.45605,-34.04321 249.49658,-992.35059 249.49658,-1000.22522c0,-4.44824 45.1709,-8.02771 100.37891,-7.95483l100.37891,0.13269l114.40918,488.64307c62.92529,268.75293 116.94629,499.40869 120.04883,512.5686c4.97168,21.09546 -4.3418,23.92603 -78.7251,23.92603l-84.36426,0l-21.51318,-102.54053l-21.51367,-102.54004l-102.38184,-2.56372c-56.31055,-1.41016 -117.16797,-2.948 -135.23828,-3.41821c-31.00635,-0.8064 -34.16357,5.10693 -56.11475,105.104l-23.26025,105.9585l-83.4248,0c-61.42871,0 -82.0415,-4.50659 -78.17627,-17.09033zm431.44482,-382.81714c-1.68311,-51.44043 -82.50049,-383.04419 -89.13379,-365.72705c-4.31982,11.27966 -26.18555,98.63281 -48.58838,194.11841l-40.73291,173.61035l43.88037,5.24561c98.26807,11.74805 135.13135,9.76294 134.57471,-7.24731z"/>
 </g>
</svg>